<svg width="40" height="41" viewBox="0 0 40 41" fill="none" xmlns="http://www.w3.org/2000/svg">
<path d="M15.1505 25.3991C14.749 25.818 14.3632 26.2274 13.9696 26.6273C13.4909 27.1139 13.3649 27.1123 12.8705 26.6556C12.8327 26.621 12.7902 26.5927 12.6485 26.4793C12.5619 26.61 12.4941 26.7611 12.3855 26.8698C9.46776 29.797 6.54686 32.7211 3.62282 35.6435C2.8859 36.3805 1.97893 36.5647 1.14753 36.1584C-0.0554644 35.5695 -0.378259 34.017 0.494073 32.9872C0.64681 32.8077 0.821591 32.6471 0.9885 32.4801C3.83696 29.6317 6.68542 26.7832 9.53389 23.9363C9.62679 23.8434 9.73544 23.7678 9.80787 23.708C9.79212 23.6229 9.79527 23.593 9.7811 23.5789C9.21267 22.9506 9.21109 22.9128 9.81732 22.3129C10.1889 21.9444 10.57 21.5822 10.9227 21.2374C10.3889 20.7005 9.88503 20.1903 9.40949 19.7116C9.06466 19.784 8.71037 19.9289 8.36396 19.9147C7.78135 19.8895 7.35936 19.5526 7.16096 18.9904C6.97043 18.4488 7.07435 17.9496 7.4743 17.5355C7.96558 17.0253 8.4726 16.5293 8.97333 16.0286C10.4015 14.5988 11.8281 13.1691 13.2563 11.7393C13.6846 11.3095 14.1916 11.1677 14.7679 11.3614C15.3332 11.552 15.6717 11.9724 15.7032 12.555C15.7221 12.9014 15.5804 13.2573 15.4906 13.7076C16.0905 14.2997 16.7739 14.9689 17.451 15.6444C19.1406 17.3308 20.8285 19.0219 22.5165 20.7115C22.6472 20.8422 22.7401 20.9508 22.9747 20.8312C23.6565 20.48 24.373 20.6595 24.795 21.2406C25.2154 21.82 25.1382 22.5758 24.584 23.1332C23.0755 24.648 21.5607 26.1596 20.0491 27.6713C19.6602 28.0602 19.2744 28.4554 18.8792 28.8381C18.3533 29.3451 17.6069 29.4112 17.0448 29.0113C16.459 28.5956 16.2937 27.8791 16.6039 27.1894C16.648 27.0918 16.67 26.9155 16.6149 26.8556C16.2417 26.4509 15.8465 26.0667 15.456 25.6778C15.3757 25.5959 15.2859 25.5219 15.1505 25.3991ZM14.771 14.3847C13.2374 15.9231 11.6942 17.4678 10.1889 18.9778C12.5792 21.3681 15.0088 23.7962 17.4038 26.1911C18.9248 24.6701 20.468 23.1269 21.9937 21.5996C19.5893 19.1983 17.1597 16.7718 14.771 14.3847ZM10.4912 24.3299C10.4424 24.374 10.3905 24.4134 10.3448 24.4591C7.35148 27.4524 4.35658 30.4473 1.36483 33.4407C1.30027 33.5052 1.23414 33.5714 1.18218 33.6454C0.911344 34.0185 0.864106 34.4169 1.0877 34.8263C1.30027 35.2168 1.64983 35.4672 2.08285 35.3822C2.40565 35.3176 2.75521 35.1444 2.98825 34.9145C5.61627 32.3148 8.22382 29.6962 10.8392 27.0824C11.2455 26.6777 11.6565 26.2777 12.0548 25.8841C11.5163 25.3503 11.0156 24.8527 10.4912 24.3299ZM8.50252 19.0314C8.6773 18.9133 8.83161 18.8393 8.94498 18.7243C10.8125 16.8647 12.6752 15.0004 14.5364 13.1344C14.601 13.0699 14.7049 12.9911 14.7002 12.9234C14.6907 12.7313 14.6939 12.4857 14.5805 12.3692C14.486 12.2715 14.2309 12.3046 14.053 12.3251C13.968 12.3361 13.8924 12.4511 13.8184 12.5235C11.984 14.3611 10.148 16.1955 8.31357 18.0331C8.23956 18.1071 8.13879 18.1811 8.11517 18.2708C8.07895 18.4125 8.04903 18.5936 8.10887 18.7086C8.17658 18.8377 8.34978 18.9117 8.50252 19.0314ZM17.9612 28.3137C18.0368 28.2602 18.1974 28.1752 18.3202 28.0523C20.1593 26.2211 21.9937 24.3851 23.8282 22.5506C23.8927 22.4861 24.0014 22.4168 24.0045 22.3475C24.0108 22.146 24.0423 21.8846 23.9337 21.757C23.8455 21.6531 23.5684 21.6846 23.3778 21.7019C23.2944 21.7098 23.2188 21.8279 23.1448 21.9019C21.3277 23.7174 19.5106 25.5345 17.6951 27.3516C17.6116 27.4351 17.5219 27.517 17.4636 27.6162C17.2762 27.9358 17.4951 28.3137 17.9612 28.3137ZM14.4545 24.7661C13.5003 23.8135 12.5477 22.8608 11.6344 21.9507C11.2927 22.2688 10.9211 22.612 10.5259 22.9805C11.0109 23.4608 11.4864 23.9284 11.9588 24.3992C12.439 24.8779 12.9146 25.3597 13.3791 25.8258C13.768 25.4416 14.1207 25.0936 14.4545 24.7661Z" fill="black"/>
<path d="M34.3478 17.9103C34.2612 18.3213 34.1998 18.7102 34.0959 19.0865C33.37 21.713 30.9813 23.5458 28.2557 23.5773C28.0462 23.5805 27.8227 23.623 27.629 23.5647C27.4385 23.5096 27.196 23.3837 27.1314 23.2262C27.0779 23.0939 27.196 22.8089 27.3267 22.6971C28.0352 22.0941 28.7706 21.5209 29.5012 20.943C29.9122 20.6186 30.1783 20.214 30.2239 19.6865C30.3042 18.7386 29.5626 17.9276 28.58 17.9135C27.4526 17.8977 26.3236 17.9103 25.1946 17.9087C23.6736 17.9056 22.6753 16.9151 22.6737 15.4019C22.6721 11.2953 22.6705 7.18876 22.6737 3.08216C22.6753 1.58943 23.6751 0.587973 25.1663 0.587973C29.276 0.586398 33.3826 0.586398 37.4892 0.587973C39.0055 0.587973 39.9975 1.5847 39.9991 3.10578C40.0007 7.19978 40.0007 11.2922 39.9991 15.3862C39.9975 16.923 39.0024 17.9072 37.4529 17.9087C36.4169 17.9119 35.3823 17.9103 34.3478 17.9103ZM29.0257 22.5412C31.4537 22.1633 33.2755 20.0707 33.3763 17.6458C33.3999 17.0821 33.5212 16.964 34.0896 16.964C35.2312 16.9624 36.3728 16.9671 37.5144 16.9624C38.456 16.9592 39.0496 16.3798 39.0496 15.4492C39.0527 11.3158 39.0527 7.18246 39.0496 3.05067C39.0496 2.1185 38.4575 1.53589 37.5175 1.53589C33.3983 1.53432 29.2776 1.53432 25.1584 1.53589C24.2168 1.53589 23.6263 2.11692 23.6248 3.0491C23.6216 7.18246 23.6216 11.3158 23.6248 15.4476C23.6248 16.3798 24.2168 16.9592 25.1568 16.9624C26.2591 16.9655 27.3613 16.9608 28.4635 16.964C29.6775 16.9671 30.6428 17.619 31.0254 18.6866C31.4143 19.7731 31.0742 20.8926 30.1137 21.6705C29.7783 21.9429 29.4398 22.2106 29.0257 22.5412Z" fill="black"/>
<path d="M29.92 37.7253C30.0302 37.7631 30.1168 37.793 30.2018 37.8229C30.8742 38.0622 31.2789 38.7204 31.1639 39.3928C31.0458 40.0809 30.4758 40.5769 29.7546 40.5816C28.1942 40.5911 26.6338 40.5848 25.0749 40.5848C23.1476 40.5848 21.2203 40.5848 19.293 40.5848C18.3702 40.5848 17.7719 40.1549 17.6506 39.3912C17.5341 38.6606 17.9971 37.9268 18.7985 37.7599C18.8237 37.7552 18.8442 37.7363 18.893 37.7095C18.893 37.2655 18.8883 36.8088 18.8946 36.3506C18.9119 35.0075 19.9228 33.9777 21.2596 33.9698C23.357 33.9588 25.4544 33.9588 27.5518 33.9698C28.887 33.9777 29.8979 35.0059 29.9168 36.3506C29.9263 36.8104 29.92 37.2686 29.92 37.7253ZM19.8504 37.7205C22.9161 37.7205 25.9346 37.7205 28.9689 37.7205C28.9689 37.2088 28.9894 36.7238 28.9642 36.242C28.9264 35.5114 28.3406 34.9288 27.6053 34.924C25.4701 34.9099 23.335 34.9099 21.1998 34.924C20.4975 34.9288 19.9102 35.4814 19.8582 36.1743C19.8204 36.6797 19.8504 37.1899 19.8504 37.7205ZM24.4088 39.6384C26.0732 39.6384 27.7391 39.6384 29.4035 39.6384C29.4948 39.6384 29.5877 39.6384 29.6791 39.6384C30.0019 39.6369 30.2254 39.4967 30.2223 39.1566C30.2176 38.8417 30.005 38.7 29.698 38.6968C29.6318 38.6968 29.5673 38.6968 29.5011 38.6968C26.1047 38.6968 22.7098 38.6968 19.3134 38.6968C19.2221 38.6968 19.1292 38.6905 19.0379 38.7015C18.767 38.7314 18.597 38.8842 18.5907 39.1582C18.5844 39.4337 18.7497 39.5912 19.019 39.6321C19.1213 39.6479 19.2284 39.6384 19.3339 39.6384C21.0266 39.6384 22.7177 39.6384 24.4088 39.6384Z" fill="black"/>
<path d="M31.6386 29.5939C31.5426 29.7655 31.4953 29.9057 31.4024 30.0017C30.9867 30.4348 30.56 30.8568 30.1317 31.2772C29.9129 31.4913 29.6609 31.5197 29.4405 31.2929C29.2185 31.0646 29.261 30.8174 29.4751 30.6017C29.8971 30.1749 30.3097 29.7372 30.7569 29.3373C30.8781 29.2302 31.1222 29.1782 31.2796 29.2176C31.4166 29.2538 31.5127 29.4538 31.6386 29.5939Z" fill="black"/>
<path d="M27.0864 29.068C27.0864 28.7672 27.0801 28.4681 27.0879 28.1673C27.0958 27.8776 27.2486 27.6886 27.5399 27.6792C27.8516 27.6697 28.0248 27.8602 28.028 28.1689C28.0374 28.7814 28.0374 29.3955 28.028 30.008C28.0233 30.3166 27.8501 30.5072 27.5383 30.4962C27.247 30.4867 27.0942 30.2962 27.0879 30.0064C27.0801 29.6947 27.0864 29.3813 27.0864 29.068Z" fill="black"/>
<path d="M31.6437 33.6565C31.3429 33.6565 31.0437 33.6628 30.743 33.6549C30.4359 33.6471 30.2375 33.4896 30.2423 33.1763C30.247 32.8629 30.4517 32.7133 30.7572 32.7117C31.3571 32.7086 31.957 32.707 32.5569 32.7133C32.864 32.7165 33.0624 32.8786 33.0577 33.1904C33.0529 33.5038 32.8467 33.6518 32.5428 33.6549C32.2436 33.6597 31.9444 33.6565 31.6437 33.6565Z" fill="black"/>
<path d="M14.7716 14.3846C17.1618 16.7718 19.5914 19.1982 21.9943 21.5995C20.4685 23.1269 18.9254 24.67 17.4043 26.1911C15.0077 23.7961 12.5797 21.3681 10.1895 18.9778C11.6948 17.4677 13.2363 15.9215 14.7716 14.3846Z" fill="#7D3939"/>
<path d="M10.4912 24.33C11.0156 24.8512 11.5147 25.3503 12.0533 25.8841C11.6549 26.2762 11.2439 26.6777 10.8377 27.0824C8.22381 29.6962 5.61469 32.3148 2.98667 34.9145C2.75363 35.1444 2.40406 35.3192 2.08127 35.3822C1.64825 35.4688 1.29869 35.2184 1.08612 34.8263C0.864099 34.4169 0.911337 34.0186 1.18059 33.6454C1.23413 33.5714 1.29869 33.5052 1.36325 33.4407C4.35658 30.4458 7.3499 27.4524 10.3432 24.4591C10.3905 24.415 10.4424 24.374 10.4912 24.33Z" fill="#DEB854"/>
<path d="M8.50263 19.0314C8.34989 18.9133 8.17669 18.8377 8.10898 18.7086C8.04757 18.5936 8.07906 18.411 8.11528 18.2708C8.1389 18.1811 8.23967 18.1071 8.31368 18.0331C10.1481 16.1955 11.9841 14.3611 13.8201 12.5251C13.8941 12.4511 13.9697 12.3361 14.0547 12.3267C14.2326 12.3046 14.4877 12.2731 14.5822 12.3708C14.6956 12.4873 14.6924 12.7329 14.7019 12.925C14.705 12.9927 14.6011 13.0715 14.5381 13.136C12.6753 15.0004 10.8126 16.8663 8.94667 18.7259C8.83172 18.8393 8.67741 18.9117 8.50263 19.0314Z" fill="#A76456"/>
<path d="M17.9603 28.3139C17.4942 28.3139 17.2753 27.936 17.4643 27.6179C17.5226 27.5187 17.6123 27.4353 17.6958 27.3534C19.5113 25.5363 21.3284 23.7192 23.1455 21.9036C23.2195 21.8296 23.2951 21.7115 23.3785 21.7037C23.5675 21.6863 23.8446 21.6549 23.9343 21.7588C24.043 21.8863 24.0115 22.1477 24.0052 22.3493C24.0021 22.4185 23.8934 22.4878 23.8288 22.5524C21.9944 24.3884 20.16 26.2228 18.3209 28.0541C18.1965 28.1753 18.0359 28.2588 17.9603 28.3139Z" fill="#A76456"/>
<path d="M14.4537 24.7662C14.1214 25.0937 13.7687 25.4417 13.3766 25.8259C12.9121 25.3598 12.4366 24.878 11.9563 24.3993C11.4839 23.9285 11.0084 23.4609 10.5234 22.9806C10.9202 22.6121 11.2903 22.2689 11.632 21.9508C12.5452 22.8625 13.4979 23.8136 14.4537 24.7662Z" fill="#F8D06A"/>
<path d="M29.0259 22.5413C29.4401 22.2107 29.7786 21.943 30.1124 21.6706C31.0729 20.8911 31.413 19.7732 31.0241 18.6867C30.6415 17.6175 29.6762 16.9672 28.4622 16.964C27.36 16.9609 26.2578 16.9656 25.1555 16.9625C24.2155 16.9593 23.6235 16.3799 23.6235 15.4477C23.6203 11.3143 23.6203 7.18096 23.6235 3.04918C23.6235 2.117 24.2139 1.53597 25.1571 1.53597C29.2763 1.5344 33.397 1.5344 37.5162 1.53597C38.4562 1.53597 39.0483 2.11858 39.0483 3.05075C39.0514 7.18411 39.0514 11.3175 39.0483 15.4493C39.0483 16.3799 38.4547 16.9593 37.5131 16.9625C36.3715 16.9656 35.2299 16.9625 34.0883 16.964C33.5199 16.964 33.3986 17.0821 33.375 17.6458C33.2758 20.0708 31.454 22.1634 29.0259 22.5413ZM36.2376 11.245C37.0706 11.371 37.65 11.1206 37.9539 10.5128C38.261 9.89717 38.124 9.30669 37.5272 8.70991C35.8219 7.00303 34.1166 5.29615 32.4082 3.59242C31.7768 2.96415 30.9501 2.92321 30.3423 3.52471C28.5425 5.30402 26.7475 7.08806 24.976 8.89572C24.1777 9.71137 24.5903 11.0214 25.6956 11.2592C25.9287 11.3096 26.1822 11.2671 26.4263 11.2671C26.4263 12.3174 26.4263 13.3723 26.4263 14.4494C26.1507 14.4494 25.894 14.4084 25.6594 14.4636C25.4957 14.5029 25.3067 14.6462 25.2359 14.7958C25.1823 14.9076 25.2532 15.1611 25.3539 15.2414C25.4909 15.3485 25.7114 15.3879 25.8956 15.3879C28.1253 15.3973 30.3533 15.3942 32.583 15.3942C34.0253 15.3942 35.4676 15.3926 36.91 15.3942C37.2296 15.3942 37.4627 15.265 37.4674 14.9265C37.4721 14.5879 37.2454 14.4462 36.9226 14.4462C36.6927 14.4462 36.4628 14.4462 36.236 14.4462C36.2376 13.3377 36.2376 12.2922 36.2376 11.245Z" fill="white"/>
<path d="M19.8498 37.7205C19.8498 37.1914 19.8183 36.6797 19.8577 36.1742C19.9097 35.4814 20.497 34.9287 21.1993 34.924C23.3344 34.9098 25.4696 34.9098 27.6048 34.924C28.3417 34.9287 28.9274 35.5113 28.9636 36.2419C28.9888 36.7237 28.9684 37.2087 28.9684 37.7205C25.9341 37.7205 22.9171 37.7205 19.8498 37.7205Z" fill="#A76456"/>
<path d="M24.4105 39.6384C22.7194 39.6384 21.0283 39.6384 19.3371 39.6384C19.2316 39.6384 19.1261 39.6462 19.0222 39.6321C18.753 39.5927 18.5876 39.4337 18.5939 39.1581C18.6002 38.8841 18.7703 38.7314 19.0411 38.7015C19.1324 38.6904 19.2238 38.6967 19.3167 38.6967C22.7131 38.6967 26.1079 38.6967 29.5044 38.6967C29.5705 38.6967 29.6351 38.6967 29.7012 38.6967C30.0082 38.6999 30.2208 38.8416 30.2255 39.1565C30.2303 39.4951 30.0051 39.6368 29.6823 39.6384C29.591 39.6384 29.4981 39.6384 29.4067 39.6384C27.7408 39.6384 26.0749 39.6384 24.4105 39.6384Z" fill="#7D3939"/>
<path d="M36.2362 11.245C36.2362 12.2937 36.2362 13.3392 36.2362 14.4446C36.4629 14.4446 36.6928 14.4446 36.9227 14.4446C37.2455 14.4446 37.4707 14.5863 37.4675 14.9248C37.4628 15.2634 37.2313 15.3925 36.9101 15.3925C35.4678 15.3909 34.0254 15.3925 32.5831 15.3925C30.3534 15.3925 28.1254 15.3956 25.8957 15.3862C25.7115 15.3862 25.491 15.3453 25.3541 15.2398C25.2517 15.1595 25.1824 14.9059 25.236 14.7941C25.3068 14.6461 25.4958 14.5013 25.6595 14.4619C25.8941 14.4068 26.1524 14.4477 26.4264 14.4477C26.4264 13.3707 26.4264 12.3157 26.4264 11.2654C26.1807 11.2654 25.9288 11.308 25.6957 11.2576C24.5904 11.0198 24.1778 9.70972 24.9762 8.89407C26.7476 7.08799 28.5426 5.30237 30.3424 3.52306C30.9502 2.92156 31.7769 2.9625 32.4083 3.59077C34.1167 5.2945 35.822 7.00138 37.5273 8.70826C38.1225 9.30504 38.2611 9.89552 37.9541 10.5112C37.6486 11.1206 37.0707 11.3709 36.2362 11.245ZM29.9173 14.4257C29.9173 13.8289 29.9062 13.2668 29.9204 12.7046C29.9362 12.0795 30.2432 11.6292 30.8195 11.3946C31.7265 11.0245 32.7153 11.678 32.7484 12.67C32.7689 13.2542 32.7516 13.8384 32.7516 14.4241C33.616 14.4241 34.4238 14.4241 35.2694 14.4241C35.2694 14.2918 35.2694 14.1769 35.2694 14.062C35.2694 12.9739 35.2819 11.8843 35.2583 10.7962C35.2536 10.6025 35.1513 10.3663 35.0158 10.2278C33.9546 9.13813 32.8697 8.07054 31.8005 6.98878C31.6556 6.84235 31.5454 6.65969 31.4084 6.48018C31.2242 6.65182 31.1281 6.73685 31.0368 6.82817C30.0354 7.82963 29.056 8.85628 28.0214 9.82152C27.5522 10.2593 27.3475 10.7033 27.3837 11.3505C27.442 12.3661 27.3995 13.388 27.3995 14.4241C28.2498 14.4257 29.0575 14.4257 29.9173 14.4257ZM26.0847 10.338C26.1776 10.2687 26.3476 10.1742 26.4815 10.0404C27.9333 8.59804 29.3772 7.15097 30.8242 5.70547C31.2636 5.26773 31.4131 5.26931 31.8603 5.7165C33.2885 7.1431 34.7167 8.57127 36.1448 9.99945C36.2188 10.0735 36.2897 10.1522 36.37 10.2183C36.5826 10.3931 36.8077 10.4041 37.0077 10.212C37.2077 10.0215 37.2077 9.79475 37.0424 9.5743C36.9872 9.50187 36.9164 9.44046 36.8518 9.3759C35.1827 7.70681 33.5152 6.03772 31.8446 4.36863C31.4179 3.94191 31.2541 3.94033 30.8353 4.35918C29.1662 6.0267 27.4971 7.69579 25.8296 9.36645C25.7383 9.45778 25.6391 9.55383 25.5808 9.66563C25.4218 9.96795 25.6532 10.3364 26.0847 10.338ZM31.8005 14.4257C31.8005 13.8242 31.8304 13.2369 31.78 12.6574C31.7674 12.5078 31.4997 12.2779 31.3454 12.2748C31.1911 12.2716 30.9093 12.4952 30.8967 12.6385C30.8447 13.229 30.8746 13.8273 30.8746 14.4257C31.2021 14.4257 31.484 14.4257 31.8005 14.4257Z" fill="black"/>
<path d="M29.9185 14.4256C29.0572 14.4256 28.2494 14.4256 27.4007 14.4256C27.4007 13.3895 27.4432 12.3676 27.3849 11.352C27.3487 10.7048 27.5534 10.2608 28.0226 9.82302C29.0572 8.85778 30.0366 7.83113 31.038 6.82968C31.1293 6.73835 31.2254 6.65332 31.4096 6.48169C31.5466 6.6612 31.6553 6.84228 31.8017 6.99029C32.8724 8.07205 33.9558 9.13964 35.0171 10.2293C35.1525 10.3694 35.2564 10.604 35.2595 10.7977C35.2832 11.8858 35.2706 12.9738 35.2706 14.0635C35.2706 14.1784 35.2706 14.2933 35.2706 14.4256C34.425 14.4256 33.6172 14.4256 32.7528 14.4256C32.7528 13.8399 32.7685 13.2557 32.7496 12.6715C32.7165 11.6811 31.7277 11.0276 30.8207 11.3961C30.2444 11.6307 29.9374 12.081 29.9216 12.7061C29.909 13.2667 29.9185 13.8288 29.9185 14.4256ZM31.3372 8.62159C30.9971 8.62159 30.7152 8.89872 30.7089 9.23884C30.7026 9.57738 30.9766 9.86554 31.3167 9.87813C31.6694 9.89073 31.9702 9.5947 31.9655 9.24041C31.9592 8.9003 31.6773 8.62159 31.3372 8.62159Z" fill="#F5CF6D"/>
<path d="M26.0858 10.338C25.656 10.3364 25.4245 9.96792 25.5835 9.66717C25.6434 9.55537 25.741 9.45932 25.8323 9.36799C27.4998 7.69732 29.1689 6.02823 30.838 4.36072C31.2568 3.94187 31.419 3.94344 31.8473 4.37017C33.5164 6.03768 35.1855 7.70835 36.8546 9.37744C36.9191 9.442 36.99 9.50341 37.0451 9.57584C37.2089 9.79629 37.2104 10.0215 37.0105 10.2136C36.8105 10.4057 36.5853 10.3946 36.3727 10.2199C36.2924 10.1537 36.2216 10.075 36.1476 10.001C34.7194 8.57281 33.2928 7.14464 31.8631 5.71803C31.4159 5.27084 31.2663 5.26927 30.827 5.70701C29.3799 7.15251 27.9344 8.59958 26.4842 10.0419C26.3488 10.1726 26.1787 10.2687 26.0858 10.338Z" fill="#BE202E"/>
<path d="M31.8016 14.4257C31.4851 14.4257 31.2033 14.4257 30.8758 14.4257C30.8758 13.8274 30.8458 13.229 30.8978 12.6385C30.9104 12.4953 31.1923 12.2717 31.3466 12.2748C31.5009 12.278 31.7686 12.5094 31.7812 12.6574C31.8315 13.2385 31.8016 13.8242 31.8016 14.4257Z" fill="white"/>
<path d="M31.3389 8.62159C31.679 8.62159 31.9609 8.9003 31.9656 9.24041C31.9703 9.59313 31.6696 9.88915 31.3168 9.87813C30.9783 9.86711 30.7043 9.57895 30.709 9.23884C30.7169 8.89715 30.9988 8.62001 31.3389 8.62159Z" fill="black"/>
</svg>
