<svg width="37" height="36" viewBox="0 0 37 36" fill="none" xmlns="http://www.w3.org/2000/svg">
<path d="M26.0966 15.6535C27.29 15.6741 28.4128 15.8252 29.5017 16.1908C33.8518 17.6542 36.7308 21.9023 36.4369 26.4219C36.1327 31.0751 32.7761 34.9415 28.2173 35.8031C25.1076 36.3903 22.2932 35.6593 19.8213 33.6747C19.6038 33.5 19.3951 33.434 19.1247 33.434C13.2345 33.4398 7.34421 33.4369 1.45395 33.4413C1.00571 33.4413 0.557478 33.3914 0.31205 32.9951C0.137165 32.7118 0.0151861 32.3433 0.0137165 32.0116C-0.003919 26.9841 0.000489875 21.9566 0.000489875 16.9306C0.000489875 11.7812 0.000489875 6.6319 0.000489875 1.48257C0.000489875 0.456521 0.448726 0.00734933 1.47599 0.00734933C7.97909 0.00734933 14.4807 0.0102851 20.9838 9.91424e-06C21.4996 -0.00145797 21.895 0.160009 22.2536 0.52698C23.3675 1.66312 24.4962 2.78458 25.6293 3.90164C25.9555 4.22311 26.104 4.58567 26.1025 5.04512C26.0937 8.42125 26.0981 11.7974 26.0981 15.1735C26.0966 15.3159 26.0966 15.4612 26.0966 15.6535ZM18.3576 32.2332C18.2253 32.0512 18.1004 31.9162 18.0196 31.7591C17.877 31.4802 17.6683 31.4083 17.3656 31.42C16.7425 31.4435 16.1164 31.4318 15.4918 31.4259C14.9936 31.4215 14.7776 31.2072 14.7761 30.7037C14.7732 26.5687 14.7746 22.4351 14.7761 18.3001C14.7761 17.7746 14.9892 17.5632 15.5109 17.5618C16.4044 17.5588 17.2994 17.5603 18.193 17.5603C18.9954 17.5603 19.1041 17.6586 19.1762 18.4366C19.1776 18.4513 19.207 18.4616 19.2232 18.4748C19.2349 18.4718 19.2482 18.4733 19.2555 18.466C19.3393 18.394 19.4216 18.3207 19.5039 18.2473C20.9485 16.9658 22.6239 16.1497 24.5241 15.8238C24.8636 15.7651 24.9253 15.6476 24.9239 15.3408C24.9136 12.0998 24.918 8.85721 24.918 5.61613C24.918 5.48695 24.918 5.35925 24.918 5.21246C23.9054 5.21246 22.9502 5.21393 21.9964 5.21246C21.2263 5.20952 20.8824 4.86164 20.8795 4.08513C20.8765 3.25284 20.8795 2.42202 20.8795 1.58973C20.8795 1.46055 20.8795 1.33138 20.8795 1.21395C14.2808 1.21395 7.73807 1.21395 1.19676 1.21395C1.19676 11.5669 1.19676 21.8861 1.19676 32.2318C6.91067 32.2332 12.6069 32.2332 18.3576 32.2332ZM26.2671 34.8123C31.2315 34.8152 35.27 30.7874 35.27 25.8362C35.27 20.885 31.2315 16.8454 26.2759 16.8396C21.3292 16.8337 17.2745 20.8821 17.273 25.8274C17.2715 30.78 21.3056 34.8094 26.2671 34.8123ZM17.0775 30.2325C17.0334 30.1122 16.9996 30.0109 16.9585 29.9125C15.5962 26.6377 15.8107 23.4656 17.6683 20.4461C18.0152 19.8825 17.9608 19.3511 17.9696 18.764C17.2848 18.764 16.6322 18.764 15.9738 18.764C15.9738 22.5981 15.9738 26.4072 15.9738 30.2325C16.3457 30.2325 16.6954 30.2325 17.0775 30.2325ZM22.0743 4.0088C22.7415 4.0088 23.3675 4.0088 23.879 4.0088C23.2911 3.42605 22.6606 2.80073 22.0743 2.21945C22.0743 2.74642 22.0743 3.3644 22.0743 4.0088Z" fill="black"/>
<path d="M18.3571 32.2332C12.6065 32.2332 6.91019 32.2332 1.19629 32.2332C1.19629 21.8876 1.19629 11.5684 1.19629 1.21539C7.73759 1.21539 14.2818 1.21539 20.879 1.21539C20.879 1.33429 20.879 1.46347 20.879 1.59117C20.879 2.42346 20.8775 3.25428 20.879 4.08657C20.8805 4.86308 21.2258 5.21097 21.9959 5.2139C22.9497 5.21684 23.9049 5.2139 24.9175 5.2139C24.9175 5.36069 24.9175 5.48987 24.9175 5.61757C24.9175 8.85866 24.9146 12.1012 24.9234 15.3423C24.9249 15.6476 24.8631 15.7665 24.5237 15.8252C22.622 16.1511 20.9481 16.9672 19.5034 18.2487C19.4211 18.3221 19.3388 18.3955 19.255 18.4674C19.2477 18.4748 19.233 18.4733 19.2227 18.4762C19.2065 18.463 19.1772 18.4527 19.1757 18.4381C19.1037 17.6586 18.9949 17.5617 18.1925 17.5617C17.299 17.5617 16.404 17.5588 15.5104 17.5632C14.9887 17.5647 14.7756 17.776 14.7756 18.3015C14.7742 22.4366 14.7742 26.5701 14.7756 30.7052C14.7756 31.2072 14.9931 31.4229 15.4913 31.4273C16.1159 31.4318 16.7405 31.445 17.3651 31.4215C17.6678 31.4097 17.8765 31.4831 18.0191 31.7606C18.0999 31.9162 18.2248 32.0512 18.3571 32.2332ZM2.91575 8.05572C2.89077 10.8007 5.09814 13.0612 7.83165 13.0876C10.621 13.114 12.8813 10.9152 12.9166 8.14086C12.9518 5.42528 10.7106 3.13245 7.99037 3.10309C5.20249 3.07226 2.94073 5.27849 2.91575 8.05572ZM13.2222 26.1811C13.2222 24.6766 13.2237 23.1734 13.2208 21.6689C13.2193 21.1199 13.0194 20.9217 12.4654 20.9188C11.5101 20.9158 10.5549 20.9158 9.60108 20.9188C9.04115 20.9202 8.83981 21.1125 8.83834 21.663C8.8354 24.6707 8.8354 27.6798 8.83834 30.6875C8.83834 31.213 9.05584 31.4229 9.57609 31.4244C10.5181 31.4273 11.4616 31.4259 12.4037 31.4259C13.0253 31.4244 13.2193 31.2351 13.2193 30.62C13.2237 29.1404 13.2222 27.6608 13.2222 26.1811ZM16.426 14.1137C15.8925 14.5438 15.4472 14.9166 14.9873 15.2704C11.6938 17.8039 8.05944 19.7048 4.14583 21.0832C3.69759 21.2417 3.52711 21.5294 3.65203 21.8773C3.78136 22.2355 4.08704 22.3485 4.53087 22.1929C9.06172 20.6032 13.2105 18.3353 16.8978 15.2469C16.9771 15.1808 17.0653 15.1236 17.1917 15.0311C17.1917 15.1427 17.1932 15.1984 17.1917 15.2557C17.1785 15.7107 17.3533 15.9691 17.7031 16.0087C18.0514 16.0483 18.3071 15.79 18.3703 15.3394C18.4541 14.7463 18.5452 14.1548 18.6246 13.5618C18.6745 13.1874 18.4835 12.863 18.1528 12.8645C17.4077 12.8689 16.6612 12.9012 15.919 12.9687C15.6074 12.9966 15.4384 13.252 15.4487 13.575C15.459 13.8788 15.7059 14.0946 16.0366 14.1137C16.1277 14.1181 16.2217 14.1137 16.426 14.1137ZM7.28054 27.7591C7.28054 26.7932 7.28201 25.8274 7.27907 24.8615C7.2776 24.3301 7.08361 24.1261 6.55013 24.1217C5.58312 24.1144 4.61611 24.1144 3.64909 24.1217C3.11121 24.1261 2.91575 24.3228 2.91575 24.8556C2.91281 26.8006 2.91134 28.7441 2.91575 30.689C2.91722 31.2233 3.12003 31.4244 3.64468 31.4273C4.6117 31.4303 5.57871 31.4303 6.54573 31.4273C7.07332 31.4259 7.27907 31.2204 7.28054 30.6949C7.28201 29.7158 7.28054 28.7367 7.28054 27.7591ZM18.8112 12.063C19.7165 12.063 20.6218 12.063 21.5271 12.063C22.0532 12.063 22.5793 12.0704 23.1055 12.0572C23.4435 12.0484 23.6669 11.8223 23.6845 11.5141C23.7021 11.1852 23.4876 10.9342 23.1437 10.8917C23.0349 10.8785 22.9232 10.8858 22.813 10.8858C20.2676 10.8858 17.7237 10.8858 15.1783 10.8858C14.9461 10.8858 14.711 10.8697 14.4817 10.8931C14.0202 10.9416 13.7557 11.4407 14.0393 11.7768C14.1731 11.9353 14.4494 12.0469 14.6639 12.0498C16.0469 12.0748 17.4298 12.063 18.8112 12.063ZM18.8289 6.39115C17.4092 6.39115 15.991 6.38821 14.5713 6.39261C14.1848 6.39408 13.9468 6.6172 13.9379 6.95628C13.9306 7.29683 14.1613 7.53169 14.5361 7.56545C14.5846 7.56986 14.6345 7.56839 14.683 7.56839C17.4356 7.56839 20.1883 7.56986 22.9409 7.56692C23.4258 7.56692 23.6948 7.33793 23.6845 6.95335C23.6742 6.58931 23.417 6.39115 22.9379 6.39115C21.5697 6.38968 20.2 6.39115 18.8289 6.39115ZM18.848 8.6326C17.5018 8.6326 16.1571 8.6326 14.8109 8.6326C14.2098 8.6326 13.9379 8.81902 13.9379 9.22416C13.9379 9.62929 14.2069 9.80984 14.8124 9.81131C17.4797 9.81131 20.1456 9.81131 22.813 9.80984C22.9585 9.80984 23.1099 9.81278 23.251 9.78195C23.5199 9.72177 23.6683 9.53535 23.683 9.26086C23.6977 8.97168 23.5669 8.75884 23.2848 8.67811C23.1349 8.63554 22.9703 8.63554 22.813 8.63554C21.4903 8.63113 20.1691 8.6326 18.848 8.6326ZM16.7875 5.30345C17.5341 5.30345 18.2807 5.30638 19.0258 5.30198C19.4299 5.29904 19.6856 5.07005 19.6901 4.7251C19.6945 4.38308 19.4358 4.13061 19.039 4.12914C17.5591 4.1218 16.0777 4.12327 14.5978 4.12914C14.1878 4.13061 13.9438 4.36106 13.9409 4.71189C13.9365 5.07739 14.1878 5.29904 14.6228 5.30198C15.3429 5.30638 16.0645 5.30345 16.7875 5.30345Z" fill="white"/>
<path d="M26.2675 34.8122C21.3046 34.8093 17.272 30.78 17.2734 25.8273C17.2749 20.882 21.3311 16.8336 26.2764 16.8395C31.2305 16.8454 35.2705 20.8864 35.2705 25.8361C35.2705 30.7873 31.2319 34.8137 26.2675 34.8122ZM30.1268 22.7653C30.0827 22.8475 30.0327 22.9547 29.9725 23.056C29.6065 23.6769 29.22 24.2875 28.8805 24.9216C28.7747 25.1183 28.7233 25.3958 28.7688 25.6115C29.0172 26.7653 30.0783 27.6005 31.2584 27.6167C32.4826 27.6328 33.5598 26.8534 33.8435 25.6893C33.9037 25.4457 33.8596 25.1183 33.7376 24.8996C33.1542 23.8545 32.5296 22.8328 31.9168 21.8039C31.6581 21.3694 31.4906 21.2901 31.0115 21.4178C30.4472 21.5675 29.9181 21.5147 29.3596 21.3356C28.882 21.1815 28.3559 21.1844 27.8533 21.1022C27.7269 21.0817 27.5726 21.0347 27.4962 20.9451C26.8069 20.1246 25.7355 20.1202 25.0551 20.9363C24.9787 21.0274 24.8273 21.0846 24.7039 21.1051C24.1895 21.1903 23.6531 21.1918 23.1622 21.3444C22.6141 21.5162 22.0953 21.5661 21.5442 21.4222C21.0533 21.293 20.8902 21.3664 20.6345 21.7951C20.0216 22.824 19.4191 23.8589 18.796 24.8805C18.627 25.1565 18.6093 25.4222 18.6946 25.7187C19.0047 26.7947 19.9937 27.5814 21.0915 27.6167C22.2907 27.6563 23.3209 26.9664 23.7133 25.8728C23.8485 25.4941 23.8456 25.1565 23.6149 24.7969C23.1872 24.1319 22.8036 23.4406 22.4098 22.7756C22.8801 22.6332 23.3165 22.4864 23.7604 22.3734C24.0058 22.3103 24.2689 22.2677 24.5187 22.2883C24.6642 22.3 24.8141 22.438 24.9346 22.5495C25.1109 22.7139 25.2373 22.9444 25.4328 23.075C25.6371 23.2101 25.6929 23.3539 25.6915 23.5829C25.6826 25.0259 25.6885 26.4688 25.687 27.9117C25.687 28.0292 25.6738 28.148 25.6665 28.2728C25.5357 28.3036 25.4299 28.3271 25.324 28.3565C24.2071 28.6574 23.3445 29.293 22.7742 30.3058C22.4333 30.9121 22.6846 31.3451 23.3812 31.3466C25.3152 31.3495 27.2493 31.351 29.1833 31.3466C29.8549 31.3451 30.1121 30.9091 29.7858 30.3249C29.2127 29.2989 28.3471 28.6413 27.2096 28.3624C26.9421 28.2963 26.8598 28.198 26.8627 27.9279C26.876 26.5216 26.8745 25.1154 26.8627 23.7092C26.8598 23.4083 26.898 23.1778 27.1978 23.0207C27.3492 22.9415 27.4947 22.7756 27.5549 22.6171C27.6784 22.2912 27.9179 22.2457 28.1986 22.2765C28.4397 22.3044 28.6807 22.3528 28.9158 22.416C29.3126 22.5158 29.705 22.6406 30.1268 22.7653Z" fill="#F5CF6D"/>
<path d="M17.0778 30.2325C16.6957 30.2325 16.3459 30.2325 15.9756 30.2325C15.9756 26.4072 15.9756 22.598 15.9756 18.7639C16.634 18.7639 17.2865 18.7639 17.9713 18.7639C17.961 19.3525 18.0169 19.8824 17.6701 20.4461C15.811 23.4655 15.5979 26.6376 16.9602 29.9125C16.9999 30.0123 17.0337 30.1136 17.0778 30.2325Z" fill="#8FC386"/>
<path d="M22.0742 4.00877C22.0742 3.36437 22.0742 2.74492 22.0742 2.21942C22.6606 2.8007 23.2911 3.42602 23.8789 4.00877C23.3675 4.00877 22.7414 4.00877 22.0742 4.00877Z" fill="white"/>
<path d="M2.91723 8.05574C2.94368 5.27997 5.20396 3.07228 7.99037 3.1031C10.7106 3.13246 12.9518 5.42529 12.9166 8.14087C12.8813 10.9152 10.621 13.1141 7.83165 13.0876C5.09962 13.0612 2.89077 10.8007 2.91723 8.05574ZM7.89779 11.9104C10.0126 11.9163 11.7409 10.1974 11.735 8.0939C11.7306 6.00804 10.0111 4.28768 7.92277 4.28034C5.81239 4.273 4.09146 5.99189 4.09587 8.10418C4.10175 10.2091 5.79475 11.9045 7.89779 11.9104Z" fill="black"/>
<path d="M13.223 26.1811C13.223 27.6607 13.2245 29.1404 13.223 30.62C13.223 31.235 13.029 31.4259 12.4074 31.4259C11.4653 31.4273 10.5218 31.4288 9.5798 31.4244C9.05808 31.4229 8.84205 31.213 8.84205 30.6875C8.83911 27.6798 8.83911 24.6707 8.84205 21.663C8.84205 21.1125 9.04486 20.9202 9.60478 20.9188C10.56 20.9158 11.5153 20.9158 12.4691 20.9188C13.0231 20.9202 13.223 21.1199 13.2245 21.6689C13.2259 23.1734 13.223 24.6765 13.223 26.1811ZM12.0208 30.2398C12.0208 27.511 12.0208 24.8189 12.0208 22.1268C11.3448 22.1268 10.6938 22.1268 10.0516 22.1268C10.0516 24.8498 10.0516 27.5404 10.0516 30.2398C10.7188 30.2398 11.3536 30.2398 12.0208 30.2398Z" fill="black"/>
<path d="M16.4266 14.1137C16.2223 14.1137 16.1282 14.1181 16.0356 14.1122C15.705 14.0931 15.4566 13.8759 15.4478 13.5735C15.4375 13.2506 15.6065 12.9966 15.9181 12.9673C16.6602 12.8997 17.4068 12.866 18.1519 12.863C18.4811 12.8616 18.6736 13.186 18.6237 13.5603C18.5443 14.1533 18.4532 14.7449 18.3694 15.3379C18.3062 15.7885 18.0505 16.0469 17.7022 16.0072C17.3524 15.9676 17.1775 15.7093 17.1908 15.2542C17.1922 15.197 17.1908 15.1397 17.1908 15.0296C17.0644 15.1221 16.9762 15.1779 16.8968 15.2454C13.2096 18.3338 9.05934 20.6002 4.52995 22.1914C4.08612 22.347 3.78044 22.234 3.65112 21.8758C3.5262 21.528 3.69667 21.2402 4.14491 21.0817C8.05852 19.7019 11.6944 17.8025 14.9863 15.2689C15.4478 14.9166 15.8931 14.5438 16.4266 14.1137Z" fill="black"/>
<path d="M7.28155 27.7591C7.28155 28.7367 7.28302 29.7158 7.28008 30.6934C7.27861 31.2189 7.07286 31.4244 6.54526 31.4258C5.57825 31.4288 4.61124 31.4288 3.64422 31.4258C3.11957 31.4244 2.91676 31.2218 2.91529 30.6875C2.91235 28.7426 2.91235 26.7991 2.91529 24.8541C2.91676 24.3198 3.11222 24.1231 3.64863 24.1202C4.61565 24.1129 5.58266 24.1129 6.54967 24.1202C7.08315 24.1246 7.27714 24.3272 7.27861 24.86C7.28302 25.8259 7.28155 26.7932 7.28155 27.7591ZM4.12626 25.3283C4.12626 26.9738 4.12626 28.6016 4.12626 30.2222C4.80082 30.2222 5.44305 30.2222 6.08086 30.2222C6.08086 28.5737 6.08086 26.9532 6.08086 25.2974C5.49889 25.2974 4.93749 25.296 4.3761 25.2989C4.2938 25.2989 4.2115 25.318 4.12626 25.3283Z" fill="black"/>
<path d="M18.8118 12.063C17.4289 12.063 16.046 12.0748 14.6645 12.0513C14.4499 12.0469 14.1737 11.9368 14.0399 11.7783C13.7563 11.4421 14.0208 10.943 14.4823 10.8946C14.7115 10.8696 14.9467 10.8873 15.1789 10.8873C17.7243 10.8873 20.2682 10.8873 22.8136 10.8873C22.9238 10.8873 23.0355 10.8799 23.1442 10.8931C23.4881 10.9342 23.7042 11.1867 23.6851 11.5155C23.6674 11.8238 23.444 12.0498 23.106 12.0586C22.5799 12.0718 22.0538 12.0645 21.5277 12.0645C20.6224 12.063 19.7171 12.063 18.8118 12.063Z" fill="black"/>
<path d="M18.8301 6.39116C20.1998 6.39116 21.571 6.38969 22.9407 6.39116C23.4183 6.39116 23.6769 6.58932 23.6872 6.95336C23.6975 7.33647 23.4286 7.56546 22.9436 7.56693C20.191 7.5684 17.4384 7.5684 14.6858 7.5684C14.6373 7.5684 14.5873 7.56987 14.5388 7.56546C14.1626 7.5317 13.9319 7.29684 13.9407 6.95629C13.948 6.61868 14.1861 6.39409 14.5741 6.39262C15.9923 6.38822 17.4119 6.39116 18.8301 6.39116Z" fill="black"/>
<path d="M18.848 8.63257C20.1692 8.63257 21.4904 8.6311 22.8116 8.63404C22.9688 8.63404 23.1349 8.63404 23.2833 8.67661C23.5655 8.75734 23.6963 8.97018 23.6816 9.25936C23.6669 9.53385 23.5185 9.72027 23.2495 9.78045C23.1085 9.81275 22.9586 9.80835 22.8116 9.80835C20.1442 9.80981 17.4783 9.80981 14.811 9.80981C14.2055 9.80981 13.9365 9.6278 13.9365 9.22266C13.9365 8.81752 14.2084 8.6311 14.8095 8.6311C16.1571 8.63257 17.5033 8.63257 18.848 8.63257Z" fill="black"/>
<path d="M16.7886 5.3034C16.067 5.3034 15.3454 5.30634 14.6224 5.30194C14.1888 5.299 13.9375 5.07735 13.9405 4.71185C13.9449 4.35956 14.1874 4.13057 14.5974 4.1291C16.0773 4.12323 17.5587 4.12323 19.0386 4.1291C19.4369 4.13057 19.694 4.38304 19.6896 4.72506C19.6852 5.07001 19.4295 5.299 19.0254 5.30194C18.2803 5.30781 17.5337 5.3034 16.7886 5.3034Z" fill="black"/>
<path d="M30.1258 22.7654C29.704 22.6406 29.3102 22.5158 28.9134 22.4102C28.6782 22.347 28.4372 22.2986 28.1962 22.2707C27.9155 22.2384 27.6759 22.2839 27.5525 22.6113C27.4922 22.7713 27.3468 22.9357 27.1954 23.0149C26.8941 23.1735 26.8574 23.4024 26.8603 23.7034C26.8721 25.1096 26.8735 26.5158 26.8603 27.9221C26.8574 28.1921 26.9397 28.292 27.2071 28.3565C28.3461 28.634 29.2117 29.2931 29.7834 30.3191C30.1096 30.9048 29.8539 31.3393 29.1808 31.3408C27.2468 31.3452 25.3128 31.3452 23.3788 31.3408C22.6836 31.3393 22.4309 30.9063 22.7718 30.3C23.342 29.2872 24.2047 28.6531 25.3216 28.3507C25.4274 28.3228 25.5332 28.2993 25.664 28.267C25.6714 28.1408 25.6846 28.0233 25.6846 27.9059C25.6861 26.463 25.6802 25.0201 25.689 23.5771C25.6905 23.3481 25.6332 23.2057 25.4304 23.0692C25.2349 22.9386 25.11 22.7081 24.9322 22.5437C24.8116 22.4322 24.6617 22.2942 24.5163 22.2825C24.2664 22.2619 24.0034 22.3045 23.7579 22.3676C23.3141 22.4806 22.8776 22.6274 22.4073 22.7698C22.8012 23.4347 23.1848 24.1261 23.6124 24.7911C23.8432 25.1507 23.8461 25.4883 23.7109 25.867C23.3185 26.9606 22.2883 27.6505 21.0891 27.6109C19.9913 27.5742 19.0022 26.7888 18.6921 25.7129C18.6069 25.4164 18.626 25.1507 18.7935 24.8747C19.4167 23.8516 20.0192 22.8168 20.632 21.7892C20.8877 21.3606 21.0509 21.2872 21.5417 21.4164C22.0928 21.5617 22.6116 21.5103 23.1598 21.3386C23.6506 21.1859 24.1885 21.1845 24.7014 21.0993C24.8263 21.0788 24.9762 21.023 25.0527 20.9305C25.7331 20.1144 26.8045 20.1188 27.4937 20.9393C27.5701 21.0289 27.7244 21.0759 27.8508 21.0964C28.3534 21.1786 28.8796 21.1757 29.3572 21.3298C29.9171 21.5103 30.4462 21.5632 31.0091 21.412C31.4882 21.2843 31.6557 21.3636 31.9143 21.798C32.5272 22.827 33.1518 23.8487 33.7352 24.8938C33.8572 25.1125 33.8998 25.4399 33.841 25.6835C33.5559 26.8476 32.4802 27.627 31.256 27.6109C30.0744 27.5947 29.0133 26.7595 28.7664 25.6057C28.7209 25.3914 28.7723 25.1125 28.8781 24.9158C29.2176 24.2802 29.6041 23.6711 29.97 23.0502C30.0318 22.9547 30.0832 22.8476 30.1258 22.7654ZM28.1271 30.1503C27.0308 29.0303 24.9513 29.365 24.4883 30.1503C25.6802 30.1503 26.8735 30.1503 28.1271 30.1503ZM30.3507 24.725C31.0252 24.725 31.6278 24.725 32.2818 24.725C31.954 24.1731 31.6483 23.6608 31.3162 23.1001C30.9782 23.6711 30.6755 24.179 30.3507 24.725ZM20.2661 24.7206C20.9289 24.7206 21.5388 24.7206 22.1928 24.7206C21.8636 24.1672 21.5564 23.6549 21.2272 23.1001C20.8877 23.6711 20.5894 24.1746 20.2661 24.7206ZM22.3045 25.9507C21.5682 25.9507 20.8833 25.9507 20.1779 25.9507C20.7437 26.598 21.6226 26.6054 22.3045 25.9507ZM32.3934 25.9492C31.6542 25.9492 30.9708 25.9492 30.2669 25.9492C30.8342 26.5951 31.7277 26.6039 32.3934 25.9492ZM26.2725 21.3753C26.1196 21.5852 25.9433 21.7261 25.9638 21.8215C25.9932 21.9536 26.1725 22.0535 26.2886 22.1665C26.3915 22.0535 26.5664 21.9478 26.5781 21.8259C26.5884 21.7144 26.4238 21.5867 26.2725 21.3753Z" fill="black"/>
<path d="M7.89714 11.9104C5.79411 11.9045 4.1011 10.2091 4.09669 8.10418C4.09228 5.9919 5.81174 4.27448 7.92359 4.28035C10.0105 4.28622 11.7314 6.00658 11.7358 8.09391C11.7402 10.1974 10.0134 11.9148 7.89714 11.9104ZM9.78855 6.6774C9.66657 6.19006 9.33443 5.80254 8.8377 5.56034C8.64371 5.4664 8.50116 5.3842 8.4556 5.13906C8.40269 4.85429 8.15432 4.67374 7.88685 4.7398C7.68551 4.7897 7.43568 4.97906 7.37248 5.16255C7.29753 5.37979 7.18731 5.46493 7.00802 5.553C6.39224 5.85392 6.04688 6.35006 6.05717 7.0385C6.06746 7.72107 6.44221 8.18638 7.06239 8.43886C7.33133 8.54895 7.62673 8.59446 7.90596 8.68106C8.1264 8.74858 8.36007 8.8029 8.55259 8.92179C8.82594 9.09207 8.79655 9.37684 8.52026 9.5339C7.97062 9.84949 7.31517 9.64693 7.0477 9.08179C6.89485 8.75739 6.60534 8.62381 6.29966 8.73537C5.99103 8.8484 5.85142 9.13023 5.94695 9.47812C6.10861 10.0609 6.49806 10.4352 7.04035 10.6877C7.16674 10.7464 7.28431 10.8932 7.33868 11.0267C7.44743 11.2954 7.6135 11.4612 7.90596 11.4642C8.19694 11.4671 8.36742 11.3042 8.48205 11.0385C8.53937 10.9064 8.66428 10.7669 8.79361 10.7097C9.28593 10.4954 9.69008 10.2047 9.85321 9.66748C10.081 8.91592 9.73123 8.13648 8.95674 7.7974C8.54818 7.61831 8.09113 7.54786 7.66053 7.41428C7.4489 7.34822 7.22111 7.26162 7.24463 6.97832C7.26814 6.70089 7.48124 6.5908 7.72372 6.54823C8.15726 6.47337 8.48205 6.61281 8.69368 7.02382C8.82888 7.28657 9.0699 7.40987 9.37264 7.31593C9.64893 7.23226 9.78855 7.0341 9.78855 6.6774Z" fill="#F5CF6D"/>
<path d="M12.0201 30.2398C11.3529 30.2398 10.718 30.2398 10.0508 30.2398C10.0508 27.5404 10.0508 24.8498 10.0508 22.1268C10.6945 22.1268 11.3455 22.1268 12.0201 22.1268C12.0201 24.8189 12.0201 27.511 12.0201 30.2398Z" fill="#8FC386"/>
<path d="M4.12598 25.3282C4.21121 25.318 4.29351 25.2989 4.37581 25.2989C4.93721 25.296 5.49714 25.2974 6.08058 25.2974C6.08058 26.9532 6.08058 28.5737 6.08058 30.2222C5.44276 30.2222 4.802 30.2222 4.12598 30.2222C4.12598 28.6016 4.12598 26.9737 4.12598 25.3282Z" fill="#8FC386"/>
<path d="M28.128 30.1503C26.8759 30.1503 25.6811 30.1503 24.4893 30.1503C24.9522 29.3635 27.0317 29.0303 28.128 30.1503Z" fill="white"/>
<path d="M30.3516 24.725C30.6763 24.1789 30.9776 23.6696 31.3171 23.1C31.6507 23.6608 31.9549 24.1731 32.2826 24.725C31.6301 24.725 31.0261 24.725 30.3516 24.725Z" fill="white"/>
<path d="M20.2666 24.7206C20.5899 24.1745 20.8883 23.671 21.2263 23.1C21.5569 23.6534 21.8626 24.1672 22.1918 24.7206C21.5393 24.7206 20.9279 24.7206 20.2666 24.7206Z" fill="white"/>
<path d="M22.3053 25.9507C21.6234 26.6068 20.7445 26.5995 20.1787 25.9507C20.8841 25.9507 21.569 25.9507 22.3053 25.9507Z" fill="white"/>
<path d="M32.3941 25.9492C31.7284 26.6054 30.8349 26.5951 30.2676 25.9492C30.9715 25.9492 31.6549 25.9492 32.3941 25.9492Z" fill="white"/>
<path d="M26.2732 21.3753C26.4245 21.5852 26.5891 21.7144 26.5788 21.8259C26.5671 21.9478 26.3937 22.0535 26.2893 22.1665C26.1747 22.0535 25.9954 21.9536 25.9645 21.8215C25.944 21.7261 26.1203 21.5852 26.2732 21.3753Z" fill="white"/>
<path d="M9.78837 6.67737C9.78837 7.03407 9.64876 7.23223 9.371 7.31737C9.06825 7.40984 8.82724 7.28801 8.69203 7.02526C8.48041 6.61425 8.15415 6.4748 7.72208 6.54966C7.47959 6.59223 7.26649 6.70086 7.24298 6.97975C7.21947 7.26159 7.44726 7.34966 7.65888 7.41571C8.08948 7.54929 8.54507 7.61975 8.95509 7.79883C9.72959 8.13938 10.0794 8.91736 9.85157 9.66891C9.68844 10.2062 9.28576 10.4983 8.79197 10.7111C8.66264 10.7669 8.53625 10.9078 8.4804 11.0399C8.36577 11.3071 8.19677 11.4685 7.90431 11.4656C7.61333 11.4627 7.44579 11.2968 7.33704 11.0282C7.28266 10.8946 7.16509 10.7478 7.0387 10.6891C6.49788 10.4381 6.10843 10.0623 5.9453 9.47956C5.84831 9.13167 5.98939 8.84984 6.29801 8.73681C6.60369 8.62525 6.89321 8.75883 7.04605 9.08323C7.31352 9.64983 7.96898 9.85093 8.51862 9.53534C8.79344 9.37681 8.8243 9.0935 8.55095 8.92323C8.3599 8.80433 8.12476 8.75002 7.90431 8.6825C7.62508 8.59589 7.32969 8.55039 7.06075 8.4403C6.4391 8.18782 6.06581 7.7225 6.05552 7.03994C6.04524 6.35003 6.39207 5.85389 7.00637 5.55444C7.18567 5.46637 7.29589 5.38123 7.37084 5.16398C7.43403 4.9805 7.68387 4.79114 7.88521 4.74123C8.15268 4.67518 8.40104 4.85573 8.45395 5.1405C8.49951 5.38563 8.64206 5.46637 8.83605 5.56178C9.33426 5.80251 9.66639 6.19003 9.78837 6.67737Z" fill="black"/>
</svg>
