<svg width="37" height="39" viewBox="0 0 37 39" fill="none" xmlns="http://www.w3.org/2000/svg">
<path d="M22.738 35.3712C22.7606 35.9438 22.8147 36.4722 22.7951 36.9976C22.7545 38.0894 21.8811 38.9665 20.8018 38.9817C19.2609 39.0046 17.7201 39.0061 16.1807 38.9802C15.1194 38.9619 14.249 38.0848 14.2069 37.0158C14.1859 36.4905 14.237 35.9621 14.2581 35.3697C14.2445 35.3636 14.1468 35.3164 14.0506 35.2661C13.2975 34.8717 12.8841 34.255 12.8585 33.387C12.8525 33.1586 12.8555 32.9302 12.8585 32.7018C12.869 32.0683 13.1035 31.5262 13.5966 31.1455C13.8597 30.943 13.8657 30.745 13.8071 30.4663C13.4794 28.9253 12.7292 27.6522 11.5567 26.6106C9.81439 25.065 8.72001 23.1296 8.24497 20.8302C7.12203 15.3984 10.6667 9.93769 16.0349 8.82758C19.2234 8.16822 22.2028 8.64637 24.8561 10.6016C30.0108 14.401 30.3701 22.1063 25.6002 26.466C24.3856 27.5761 23.5302 28.8568 23.192 30.4831C23.1364 30.7511 23.1454 30.9369 23.3949 31.1318C23.897 31.5231 24.1451 32.0729 24.1451 32.7216C24.1451 33.0764 24.1676 33.4388 24.103 33.783C23.9436 34.5992 23.4145 35.1093 22.738 35.3712ZM17.7637 22.2326C18.3003 22.2326 18.7679 22.2326 19.2654 22.2326C19.2654 21.9007 19.2564 21.5976 19.267 21.2961C19.3045 20.2759 19.9389 19.3987 20.8785 19.146C21.2347 19.05 21.6226 19.0333 21.9924 19.0485C22.9259 19.0866 23.6099 19.5525 23.9932 20.416C24.6487 21.8961 23.5843 23.5529 21.9548 23.6031C21.5098 23.6169 21.0634 23.6047 20.6244 23.6047C20.6244 25.9741 20.6244 28.2888 20.6244 30.6019C21.0273 30.6019 21.4587 30.7145 21.7549 30.5623C21.9473 30.4633 21.9473 29.976 22.033 29.6638C22.0465 29.6151 22.06 29.5664 22.0751 29.5176C22.5336 27.9081 23.4626 26.635 24.6787 25.5112C28.8323 21.6753 28.5677 15.0344 24.1466 11.7163C22.0826 10.1676 19.7345 9.66359 17.215 9.98338C14.5136 10.3245 12.3248 11.5853 10.808 13.903C8.33817 17.675 9.07027 22.6194 12.5278 25.7107C13.7575 26.8101 14.5767 28.1563 14.9871 29.7598C15.0578 30.04 15.1209 30.3217 15.1856 30.5958C15.6185 30.5958 16.0244 30.5958 16.4348 30.5958C16.4348 28.2553 16.4348 25.9421 16.4348 23.6031C15.9703 23.6031 15.5328 23.6153 15.0954 23.6001C13.998 23.5636 13.1065 22.7778 12.9201 21.6966C12.7398 20.6505 13.2975 19.58 14.2926 19.2206C14.703 19.0729 15.175 19.0424 15.617 19.0485C16.764 19.0653 17.7036 20.0185 17.7607 21.1804C17.7772 21.5215 17.7637 21.8626 17.7637 22.2326ZM18.5018 34.1332C19.6653 34.1332 20.8289 34.1393 21.9924 34.1302C22.5185 34.1271 22.8041 33.8408 22.8327 33.3139C22.8432 33.1114 22.8462 32.9074 22.8267 32.7063C22.7816 32.2602 22.505 31.9998 22.063 31.9724C21.9007 31.9632 21.7383 31.9678 21.576 31.9678C19.4248 31.9678 17.2721 31.9663 15.1209 31.9693C14.449 31.9708 14.1769 32.2404 14.1649 32.9013C14.1633 32.9896 14.1633 33.0794 14.1649 33.1678C14.1724 33.8606 14.4369 34.1317 15.1254 34.1332C16.2499 34.1362 17.3758 34.1332 18.5018 34.1332ZM18.4807 37.6493C19.2188 37.6478 19.957 37.6569 20.6936 37.6447C21.149 37.6371 21.4332 37.3691 21.4918 36.9458C21.5985 36.1661 21.4347 35.7017 20.9867 35.5342C20.907 35.5037 20.8168 35.4869 20.7311 35.4869C19.2429 35.4839 17.7547 35.4793 16.2664 35.4885C15.838 35.4915 15.5418 35.793 15.5043 36.224C15.4907 36.3869 15.4967 36.5529 15.4983 36.7174C15.5043 37.3615 15.7764 37.6432 16.4152 37.6478C17.1052 37.6539 17.7922 37.6493 18.4807 37.6493ZM19.2324 30.6049C19.2324 28.2492 19.2324 25.9361 19.2324 23.6351C18.7333 23.6351 18.2658 23.6351 17.8043 23.6351C17.8043 25.9772 17.8043 28.2872 17.8043 30.6049C18.2973 30.6049 18.7573 30.6049 19.2324 30.6049ZM20.6064 22.2494C21.107 22.2494 21.5579 22.2722 22.0029 22.2433C22.5591 22.2068 22.9349 21.7103 22.8538 21.1682C22.7771 20.6657 22.3727 20.3733 21.7489 20.3703C21.0979 20.3657 20.6665 20.652 20.6139 21.1667C20.5778 21.5139 20.6064 21.8672 20.6064 22.2494ZM16.4618 22.2387C16.4618 21.9311 16.4664 21.6662 16.4603 21.4027C16.4498 20.9215 16.2138 20.5637 15.826 20.4281C15.3239 20.253 14.673 20.3931 14.4054 20.7342C13.9739 21.284 14.2776 22.1428 14.9661 22.2266C15.4441 22.2859 15.9327 22.2387 16.4618 22.2387Z" fill="black"/>
<path d="M5.74818 10.7204C5.28367 10.2559 4.84622 9.82042 4.41327 9.38185C3.5985 8.55498 3.59399 7.34742 4.41177 6.53273C5.13484 5.81245 5.86543 5.09826 6.60354 4.39322C7.3672 3.6638 8.52773 3.66989 9.28537 4.4054C9.72884 4.83482 10.1498 5.28861 10.5992 5.71195C10.6774 5.78504 10.8788 5.82463 10.9645 5.77438C12.2754 5.01299 13.6599 4.44042 15.1857 4.08866C15.1857 3.37447 15.1812 2.65572 15.1872 1.93697C15.1932 1.11771 15.5811 0.53296 16.3041 0.194902C16.5462 0.0822158 16.8318 0.0197817 17.0994 0.0136906C18.1261 -0.00610562 19.1528 -1.44857e-05 20.1811 0.00759943C21.2228 0.0136906 22.0136 0.793356 22.0376 1.85017C22.0542 2.55978 22.0406 3.2694 22.0406 3.89831C23.5289 4.53179 24.972 5.14699 26.5114 5.80331C26.8451 5.45764 27.2675 5.00994 27.7004 4.5729C28.5528 3.70949 29.7299 3.70796 30.5687 4.56986C31.2632 5.28404 31.9532 6.0028 32.6342 6.72917C33.3918 7.53472 33.3843 8.70574 32.6206 9.50063C32.2103 9.92853 31.7953 10.3519 31.3684 10.7615C31.2151 10.9092 31.188 11.0204 31.3008 11.2122C32.0208 12.4396 32.562 13.7446 32.8837 15.1365C32.9318 15.3451 33.0175 15.4273 33.2355 15.4212C33.7857 15.406 34.3374 15.409 34.8891 15.4182C36.2435 15.4395 36.9967 16.2176 36.9967 17.5851C36.9967 18.5246 36.9997 19.4627 36.9967 20.4022C36.9922 21.625 36.1804 22.4428 34.9642 22.4504C34.4261 22.4534 33.8864 22.4412 33.3482 22.4595C33.243 22.4626 33.0731 22.557 33.0506 22.6407C32.6552 24.1178 32.0584 25.5051 31.2512 26.8375C31.7052 27.2913 32.1546 27.7314 32.5936 28.1791C33.4023 29.0044 33.3993 30.2166 32.5801 31.0297C31.8645 31.7409 31.1429 32.4444 30.4153 33.1418C29.6336 33.8911 28.4731 33.8911 27.7049 33.1373C27.0856 32.5297 26.4813 31.9053 25.8664 31.2856C26.1791 30.9688 26.4678 30.6749 26.797 30.3414C27.2675 30.8166 27.7335 31.2856 28.1995 31.7561C29.0173 32.583 29.094 32.5845 29.9163 31.782C30.4755 31.2368 31.0362 30.6917 31.5924 30.142C31.9757 29.7628 31.9802 29.4506 31.6059 29.0669C31.0858 28.5354 30.5582 28.0101 30.038 27.4786C29.6908 27.1238 29.6577 26.8527 29.9343 26.4294C30.8693 24.998 31.5233 23.4463 31.8901 21.7697C32.0013 21.2641 32.2133 21.1027 32.7379 21.1012C33.4775 21.0982 34.2156 21.1027 34.9552 21.0997C35.4754 21.0966 35.6873 20.8865 35.6903 20.3626C35.6948 19.4109 35.6963 18.4592 35.6903 17.5074C35.6873 16.9882 35.4648 16.7628 34.9552 16.7597C34.166 16.7536 33.3768 16.7597 32.5876 16.7567C32.0404 16.7552 31.8314 16.5877 31.7352 16.0562C31.4346 14.4147 30.8047 12.9071 29.9388 11.494C29.554 10.8666 29.575 10.6945 30.0876 10.1752C30.5927 9.66509 31.1008 9.15648 31.6029 8.64178C31.9697 8.26718 31.9802 7.96262 31.6285 7.58954C30.9701 6.8921 30.3071 6.20076 29.6397 5.51398C29.3029 5.16679 28.9812 5.16984 28.631 5.51855C28.1033 6.04239 27.5847 6.57689 27.0585 7.10225C26.6827 7.47685 26.4302 7.51188 25.9942 7.2195C24.5796 6.27385 23.0448 5.61753 21.3897 5.24902C20.8996 5.13938 20.7433 4.93685 20.7418 4.42519C20.7373 3.6638 20.7418 2.90241 20.7403 2.14102C20.7388 1.51059 20.5779 1.3446 19.9721 1.34308C19.0702 1.34156 18.1682 1.34003 17.2662 1.3446C16.689 1.34765 16.5011 1.53952 16.4981 2.12427C16.4951 2.92373 16.5011 3.72319 16.4951 4.52265C16.4906 5.02212 16.3147 5.23684 15.8261 5.32668C14.2161 5.6221 12.7384 6.25101 11.3479 7.10986C10.6383 7.54842 10.5301 7.53624 9.93178 6.9317C9.44322 6.43984 8.95766 5.94493 8.46759 5.4546C8.1023 5.09065 7.79864 5.08456 7.42733 5.44241C6.73733 6.10635 6.05184 6.77637 5.37086 7.45096C5.04014 7.77836 5.03713 8.10728 5.36184 8.44382C5.86994 8.96918 6.39007 9.48236 6.90419 10.0031C7.33112 10.4356 7.36119 10.6717 7.03798 11.1696C6.12099 12.5827 5.47909 14.1131 5.11831 15.7638C5.00556 16.2785 4.79661 16.4445 4.28249 16.4476C3.54288 16.4506 2.80477 16.446 2.06517 16.4491C1.52248 16.4521 1.31804 16.6577 1.31654 17.209C1.31203 18.1485 1.31203 19.0865 1.31654 20.0261C1.31954 20.5758 1.53301 20.7875 2.06517 20.7905C2.82883 20.7936 3.59399 20.789 4.35765 20.7921C4.87929 20.7936 5.10177 20.9672 5.19197 21.4712C5.48962 23.128 6.12851 24.6447 7.0004 26.0685C7.37472 26.6791 7.35367 26.8588 6.8606 27.3583C6.34648 27.8791 5.82935 28.3953 5.31824 28.9176C4.96197 29.2816 4.95746 29.5953 5.31373 29.9699C5.96465 30.6567 6.62007 31.3389 7.277 32.018C7.62727 32.3804 7.95197 32.3835 8.31276 32.018C8.86145 31.4637 9.39962 30.8973 9.93328 30.346C10.261 30.6917 10.5526 30.9993 10.8217 31.284C10.2324 31.9023 9.64616 32.6013 8.97269 33.2028C8.24661 33.8515 7.13119 33.7555 6.44269 33.0596C5.69857 32.3058 4.96497 31.5429 4.24491 30.7648C3.5504 30.0156 3.56242 28.8491 4.25994 28.106C4.68236 27.6553 5.11981 27.2182 5.56328 26.7888C5.71661 26.6396 5.74217 26.5299 5.62942 26.338C4.90935 25.1107 4.36517 23.8072 4.04798 22.4138C3.99236 22.1717 3.87661 22.1215 3.66014 22.126C3.10994 22.1367 2.55824 22.1352 2.00654 22.1291C0.802418 22.1138 0.0132009 21.3068 0.0101944 20.0885C0.0086911 19.0987 0.00568456 18.1089 0.0101944 17.1191C0.0162075 15.9374 0.823464 15.1167 1.99601 15.1045C2.54771 15.0984 3.09942 15.1151 3.64961 15.0938C3.76085 15.0892 3.94125 14.9796 3.9668 14.8852C4.34863 13.4203 4.94092 12.0452 5.74818 10.7204Z" fill="black"/>
<path d="M17.7641 22.2327C17.7641 21.8626 17.7791 21.5215 17.7611 21.1819C17.7025 20.02 16.7644 19.0668 15.6174 19.05C15.1755 19.0439 14.7035 19.0729 14.2931 19.2221C13.2979 19.5815 12.7402 20.652 12.9206 21.6982C13.107 22.7793 13.9984 23.5651 15.0958 23.6016C15.5333 23.6169 15.9707 23.6047 16.4352 23.6047C16.4352 25.9437 16.4352 28.2583 16.4352 30.5973C16.0248 30.5973 15.6189 30.5973 15.186 30.5973C15.1214 30.3232 15.0582 30.0415 14.9876 29.7613C14.5772 28.1563 13.7594 26.8101 12.5282 25.7122C9.06919 22.621 8.3386 17.675 10.8085 13.903C12.3268 11.5854 14.5155 10.323 17.2154 9.98034C19.7364 9.66055 22.083 10.1646 24.147 11.7133C28.5681 15.0314 28.8327 21.6723 24.6792 25.5082C23.463 26.632 22.534 27.9065 22.0755 29.5146C22.062 29.5633 22.0469 29.6121 22.0334 29.6608C21.9477 29.973 21.9477 30.4602 21.7553 30.5592C21.4576 30.7115 21.0277 30.5988 20.6248 30.5988C20.6248 28.2857 20.6248 25.9711 20.6248 23.6016C21.0638 23.6016 21.5103 23.6138 21.9552 23.6001C23.5833 23.5499 24.6476 21.8931 23.9937 20.4129C23.6118 19.5495 22.9278 19.0835 21.9928 19.0455C21.6215 19.0302 21.2337 19.047 20.8789 19.1429C19.9408 19.3957 19.305 20.2728 19.2674 21.2931C19.2569 21.5961 19.2659 21.8992 19.2659 22.2296C18.7683 22.2327 18.3008 22.2327 17.7641 22.2327Z" fill="#F5CF6D"/>
<path d="M18.5017 34.1332C17.3757 34.1332 16.2498 34.1363 15.1238 34.1332C14.4353 34.1317 14.1708 33.8622 14.1632 33.1678C14.1617 33.0794 14.1617 32.9896 14.1632 32.9013C14.1753 32.2404 14.4474 31.9693 15.1193 31.9693C17.2705 31.9663 19.4232 31.9678 21.5744 31.9678C21.7367 31.9678 21.9006 31.9632 22.0614 31.9724C22.5034 31.9983 22.78 32.2602 22.8251 32.7064C22.8446 32.9074 22.8431 33.1114 22.8311 33.314C22.8025 33.8408 22.5169 34.1256 21.9908 34.1302C20.8287 34.1393 19.6652 34.1332 18.5017 34.1332Z" fill="#8FC386"/>
<path d="M18.4813 37.6493C17.7928 37.6493 17.1058 37.6539 16.4173 37.6478C15.7784 37.6417 15.5063 37.36 15.5003 36.7174C15.4988 36.5529 15.4913 36.3869 15.5063 36.224C15.5439 35.793 15.84 35.4915 16.2684 35.4885C17.7567 35.4794 19.2449 35.4839 20.7332 35.487C20.8188 35.487 20.9075 35.5052 20.9887 35.5342C21.4367 35.7017 21.6005 36.1661 21.4938 36.9458C21.4352 37.3691 21.1511 37.6356 20.6956 37.6448C19.9575 37.6585 19.2194 37.6478 18.4813 37.6493Z" fill="#8FC386"/>
<path d="M19.2328 30.6049C18.7578 30.6049 18.2978 30.6049 17.8047 30.6049C17.8047 28.2888 17.8047 25.9772 17.8047 23.6351C18.2647 23.6351 18.7337 23.6351 19.2328 23.6351C19.2328 25.9361 19.2328 28.2492 19.2328 30.6049Z" fill="white"/>
<path d="M20.6064 22.2494C20.6064 21.8672 20.5779 21.5139 20.6139 21.1667C20.6666 20.652 21.098 20.3657 21.7489 20.3703C22.3728 20.3749 22.7772 20.6672 22.8538 21.1682C22.9365 21.7088 22.5607 22.2068 22.003 22.2433C21.558 22.2722 21.1085 22.2494 20.6064 22.2494Z" fill="white"/>
<path d="M16.4624 22.2388C15.9317 22.2388 15.4432 22.286 14.9666 22.2281C14.2781 22.1443 13.9745 21.2855 14.4059 20.7358C14.6735 20.3947 15.3229 20.2546 15.8265 20.4297C16.2143 20.5652 16.4504 20.9215 16.4609 21.4043C16.4669 21.6677 16.4624 21.9311 16.4624 22.2388Z" fill="white"/>
</svg>
