<svg width="36" height="37" viewBox="0 0 36 37" fill="none" xmlns="http://www.w3.org/2000/svg">
<path d="M16.0814 33.7048C16.1709 33.8702 16.2663 34.0417 16.3587 34.2146C16.7448 34.9376 16.554 35.6576 15.8549 36.0749C15.4285 36.3298 14.9962 36.5728 14.558 36.8069C13.838 37.1929 13.115 36.9917 12.7065 36.2792C11.9538 34.9659 11.2069 33.6481 10.472 32.3244C10.3483 32.1008 10.2097 32.0158 9.95029 32.0173C8.2852 32.0292 6.62012 32.0248 4.95652 32.0233C4.04572 32.0218 3.61193 31.5895 3.61044 30.6757C3.60746 29.3222 3.60299 27.9672 3.61491 26.6136C3.6164 26.3662 3.53293 26.2484 3.3138 26.1351C1.16722 25.0365 -0.00594009 23.2805 2.26179e-05 20.8611C0.00598532 18.4551 1.18958 16.7155 3.31976 15.6258C3.57466 15.4962 3.61193 15.3471 3.61193 15.1071C3.60746 11.6666 3.60895 8.22463 3.60895 4.78415C3.60895 3.72577 4.01889 3.31285 5.06534 3.31285C6.56794 3.31285 8.07203 3.30689 9.57464 3.31882C9.82805 3.32031 9.96817 3.26962 9.99799 2.99385C10.0189 2.79857 10.077 2.60478 10.1366 2.41547C10.3677 1.68504 10.8566 1.24678 11.6198 1.12603C11.6318 1.12454 11.6452 1.12007 11.6571 1.12156C12.5053 1.16777 13.2 0.859201 13.8633 0.32852C14.4342 -0.127627 15.117 -0.0784345 15.755 0.289763C15.8832 0.364296 16.0099 0.449265 16.1187 0.54914C16.5316 0.927772 17.0027 1.08131 17.5721 1.09473C18.7974 1.12156 19.3505 1.60007 19.595 2.80602C19.6769 3.21 19.8335 3.35757 20.2494 3.3218C20.7174 3.28155 21.193 3.31584 21.6655 3.31136C22.0456 3.30838 22.3676 3.4336 22.6374 3.7049C23.6377 4.70813 24.6379 5.70986 25.6426 6.70862C25.9348 6.9993 26.0377 7.34513 26.0362 7.75358C26.0272 10.2132 26.0317 12.6728 26.0317 15.1324C26.0317 15.2785 26.0317 15.4246 26.0317 15.5647C30.7273 16.0164 34.0113 20.6077 32.4297 25.4539C32.6756 25.4062 32.8992 25.351 33.1258 25.3212C33.9368 25.2169 34.6732 25.3719 35.2038 26.0442C35.7166 26.6941 35.8016 27.4469 35.4692 28.1848C35.3052 28.5485 35.0115 28.9182 34.6776 29.1284C31.7768 30.95 28.8535 32.7373 25.9348 34.5291C24.9495 35.1328 23.8941 35.2551 22.782 34.9554C20.9261 34.4546 19.0643 33.9746 17.2158 33.4499C16.7671 33.3217 16.4243 33.3768 16.0814 33.7048ZM13.2268 28.6782C13.9796 30.0079 14.7175 31.3107 15.4643 32.63C15.6134 32.548 15.7431 32.4988 15.8474 32.4168C16.2767 32.0829 16.7165 32.068 17.2397 32.2171C19.2074 32.7746 21.1885 33.2844 23.1636 33.8151C23.8956 34.0118 24.5992 33.9433 25.2446 33.5468C28.1857 31.746 31.1238 29.9393 34.0515 28.1147C34.2334 28.0014 34.3884 27.7361 34.4272 27.5185C34.5509 26.8104 34.0605 26.3423 33.3122 26.5227C32.707 26.6688 32.1107 26.9177 31.5651 27.2218C29.9939 28.0954 28.4481 29.0166 26.8963 29.9259C26.142 30.3671 25.337 30.5833 24.4725 30.4432C23.7271 30.3224 22.9892 30.1555 22.2543 29.9811C21.6282 29.832 21.0081 29.6516 20.3895 29.4683C20.0198 29.358 19.8469 29.0509 19.9423 28.7304C20.0422 28.3965 20.3373 28.2385 20.704 28.3249C20.8009 28.3473 20.8948 28.3786 20.9917 28.4039C21.9264 28.6499 22.8581 28.9107 23.7972 29.1373C24.2966 29.2581 24.6752 29.0106 24.7631 28.5679C24.8496 28.1386 24.5783 27.7659 24.1177 27.6273C22.6583 27.192 21.1795 26.8059 19.7515 26.2812C18.7348 25.907 17.8419 26.0039 16.943 26.5257C15.8474 27.1592 14.7518 27.7913 13.6561 28.4233C13.519 28.5008 13.3833 28.5843 13.2268 28.6782ZM19.5965 10.3488C19.9706 11.2149 20.3373 12.0676 20.7055 12.9173C20.8188 13.1796 20.8859 13.4405 20.6921 13.6909C20.4834 13.9608 20.1972 13.9309 19.908 13.8728C19.5309 13.7968 19.1567 13.7044 18.7751 13.6537C18.6648 13.6388 18.4934 13.7118 18.4307 13.8013C18.2012 14.1247 18.0029 14.4706 17.7972 14.8089C17.6466 15.0564 17.4424 15.2979 17.1517 15.204C16.9386 15.1354 16.712 14.9267 16.6091 14.721C16.2931 14.089 16.0352 13.4301 15.755 12.7801C15.5865 12.3911 15.1781 12.1287 14.7667 12.2032C14.6146 12.2316 14.4283 12.3642 14.3582 12.5014C14.0422 13.12 13.7619 13.7565 13.4698 14.3856C13.2998 14.7523 13.1299 15.1205 12.9391 15.5334C13.1329 15.5334 13.267 15.5334 13.4012 15.5334C15.8862 15.5334 18.3711 15.5334 20.8561 15.5334C20.9798 15.5334 21.1095 15.5215 21.2273 15.5528C21.5403 15.6348 21.7177 15.8435 21.6938 16.1774C21.6715 16.4919 21.4836 16.6738 21.1751 16.7185C21.0409 16.7379 20.9023 16.7275 20.7651 16.7275C17.2993 16.7275 13.832 16.7275 10.3662 16.7275C10.238 16.7275 10.1113 16.7275 9.90259 16.7275C10.5585 17.4176 11.0206 18.1197 11.2919 18.9307C11.3724 19.1737 11.4782 19.2527 11.7361 19.2512C14.0601 19.2407 16.3826 19.2407 18.7065 19.2512C18.9659 19.2527 19.1015 19.1617 19.2357 18.9501C19.8528 17.9811 20.6638 17.2074 21.6491 16.6127C22.621 16.0268 23.6779 15.7034 24.8123 15.5811C24.8123 13.0336 24.8123 10.5083 24.8123 7.94439C24.6528 7.94439 24.5187 7.94439 24.386 7.94439C23.7033 7.94439 23.019 7.95184 22.3363 7.94141C21.7535 7.93246 21.4166 7.59259 21.4032 7.00973C21.3927 6.58787 21.4002 6.16452 21.4002 5.74266C21.4002 5.33719 21.4002 4.93173 21.4002 4.52627C21.1796 4.52627 21.0126 4.52627 20.7875 4.52627C21.3659 5.35508 21.193 6.13321 20.7323 6.89048C20.5058 7.26166 20.467 7.64625 20.546 8.0696C20.7174 9.01767 20.5311 9.83158 19.5965 10.3488ZM4.8313 15.1324C5.9985 14.967 7.09564 15.0832 8.14657 15.5409C8.20172 15.5647 8.26433 15.5811 8.32396 15.5796C9.37787 15.5662 10.4318 15.5498 11.4857 15.5319C11.6005 15.5304 11.7138 15.5185 11.8673 15.5096C11.6362 15.1101 11.4231 14.7612 11.2323 14.4005C11.1339 14.2142 11.0176 14.168 10.8134 14.2112C10.4005 14.2991 9.98457 14.3722 9.56718 14.4273C9.00967 14.5004 8.69216 14.0815 8.90085 13.5627C8.96942 13.3898 9.05737 13.2259 9.13638 13.0559C9.53141 12.2047 9.92793 11.3521 10.3304 10.483C10.1948 10.4129 10.0844 10.3608 9.97712 10.3011C9.33166 9.94636 8.92768 9.23829 9.06035 8.53022C9.19899 7.78787 9.117 7.12302 8.71899 6.46862C8.37762 5.90961 8.42085 5.30589 8.73389 4.72751C8.76669 4.66639 8.78756 4.59931 8.81737 4.52627C7.47875 4.52627 6.16695 4.52627 4.8313 4.52627C4.8313 8.06066 4.8313 11.5697 4.8313 15.1324ZM24.951 26.6494C24.7736 26.0919 24.7721 26.0934 24.2861 25.8429C23.7525 25.5687 23.3858 25.1498 23.2173 24.5684C23.1189 24.2285 23.268 23.914 23.5676 23.8067C23.8807 23.6949 24.1788 23.832 24.3308 24.157C24.6797 24.9023 25.5189 25.1572 26.227 24.7324C26.5833 24.5192 26.6235 24.1182 26.2792 23.8812C26.0719 23.7381 25.8111 23.6621 25.5666 23.5861C25.2252 23.4787 24.863 23.428 24.5291 23.2998C23.8046 23.0211 23.3753 22.4949 23.3485 21.6974C23.3246 20.9684 23.7853 20.3066 24.5321 20.0069C24.7393 19.9235 24.8362 19.8295 24.863 19.5955C24.8988 19.2735 25.1164 19.0872 25.4518 19.0946C25.7842 19.1021 25.9989 19.2855 26.0183 19.6164C26.0317 19.831 26.1197 19.9115 26.3045 19.9786C26.8844 20.1888 27.3077 20.5883 27.5045 21.1697C27.5641 21.3441 27.5105 21.6407 27.3897 21.7704C27.269 21.9016 26.9798 21.9717 26.7994 21.9284C26.631 21.8867 26.4804 21.6795 26.3686 21.5125C26.0377 21.0131 25.3221 20.8566 24.8287 21.1965C24.4307 21.4708 24.4456 21.9284 24.872 22.149C25.0344 22.2325 25.2223 22.2668 25.3982 22.3235C25.8454 22.4651 26.3149 22.5575 26.7353 22.7557C27.4031 23.0718 27.7236 23.6546 27.6998 24.388C27.6759 25.1259 27.2421 25.597 26.5907 25.8847C26.4133 25.9637 26.2255 26.0203 26.0541 26.0829C25.981 26.6732 25.8871 26.7731 25.2923 26.8909C25.4056 27.028 25.5428 27.1473 25.6173 27.2978C25.7365 27.5393 25.9139 27.5483 26.139 27.5095C28.6657 27.0921 30.3502 24.7905 29.976 22.2594C29.7032 20.4109 28.2931 18.9083 26.4267 18.479C24.623 18.0631 22.7015 18.8293 21.6372 20.3886C20.5937 21.915 20.5818 23.993 21.6223 25.506C21.7236 25.6536 21.907 25.7878 22.0799 25.84C23.0161 26.1187 23.9597 26.3721 24.951 26.6494ZM5.80024 16.2564C3.23032 16.2624 1.17169 18.3344 1.18064 20.9088C1.18809 23.4489 3.26908 25.5195 5.81366 25.518C8.36719 25.5165 10.4452 23.4221 10.4377 20.8581C10.4288 18.315 8.3493 16.2504 5.80024 16.2564ZM18.2429 24.8218C18.1729 24.1376 18.1729 24.1376 17.5304 24.1376C15.345 24.1376 13.1582 24.1406 10.9729 24.1331C10.7374 24.1316 10.5957 24.2062 10.4482 24.394C9.19899 25.989 7.55179 26.7567 5.52745 26.706C5.29789 26.7001 5.06981 26.6673 4.83876 26.6464C4.83876 28.0581 4.83876 29.428 4.83876 30.8099C6.42782 30.8099 7.98558 30.8099 9.60594 30.8099C9.29886 30.2658 9.0052 29.7664 8.73091 29.2566C8.36719 28.5768 8.56694 27.8449 9.22582 27.4514C9.67302 27.1845 10.1262 26.9267 10.5868 26.6822C11.2531 26.3289 11.9687 26.5287 12.3667 27.1667C12.4576 27.3113 12.5411 27.4618 12.638 27.6288C13.6263 27.0563 14.5937 26.5003 15.5582 25.9398C16.4049 25.4449 17.2442 24.9366 18.2429 24.8218ZM10.235 8.74488C10.2261 9.02811 10.4273 9.23829 10.7538 9.34413C11.5811 9.61394 12.2027 10.1133 12.6275 10.8855C12.9063 11.3923 13.1031 11.4624 13.6397 11.2596C14.4313 10.9585 15.1975 10.9511 15.992 11.2537C16.551 11.4669 16.7314 11.3953 17.034 10.8736C17.4365 10.1804 17.9716 9.68251 18.7393 9.40674C19.4056 9.16823 19.4876 9.046 19.3639 8.34985C19.2178 7.53296 19.3803 6.80998 19.7858 6.10489C20.0794 5.59508 20.0526 5.41173 19.6009 5.04353C18.9301 4.49794 18.55 3.81521 18.4084 2.96851C18.3204 2.43783 18.1624 2.2828 17.6407 2.29621C16.7329 2.32006 15.9741 2.02491 15.2944 1.4346C14.9366 1.12454 14.716 1.12454 14.3657 1.42566C13.6874 2.00851 12.9331 2.32155 12.0223 2.29621C11.4872 2.28131 11.3396 2.4259 11.2442 2.9536C11.0951 3.77795 10.7523 4.46813 10.0859 5.00775C9.58656 5.41322 9.56569 5.58315 9.88768 6.15706C10.2589 6.81893 10.4601 7.49867 10.2872 8.25892C10.2589 8.38712 10.2589 8.52575 10.235 8.74488ZM17.9657 22.9152C18.1147 22.0835 18.2593 21.274 18.4039 20.4616C16.1694 20.4616 13.9155 20.4616 11.7093 20.4616C11.593 21.2904 11.4797 22.0939 11.3649 22.9152C13.5473 22.9152 15.7729 22.9152 17.9657 22.9152ZM13.8484 35.8349C14.2911 35.586 14.707 35.3415 15.1319 35.1179C15.3436 35.0061 15.3868 34.8988 15.2571 34.6826C14.9321 34.14 14.628 33.584 14.3165 33.034C13.3624 31.3495 12.4054 29.6665 11.4618 27.9761C11.3172 27.7182 11.189 27.6795 10.9446 27.8375C10.6539 28.0268 10.3498 28.2012 10.0382 28.3503C9.75799 28.4844 9.73414 28.6201 9.88917 28.8899C11.1473 31.0871 12.389 33.2918 13.6367 35.4951C13.6978 35.6024 13.7649 35.7023 13.8484 35.8349ZM29.8046 26.8089C30.5827 26.4541 30.6453 26.3975 30.9465 25.8176C33.014 21.8211 30.2995 17.0569 25.7932 16.7781C21.5627 16.5158 18.2861 20.5958 19.4623 24.6504C19.5532 24.9664 19.7261 25.0767 20.0362 25.0887C18.9227 21.915 20.4133 19.1692 22.5659 17.9379C24.8958 16.6052 27.8235 17.0509 29.6645 19.0022C31.422 20.8641 31.9959 24.0988 29.8046 26.8089ZM13.0136 12.5297C12.1684 12.4283 11.7629 11.8127 11.3545 11.1285C11.0459 11.7933 10.7612 12.403 10.4944 12.9784C10.9013 12.9784 11.3336 12.8636 11.6377 13.0112C11.9448 13.1603 12.1252 13.5702 12.3786 13.8892C12.5769 13.4644 12.7796 13.0306 13.0136 12.5297ZM18.5097 10.8557C18.0148 11.4847 17.7376 12.2465 16.9237 12.4775C17.0578 12.7742 17.1711 13.0276 17.277 13.2586C17.5453 12.9471 17.7406 12.5431 18.0521 12.409C18.3592 12.2763 18.7825 12.4179 19.1925 12.4403C18.9674 11.9215 18.7512 11.4162 18.5097 10.8557ZM23.8002 6.72799C23.4096 6.3434 22.9892 5.93048 22.6195 5.56676C22.6195 5.88725 22.6195 6.30315 22.6195 6.72799C23.0563 6.72799 23.4692 6.72799 23.8002 6.72799ZM25.8946 29.1105C26.1524 28.9629 26.3716 28.8392 26.5892 28.714C26.3328 28.7721 25.9259 28.5411 25.8946 29.1105Z" fill="black"/>
<path d="M13.2266 28.6783C13.3846 28.5844 13.5187 28.5009 13.6574 28.4219C14.753 27.7883 15.8502 27.1578 16.9443 26.5242C17.8432 26.004 18.7361 25.9056 19.7527 26.2798C21.1808 26.8045 22.6581 27.1906 24.1189 27.6258C24.5796 27.763 24.8509 28.1357 24.7644 28.5665C24.675 29.0092 24.2963 29.2566 23.7984 29.1359C22.8593 28.9093 21.9276 28.6485 20.993 28.4025C20.8976 28.3771 20.8022 28.3458 20.7053 28.3235C20.3386 28.2385 20.0434 28.3965 19.9435 28.7289C19.8467 29.0494 20.0196 29.3565 20.3908 29.4668C21.0094 29.6502 21.628 29.8306 22.2556 29.9796C22.9905 30.154 23.7284 30.321 24.4737 30.4417C25.3398 30.5819 26.1448 30.3657 26.8976 29.9245C28.4493 29.0152 29.9952 28.0939 31.5664 27.2204C32.1119 26.9178 32.7097 26.6673 33.3134 26.5213C34.0617 26.3409 34.5522 26.809 34.4285 27.517C34.3897 27.7347 34.2347 27.9985 34.0528 28.1133C31.1251 29.9364 28.187 31.7431 25.2459 33.5453C24.6004 33.9404 23.8968 34.0089 23.1649 33.8136C21.1898 33.283 19.2086 32.7732 17.241 32.2156C16.7177 32.0681 16.278 32.0815 15.8487 32.4154C15.7443 32.4974 15.6146 32.5466 15.4656 32.6286C14.7157 31.3108 13.9794 30.0079 13.2266 28.6783Z" fill="white"/>
<path d="M19.5957 10.3489C20.5304 9.83163 20.7167 9.01772 20.5438 8.07264C20.4663 7.64928 20.5051 7.26469 20.7302 6.89351C21.1908 6.13476 21.3637 5.35811 20.7853 4.5293C21.0119 4.5293 21.1788 4.5293 21.398 4.5293C21.398 4.93476 21.398 5.34023 21.398 5.74569C21.398 6.16755 21.3905 6.5909 21.401 7.01276C21.4144 7.59562 21.7513 7.93549 22.3341 7.94444C23.0169 7.95487 23.7011 7.94742 24.3838 7.94742C24.518 7.94742 24.6521 7.94742 24.8101 7.94742C24.8101 10.5114 24.8101 13.0366 24.8101 15.5842C23.6757 15.7064 22.6188 16.0299 21.6469 16.6157C20.6616 17.209 19.8507 17.9827 19.2335 18.9531C19.0994 19.1633 18.9637 19.2542 18.7043 19.2542C16.3804 19.2438 14.0579 19.2438 11.7339 19.2542C11.476 19.2557 11.3717 19.1767 11.2897 18.9337C11.0199 18.1228 10.5563 17.4222 9.90039 16.7305C10.1076 16.7305 10.2358 16.7305 10.364 16.7305C13.8298 16.7305 17.2971 16.7305 20.7629 16.7305C20.9001 16.7305 21.0387 16.7409 21.1729 16.7215C21.48 16.6768 21.6678 16.495 21.6916 16.1804C21.7155 15.8465 21.5381 15.6378 21.2251 15.5558C21.1073 15.5245 20.9791 15.5365 20.8539 15.5365C18.3689 15.535 15.884 15.5365 13.399 15.5365C13.2648 15.5365 13.1307 15.5365 12.9369 15.5365C13.1277 15.1235 13.2962 14.7568 13.4676 14.3886C13.7598 13.7581 14.04 13.1216 14.356 12.5044C14.4261 12.3673 14.6124 12.2346 14.7645 12.2063C15.1759 12.1317 15.5843 12.3956 15.7528 12.7832C16.033 13.4316 16.2924 14.092 16.6069 14.724C16.7098 14.9297 16.9349 15.1384 17.1495 15.207C17.4417 15.2994 17.6459 15.0594 17.795 14.812C18.0007 14.4721 18.199 14.1263 18.4285 13.8043C18.4926 13.7148 18.6641 13.6418 18.7729 13.6567C19.153 13.7074 19.5287 13.7983 19.9058 13.8758C20.195 13.934 20.4812 13.9653 20.6899 13.694C20.8822 13.4435 20.8166 13.1827 20.7033 12.9203C20.3351 12.0676 19.9699 11.215 19.5957 10.3489Z" fill="white"/>
<path d="M4.83203 15.1325C4.83203 11.5697 4.83203 8.06068 4.83203 4.53076C6.16768 4.53076 7.47947 4.53076 8.8181 4.53076C8.78829 4.6038 8.76742 4.67089 8.73462 4.732C8.42158 5.31039 8.37984 5.91411 8.71972 6.47311C9.11922 7.12752 9.19971 7.79236 9.06108 8.53472C8.92841 9.2413 9.33387 9.95086 9.97785 10.3056C10.0852 10.3638 10.194 10.4174 10.3311 10.4875C9.92716 11.3566 9.53213 12.2077 9.13711 13.0604C9.0581 13.2289 8.97164 13.3943 8.90158 13.5672C8.69288 14.0875 9.0104 14.5049 9.56791 14.4318C9.9853 14.3767 10.4027 14.3036 10.8141 14.2157C11.0183 14.1725 11.1346 14.2187 11.233 14.405C11.4238 14.7657 11.637 15.1131 11.868 15.5141C11.7145 15.523 11.6012 15.5349 11.4864 15.5364C10.4325 15.5543 9.37859 15.5692 8.32469 15.5841C8.26506 15.5856 8.20245 15.5692 8.1473 15.5454C7.09637 15.0833 6.00072 14.967 4.83203 15.1325Z" fill="white"/>
<path d="M24.9529 26.6493C23.9616 26.3721 23.0195 26.1201 22.0848 25.8384C21.9134 25.7862 21.73 25.6536 21.6272 25.5045C20.5852 23.99 20.5986 21.9134 21.6421 20.387C22.7064 18.8277 24.6279 18.0615 26.4316 18.4774C28.2965 18.9068 29.7081 20.4108 29.9809 22.2578C30.3551 24.789 28.6706 27.0906 26.1439 27.508C25.9188 27.5452 25.7414 27.5378 25.6222 27.2963C25.5476 27.1457 25.4105 27.028 25.2972 26.8893C25.892 26.7716 25.9874 26.6717 26.0589 26.0814C26.2304 26.0188 26.4167 25.9621 26.5956 25.8831C27.247 25.5939 27.6793 25.1229 27.7047 24.3865C27.7285 23.6531 27.408 23.0702 26.7402 22.7542C26.3198 22.5559 25.8503 22.462 25.403 22.3219C25.2271 22.2667 25.0378 22.231 24.8768 22.1475C24.449 21.9269 24.4341 21.4692 24.8336 21.1949C25.327 20.8551 26.0426 21.0131 26.3735 21.511C26.4838 21.6779 26.6343 21.8851 26.8043 21.9269C26.9847 21.9716 27.2724 21.9 27.3946 21.7689C27.5153 21.6392 27.5675 21.3425 27.5094 21.1681C27.3126 20.5867 26.8893 20.1887 26.3094 19.9771C26.1245 19.91 26.0366 19.8295 26.0232 19.6148C26.0038 19.2839 25.7891 19.1005 25.4567 19.0931C25.1213 19.0856 24.9037 19.272 24.8679 19.594C24.8426 19.828 24.7457 19.9219 24.537 20.0054C23.7901 20.305 23.3295 20.9669 23.3534 21.6958C23.3787 22.4933 23.8095 23.0195 24.534 23.2983C24.8664 23.4265 25.2286 23.4772 25.5715 23.5845C25.8175 23.662 26.0768 23.738 26.284 23.8797C26.6284 24.1167 26.5881 24.5177 26.2319 24.7308C25.5238 25.1542 24.6845 24.8993 24.3357 24.1554C24.1837 23.8305 23.8855 23.6933 23.5725 23.8051C23.2729 23.9124 23.1238 24.227 23.2222 24.5669C23.3906 25.1467 23.7573 25.5671 24.291 25.8414C24.774 26.0933 24.774 26.0903 24.9529 26.6493Z" fill="#F5CF6D"/>
<path d="M5.79983 16.2564C8.34889 16.2504 10.4284 18.315 10.4358 20.8581C10.4448 23.4206 8.36528 25.5164 5.81175 25.5179C3.26717 25.5194 1.18618 23.4489 1.17873 20.9088C1.17128 18.3344 3.23139 16.2608 5.79983 16.2564ZM8.46516 18.0735C8.30715 17.908 8.17746 17.6844 7.98218 17.5875C7.68404 17.4385 7.43659 17.6114 7.25324 17.8663C5.97871 19.6417 4.7012 21.4156 3.42816 23.191C3.17475 23.5443 3.215 23.902 3.50866 24.1092C3.80381 24.3164 4.14369 24.2374 4.40306 23.8782C5.67461 22.1162 6.94169 20.3512 8.20578 18.5833C8.2982 18.4566 8.35187 18.3031 8.46516 18.0735ZM2.67388 18.9828C2.67984 19.8265 3.38642 20.5227 4.22269 20.5107C5.06642 20.4973 5.74616 19.7997 5.7402 18.9515C5.73424 18.1033 5.0366 17.4191 4.1899 17.4295C3.33872 17.44 2.66792 18.1272 2.67388 18.9828ZM7.40678 24.3328C8.25646 24.3328 8.94367 23.6471 8.94367 22.7989C8.94367 21.9507 8.25795 21.265 7.40678 21.265C6.55113 21.265 5.87436 21.9433 5.87436 22.7989C5.87585 23.6546 6.55262 24.3328 7.40678 24.3328Z" fill="#8FC386"/>
<path d="M18.2421 24.8218C17.2433 24.9366 16.404 25.4449 15.5573 25.9383C14.5929 26.4988 13.6269 27.0548 12.6371 27.6272C12.5387 27.4603 12.4567 27.3112 12.3658 27.1651C11.9678 26.5271 11.2523 26.3274 10.5859 26.6807C10.1253 26.9251 9.67215 27.183 9.22495 27.4499C8.56607 27.8434 8.36483 28.5753 8.73005 29.2551C9.00284 29.7649 9.2965 30.2643 9.60507 30.8084C7.98471 30.8084 6.42695 30.8084 4.83789 30.8084C4.83789 29.428 4.83789 28.0581 4.83789 26.6449C5.07044 26.6658 5.29851 26.6986 5.52658 26.7045C7.55092 26.7552 9.19812 25.9875 10.4473 24.3925C10.5949 24.2047 10.7365 24.1301 10.972 24.1316C13.1574 24.1406 15.3442 24.1361 17.5295 24.1361C18.172 24.1376 18.172 24.1376 18.2421 24.8218Z" fill="white"/>
<path d="M10.235 8.74496C10.2589 8.52583 10.2603 8.3872 10.2902 8.25453C10.4631 7.49428 10.2618 6.81453 9.89066 6.15267C9.56867 5.57876 9.58805 5.40882 10.0889 5.00336C10.7553 4.46374 11.0981 3.77504 11.2472 2.94921C11.3426 2.42151 11.4902 2.27691 12.0253 2.29182C12.9361 2.31865 13.6889 2.00561 14.3687 1.42126C14.719 1.12015 14.9396 1.12015 15.2973 1.43021C15.9756 2.02052 16.7358 2.31567 17.6437 2.29182C18.1654 2.2784 18.3219 2.43343 18.4114 2.96411C18.553 3.81082 18.9331 4.49355 19.6039 5.03914C20.0556 5.40584 20.0824 5.59069 19.7888 6.1005C19.3833 6.80559 19.2208 7.52857 19.3669 8.34546C19.4906 9.04309 19.4086 9.16384 18.7423 9.40235C17.9746 9.67663 17.438 10.1745 17.037 10.8692C16.7344 11.3909 16.554 11.4625 15.995 11.2493C15.2004 10.9467 14.4342 10.9556 13.6427 11.2553C13.106 11.458 12.9108 11.3879 12.6305 10.8811C12.2057 10.1089 11.5841 9.60955 10.7567 9.33974C10.4273 9.23837 10.2261 9.02819 10.235 8.74496ZM14.8367 10.103C16.949 10.0955 18.6439 8.39614 18.6439 6.28385C18.6424 4.15666 16.9267 2.45579 14.795 2.4707C12.6812 2.48561 10.9923 4.1969 11.0072 6.3077C11.0221 8.42446 12.7229 10.1104 14.8367 10.103Z" fill="#BE202E"/>
<path d="M17.965 22.9152C15.7722 22.9152 13.5466 22.9152 11.3643 22.9152C11.479 22.0938 11.5923 21.2904 11.7086 20.4615C13.9148 20.4615 16.1687 20.4615 18.4032 20.4615C18.2586 21.274 18.114 22.0834 17.965 22.9152Z" fill="white"/>
<path d="M13.8503 35.8349C13.7669 35.7022 13.6983 35.6023 13.6387 35.4965C12.391 33.2933 11.1492 31.0886 9.89111 28.8913C9.73608 28.6215 9.75993 28.4858 10.0402 28.3517C10.3532 28.2026 10.6558 28.0282 10.9465 27.8389C11.1895 27.6809 11.3192 27.7196 11.4638 27.9775C12.4074 29.6679 13.3644 31.3509 14.3184 33.0354C14.63 33.5854 14.9341 34.1415 15.259 34.6841C15.3872 34.8987 15.3455 35.0075 15.1338 35.1193C14.709 35.3415 14.2946 35.5859 13.8503 35.8349ZM11.021 28.5276C10.7557 28.5171 10.5053 28.7497 10.5202 29.015C10.5366 29.2997 10.6931 29.4801 10.9868 29.4891C11.276 29.4965 11.4519 29.34 11.4817 29.0493C11.5115 28.775 11.2923 28.538 11.021 28.5276Z" fill="#7D3939"/>
<path d="M29.8048 26.8089C31.9961 24.0988 31.4207 20.8641 29.6647 19.0022C27.8237 17.0494 24.896 16.6052 22.5661 17.9379C20.4135 19.1692 18.9228 21.915 20.0364 25.0886C19.7263 25.0767 19.5549 24.9649 19.4625 24.6504C18.2863 20.5957 21.5628 16.5158 25.7934 16.7781C30.2997 17.0569 33.0142 21.8211 30.9466 25.8176C30.6455 26.3975 30.5829 26.4541 29.8048 26.8089Z" fill="white"/>
<path d="M13.0134 12.5298C12.7793 13.0292 12.5766 13.4645 12.3784 13.8878C12.1249 13.5703 11.9446 13.1604 11.6375 13.0098C11.3334 12.8622 10.9011 12.977 10.4941 12.977C10.7625 12.4016 11.0457 11.7919 11.3543 11.1271C11.7627 11.8143 12.1682 12.4284 13.0134 12.5298Z" fill="#F5CF6D"/>
<path d="M18.5099 10.8557C18.7514 11.4162 18.9675 11.9201 19.1926 12.4418C18.7827 12.4179 18.3579 12.2778 18.0523 12.4105C17.7407 12.5446 17.5454 12.9486 17.2771 13.2602C17.1728 13.0276 17.058 12.7757 16.9238 12.4791C17.7377 12.2465 18.015 11.4863 18.5099 10.8557Z" fill="#F5CF6D"/>
<path d="M23.7998 6.72789C23.4688 6.72789 23.0559 6.72789 22.6191 6.72789C22.6191 6.30304 22.6191 5.88864 22.6191 5.56665C22.9888 5.93038 23.4092 6.34478 23.7998 6.72789Z" fill="white"/>
<path d="M25.8916 29.1105C25.9229 28.5411 26.3299 28.7721 26.5863 28.714C26.3686 28.8392 26.151 28.9629 25.8916 29.1105Z" fill="white"/>
<path d="M8.46511 18.0735C8.35033 18.3031 8.29816 18.4566 8.20723 18.5848C6.94313 20.3527 5.67457 22.1177 4.40451 23.8797C4.14662 24.2389 3.80526 24.3179 3.51011 24.1107C3.21495 23.9035 3.17619 23.5458 3.42961 23.1925C4.70265 21.4156 5.97866 19.6417 7.25468 17.8678C7.43804 17.6129 7.68549 17.44 7.98363 17.589C8.17741 17.6844 8.3071 17.908 8.46511 18.0735Z" fill="black"/>
<path d="M2.67387 18.9829C2.6679 18.1272 3.33871 17.44 4.19138 17.4296C5.03808 17.4177 5.73572 18.1034 5.74168 18.9516C5.74764 19.7998 5.06789 20.4989 4.22417 20.5108C3.3879 20.5228 2.67983 19.8266 2.67387 18.9829ZM4.68032 18.9739C4.47013 18.8174 4.34193 18.649 4.22417 18.6549C4.10194 18.6624 3.98864 18.8383 3.87237 18.9411C3.98417 19.0634 4.08107 19.2542 4.21374 19.2855C4.3151 19.3108 4.46268 19.129 4.68032 18.9739Z" fill="black"/>
<path d="M7.40449 24.3328C6.55033 24.3328 5.87207 23.6546 5.87207 22.7989C5.87207 21.9433 6.54884 21.265 7.40449 21.265C8.25566 21.265 8.94137 21.9507 8.94137 22.7989C8.94137 23.6471 8.25417 24.3328 7.40449 24.3328ZM7.41194 22.3219C7.25393 22.5366 7.08697 22.6648 7.09442 22.7825C7.10188 22.9048 7.27927 23.0166 7.38213 23.1343C7.50287 23.021 7.69219 22.9241 7.72349 22.79C7.74585 22.6886 7.56697 22.541 7.41194 22.3219Z" fill="black"/>
<path d="M14.8345 10.1028C12.7207 10.1103 11.0199 8.42432 11.005 6.30756C10.9901 4.19676 12.679 2.48546 14.7928 2.47056C16.923 2.45565 18.6402 4.15651 18.6417 6.28371C18.6417 8.396 16.9483 10.0969 14.8345 10.1028Z" fill="#5C0E15"/>
<path d="M14.9378 10.3132C12.767 10.3208 11.0203 8.5884 11.005 6.4133C10.9897 4.24433 12.7241 2.48588 14.8949 2.47056C17.0825 2.45524 18.8461 4.20298 18.8476 6.38879C18.8476 8.55929 17.1085 10.307 14.9378 10.3132Z" fill="#5C0E15"/>
<path d="M14.8885 9.22669C13.3562 9.2321 12.1232 8.00922 12.1124 6.47386C12.1016 4.94282 13.3259 3.70156 14.8582 3.69074C16.4024 3.67993 17.6473 4.91363 17.6483 6.45656C17.6483 7.98867 16.4208 9.22237 14.8885 9.22669Z" fill="#F5CF6D"/>
<g clip-path="url(#clip0_153_3221)">
<path d="M15.9966 5.68182C15.9966 5.87717 15.923 5.98569 15.7767 6.03232C15.6172 6.08296 15.4902 6.01624 15.419 5.87234C15.3075 5.64725 15.1356 5.57088 14.908 5.61188C14.7803 5.63519 14.668 5.69468 14.6556 5.84742C14.6432 6.00177 14.7632 6.05001 14.8747 6.08618C15.1016 6.15934 15.3416 6.19792 15.5576 6.296C15.9656 6.4825 16.1499 6.90857 16.0299 7.32016C15.9439 7.61439 15.7318 7.77436 15.4717 7.89093C15.4035 7.92148 15.3369 7.99865 15.3075 8.071C15.2471 8.21731 15.1581 8.30574 15.004 8.30413C14.8507 8.30252 14.7625 8.21168 14.7052 8.06457C14.6765 7.99142 14.6146 7.91103 14.548 7.87887C14.2631 7.7414 14.0579 7.53561 13.972 7.21646C13.9209 7.02594 13.9952 6.87159 14.1578 6.80969C14.3188 6.74859 14.4714 6.82175 14.5519 6.99941C14.6928 7.30971 15.0381 7.41985 15.3277 7.24701C15.4724 7.16019 15.4887 7.00503 15.3447 6.91178C15.244 6.84667 15.1202 6.81692 15.004 6.77994C14.8569 6.73251 14.7013 6.70759 14.5596 6.6473C14.2321 6.50903 14.0355 6.25419 14.0301 5.88038C14.0246 5.50255 14.2074 5.23083 14.531 5.06684C14.6254 5.01861 14.6835 4.97198 14.723 4.853C14.7563 4.75252 14.8879 4.64881 14.994 4.62148C15.1349 4.5853 15.2657 4.68418 15.2936 4.84014C15.3176 4.97439 15.3927 5.01861 15.4949 5.07086C15.7566 5.20189 15.9323 5.41412 15.9966 5.68182Z" fill="black"/>
</g>
<path d="M11.0206 28.5276C11.292 28.538 11.5111 28.775 11.4828 29.0478C11.4529 29.3385 11.277 29.4965 10.9879 29.4876C10.6942 29.4801 10.5377 29.2982 10.5213 29.0135C10.5049 28.7497 10.7553 28.5171 11.0206 28.5276Z" fill="black"/>
<path d="M4.68243 18.974C4.46479 19.129 4.31573 19.3109 4.21734 19.287C4.08318 19.2557 3.98778 19.0649 3.87598 18.9427C3.99225 18.8398 4.10554 18.6625 4.22778 18.6565C4.34405 18.649 4.47225 18.8175 4.68243 18.974Z" fill="#3A7C2F"/>
<path d="M7.41495 22.3219C7.56998 22.5425 7.74886 22.6901 7.72501 22.79C7.6937 22.9241 7.50439 23.021 7.38364 23.1343C7.28079 23.018 7.10489 22.9062 7.09594 22.7825C7.08849 22.6648 7.25694 22.5366 7.41495 22.3219Z" fill="#3A7C2F"/>
<defs>
<clipPath id="clip0_153_3221">
<rect width="2.10897" height="3.69069" fill="white" transform="translate(13.957 4.61328)"/>
</clipPath>
</defs>
</svg>
