<svg width="38" height="42" viewBox="0 0 38 42" fill="none" xmlns="http://www.w3.org/2000/svg">
<path d="M36.1708 39.602C36.1708 40.0293 36.1708 40.4078 36.1708 40.7862C36.1692 41.4249 36.0431 41.5542 35.4186 41.5542C30.6217 41.5542 25.8264 41.5542 21.0295 41.5542C20.4303 41.5542 20.3089 41.4359 20.3073 40.8446C20.3057 38.506 20.2979 36.1659 20.3152 33.8274C20.3184 33.4553 20.2032 33.3733 19.85 33.3733C13.5551 33.3827 7.26172 33.3812 0.966785 33.3812C0.835903 33.3812 0.703445 33.3843 0.572563 33.3796C0.110535 33.3607 -0.0613461 33.1462 0.0190752 32.6889C0.397528 30.5302 0.818557 28.3777 1.14182 26.2111C1.29793 25.1577 1.65588 24.2746 2.57206 23.7148C3.12712 23.3758 3.72634 23.0762 4.34448 22.8822C6.50639 22.1979 8.68408 21.5671 10.9438 20.8906C10.9438 20.6573 10.9579 20.293 10.9343 19.9319C10.928 19.8452 10.8097 19.7474 10.7198 19.689C9.56871 18.9463 8.74084 17.9419 8.22205 16.6725C8.17316 16.5542 7.99971 16.4217 7.87513 16.4123C6.87696 16.3334 6.1579 15.7263 6.0081 14.8023C5.8646 13.9192 6.38497 13.1008 7.30745 12.7555C7.36737 12.7334 7.42572 12.7034 7.51245 12.6656C6.90692 11.8819 6.51585 11.0225 6.34555 10.0606C5.76525 6.77591 8.35608 3.60952 11.6944 3.55748C13.1924 3.53541 14.6904 3.51964 16.1885 3.55906C18.4135 3.61741 20.0992 4.64711 21.1068 6.62453C22.1097 8.58933 21.9189 10.5336 20.7 12.3723C20.6353 12.4685 20.5675 12.5631 20.4997 12.6609C21.6713 13.1907 22.1381 13.8829 21.9835 14.8433C21.8306 15.7926 21.1431 16.3114 19.8958 16.4249C19.6971 16.827 19.5204 17.2386 19.2965 17.6217C18.8187 18.4402 18.1738 19.1119 17.3727 19.6165C17.1315 19.7679 17.0384 19.9287 17.0447 20.2142C17.0637 20.9931 17.0574 20.9647 17.8143 21.165C19.0568 21.4914 20.2884 21.8588 21.5247 22.2089C21.7139 22.2625 21.9 22.3193 22.0845 22.3729C22.1081 22.3414 22.1318 22.324 22.1334 22.3051C22.187 21.4835 22.2169 21.4552 23.0401 21.4552C27.7707 21.4552 32.5014 21.4552 37.2321 21.4552C37.888 21.4552 38 21.5703 38 22.2389C38 27.7706 38 33.3023 38 38.8356C38 39.5089 37.9022 39.6051 37.2242 39.6067C36.8867 39.602 36.5477 39.602 36.1708 39.602ZM21.2913 24.3692C21.2913 29.8001 21.2913 35.1899 21.2913 40.5828C25.9415 40.5828 30.5602 40.5828 35.1963 40.5828C35.1963 35.1709 35.1963 29.7796 35.1963 24.3692C30.5524 24.3692 25.9352 24.3692 21.2913 24.3692ZM6.929 32.4287C8.32297 32.4287 9.66175 32.435 11.0005 32.4161C11.0904 32.4145 11.2371 32.2348 11.2576 32.1212C11.5051 30.7131 11.7227 29.2986 11.9735 27.892C12.0886 27.2471 12.1517 26.6226 11.77 26.0408C10.9548 26.4019 10.9548 26.4034 10.4502 25.6355C9.83678 24.7036 9.22022 23.7732 8.61785 22.8349C8.498 22.6489 8.39077 22.6 8.17159 22.6694C7.08511 23.0163 5.98287 23.3159 4.90585 23.6896C4.27983 23.9072 3.66484 24.1895 3.09085 24.5238C2.5831 24.8202 2.25195 25.2791 2.1668 25.913C2.04065 26.8481 1.84669 27.7738 1.68427 28.7041C1.47139 29.9278 1.26009 31.153 1.04405 32.4051C2.69978 32.4051 4.31925 32.4051 5.98129 32.4051C5.98129 32.2395 5.98129 32.0976 5.98129 31.9557C5.98129 30.9843 5.98444 30.0114 5.97971 29.04C5.97813 28.7293 6.11532 28.5322 6.42597 28.496C6.70193 28.4629 6.9085 28.6947 6.92742 29.0305C6.93531 29.1614 6.929 29.2939 6.929 29.4248C6.929 30.4056 6.929 31.3896 6.929 32.4287ZM8.76292 11.7557C8.76292 12.7413 8.73927 13.6716 8.76765 14.6004C8.84649 17.1487 10.8066 19.3279 13.2634 19.626C15.9204 19.9492 18.322 18.3881 19.0332 15.8572C19.4101 14.5184 19.1625 13.1481 19.2461 11.721C17.1346 11.9055 15.1872 11.751 14.0061 9.66635C13.0489 11.2306 11.6691 11.8598 9.92035 11.7589C9.55452 11.7368 9.1871 11.7557 8.76292 11.7557ZM20.2111 11.3473C20.2758 11.2306 20.3089 11.1754 20.3373 11.1171C21.7691 8.09104 19.5614 4.54304 16.2106 4.50046C14.7393 4.48154 13.2665 4.46893 11.7969 4.5115C11.256 4.52727 10.6962 4.64238 10.1868 4.82846C7.62441 5.76355 6.42124 9.00248 7.76159 11.2748C8.00601 10.8269 8.03913 10.808 8.55792 10.8064C9.2281 10.8049 9.89828 10.8159 10.5685 10.8017C11.8789 10.7749 13.041 9.8808 13.3927 8.62087C13.4731 8.3323 13.4479 8.01061 13.5504 7.73466C13.6134 7.56278 13.8058 7.36882 13.9777 7.32309C14.2395 7.25371 14.4129 7.44924 14.4634 7.71889C14.4807 7.80877 14.4839 7.90181 14.4902 7.99327C14.6021 9.55912 15.881 10.7765 17.4563 10.8033C18.1391 10.8159 18.8235 10.8159 19.5063 10.8033C19.8658 10.7954 20.1244 10.9011 20.2111 11.3473ZM16.1317 25.9666C16.0576 26.4492 15.892 26.8828 15.9472 27.2849C16.1696 28.8965 16.4644 30.4986 16.7199 32.1055C16.7625 32.372 16.8807 32.4382 17.1346 32.435C18.0808 32.4208 19.0269 32.4303 19.973 32.4271C20.0724 32.4271 20.1733 32.4066 20.3089 32.3909C20.3089 32.1875 20.3089 32.0061 20.3089 31.8232C20.3089 29.2339 20.3073 26.6463 20.3105 24.057C20.3105 23.5319 20.4429 23.4058 20.9617 23.3995C21.2834 23.3963 21.6051 23.3995 21.9268 23.3995C21.2708 23.1172 20.5943 22.9264 19.932 22.693C19.6403 22.5889 19.4905 22.6489 19.3281 22.9043C18.68 23.923 18.0114 24.9306 17.3459 25.9383C17.0857 26.3341 16.8997 26.3766 16.4897 26.1606C16.4092 26.1196 16.3304 26.0754 16.1317 25.9666ZM37.0334 22.4281C32.3721 22.4281 27.7439 22.4281 23.1268 22.4281C23.1268 22.764 23.1268 23.0715 23.1268 23.401C23.316 23.401 23.4721 23.401 23.6282 23.401C27.5437 23.401 31.4575 23.401 35.3729 23.401C36.0667 23.401 36.1724 23.5067 36.1724 24.1958C36.1724 28.846 36.1724 33.4963 36.1724 38.1465C36.1724 38.3011 36.1724 38.454 36.1724 38.6275C36.483 38.6275 36.7495 38.6275 37.0349 38.6275C37.0334 33.2219 37.0334 27.84 37.0334 22.4281ZM12.1816 32.4066C13.421 32.4066 14.5958 32.4066 15.8148 32.4066C15.5498 30.7919 15.2928 29.204 15.0232 27.6192C15.009 27.5388 14.8781 27.4205 14.7992 27.4174C14.2126 27.4 13.6245 27.4079 13.0095 27.4079C12.7304 29.0826 12.4591 30.721 12.1816 32.4066ZM13.9966 23.4972C14.5738 22.8807 15.1067 22.2452 15.7107 21.6838C16.1569 21.2691 16.1364 20.8134 16.0623 20.2741C14.6684 20.744 13.2933 20.7314 11.8095 20.2347C11.9025 20.6888 11.8662 21.1303 12.0681 21.3858C12.6452 22.1143 13.317 22.7671 13.9966 23.4972ZM18.598 22.3019C17.994 22.179 17.4453 22.0638 16.8949 21.9598C16.8303 21.9471 16.7294 21.974 16.6868 22.0197C16.0481 22.693 15.4174 23.3742 14.7582 24.0807C15.4332 24.4639 16.0639 24.8218 16.7089 25.1861C17.3443 24.2147 17.9514 23.2875 18.598 22.3019ZM13.2397 24.0807C12.5869 23.379 11.964 22.7056 11.3348 22.0386C11.2875 21.9897 11.1945 21.9424 11.133 21.955C10.5732 22.0607 10.015 22.179 9.40156 22.3051C10.0591 23.3064 10.6725 24.2415 11.2938 25.1892C11.9545 24.8124 12.5695 24.4623 13.2397 24.0807ZM14.014 26.4555C14.2757 26.4555 14.5375 26.4634 14.7977 26.4507C14.8891 26.446 15.0358 26.4129 15.061 26.353C15.1651 26.1022 15.296 25.8326 15.2865 25.5756C15.2818 25.4494 14.9885 25.3359 14.8261 25.216C14.815 25.2082 14.8024 25.205 14.7929 25.1955C14.2678 24.743 13.7711 24.7714 13.2034 25.1798C12.5758 25.6308 12.6263 25.3706 12.8376 26.1306C12.9133 26.4003 13.0442 26.4839 13.3075 26.4618C13.5425 26.4381 13.779 26.4555 14.014 26.4555ZM20.1591 15.4188C20.6952 15.3983 21.0532 15.0451 21.05 14.5247C21.0469 14.028 20.6889 13.6669 20.1591 13.6732C20.1591 14.2519 20.1591 14.8354 20.1591 15.4188ZM7.83571 13.6622C7.29326 13.6874 6.95265 14.0328 6.94161 14.5121C6.929 15.0199 7.3043 15.3952 7.83571 15.4204C7.83571 14.8464 7.83571 14.2724 7.83571 13.6622Z" fill="black"/>
<path d="M21.292 24.3693C25.9344 24.3693 30.5531 24.3693 35.197 24.3693C35.197 29.7796 35.197 35.1694 35.197 40.5828C30.5609 40.5828 25.9438 40.5828 21.292 40.5828C21.292 35.1899 21.292 29.8001 21.292 24.3693ZM28.2413 34.5386C29.5675 34.5386 30.8921 34.5386 32.2182 34.5386C32.428 34.5386 32.6393 34.5481 32.8474 34.5339C33.1234 34.515 33.2842 34.3557 33.2921 34.0797C33.3 33.8022 33.136 33.6429 32.8695 33.5988C32.767 33.5814 32.6598 33.5909 32.5557 33.5909C29.6684 33.5909 26.7811 33.5909 23.8923 33.5925C23.7614 33.5925 23.5895 33.5609 23.5107 33.6287C23.3672 33.7502 23.1874 33.9426 23.1953 34.0955C23.2032 34.2469 23.4098 34.4093 23.5611 34.5228C23.6384 34.5796 23.7898 34.5402 23.9081 34.5402C25.3541 34.5386 26.7985 34.5386 28.2413 34.5386ZM28.2145 39.4964C29.331 39.4964 30.4458 39.4964 31.5623 39.4964C31.9817 39.4964 32.4027 39.5058 32.8222 39.49C33.1108 39.479 33.2953 39.3166 33.2937 39.017C33.2921 38.7205 33.1139 38.566 32.8206 38.5486C32.7418 38.5439 32.6629 38.5455 32.5841 38.5455C29.6826 38.5455 26.7827 38.5455 23.8812 38.5455C23.7756 38.5455 23.64 38.5108 23.5722 38.5613C23.4208 38.6764 23.1953 38.8388 23.1985 38.9776C23.2016 39.1463 23.3908 39.3308 23.5391 39.468C23.6053 39.5295 23.7661 39.4932 23.8828 39.4932C25.3272 39.4963 26.7717 39.4964 28.2145 39.4964ZM28.2177 37.0143C29.6605 37.0143 31.105 37.0143 32.5478 37.0143C33.0824 37.0143 33.3016 36.874 33.2984 36.5397C33.2953 36.2085 33.0713 36.0666 32.5415 36.065C32.5289 36.065 32.5147 36.065 32.5021 36.065C29.6542 36.065 26.8064 36.065 23.9585 36.065C23.8402 36.065 23.722 36.0619 23.6053 36.0792C23.3372 36.1155 23.1701 36.2669 23.1716 36.5476C23.1732 36.8283 23.3388 36.9781 23.6116 37.0064C23.7283 37.0191 23.8481 37.0159 23.9648 37.0159C25.384 37.0143 26.8016 37.0143 28.2177 37.0143Z" fill="white"/>
<path d="M6.92889 32.4286C6.92889 31.3895 6.92889 30.4071 6.92889 29.4247C6.92889 29.2938 6.93362 29.1613 6.92731 29.0305C6.90839 28.6946 6.70182 28.4628 6.42586 28.4959C6.11522 28.5322 5.97803 28.7293 5.9796 29.0399C5.98276 30.0113 5.98118 30.9842 5.98118 31.9556C5.98118 32.0975 5.98118 32.2394 5.98118 32.405C4.32072 32.405 2.69968 32.405 1.04395 32.405C1.25998 31.1529 1.47128 29.9277 1.68416 28.704C1.84658 27.7737 2.04054 26.848 2.16669 25.9129C2.25184 25.279 2.58299 24.8202 3.09075 24.5237C3.66316 24.1894 4.27814 23.9071 4.90574 23.6895C5.98276 23.3158 7.085 23.0162 8.17148 22.6693C8.39067 22.5999 8.49789 22.6488 8.61774 22.8349C9.22169 23.7731 9.83825 24.7035 10.4501 25.6354C10.9531 26.4018 10.9531 26.4018 11.7699 26.0407C12.1531 26.6241 12.09 27.247 11.9734 27.8919C11.7211 29.3001 11.505 30.713 11.2574 32.1212C11.2369 32.2347 11.0903 32.4145 11.0004 32.416C9.66164 32.4334 8.32286 32.4286 6.92889 32.4286Z" fill="white"/>
<path d="M8.76354 11.7557C9.18773 11.7557 9.55514 11.7384 9.9194 11.7589C11.6697 11.8598 13.0479 11.2322 14.0051 9.66632C15.1862 11.751 17.1337 11.9039 19.2451 11.721C19.1615 13.1481 19.4091 14.5184 19.0322 15.8572C18.3211 18.3881 15.921 19.9476 13.2624 19.6259C10.8056 19.3279 8.84554 17.1487 8.7667 14.6004C8.73989 13.6716 8.76354 12.7397 8.76354 11.7557Z" fill="white"/>
<path d="M20.211 11.3472C20.1242 10.901 19.8672 10.7969 19.5061 10.8032C18.8233 10.8158 18.1389 10.8158 17.4561 10.8032C15.8808 10.7748 14.602 9.55747 14.49 7.9932C14.4837 7.90174 14.4805 7.80871 14.4632 7.71882C14.4127 7.44918 14.2377 7.25364 13.9775 7.32302C13.8056 7.36875 13.6133 7.56271 13.5502 7.73459C13.4477 8.01055 13.4729 8.33223 13.3925 8.6208C13.0408 9.88074 11.8787 10.7748 10.5683 10.8016C9.89811 10.8158 9.22793 10.8048 8.55775 10.8064C8.03895 10.8079 8.00584 10.8269 7.76142 11.2747C6.42107 9.00241 7.62581 5.76348 10.1867 4.82839C10.696 4.64232 11.2558 4.5272 11.7967 4.51143C13.2663 4.46886 14.7392 4.48147 16.2104 4.5004C19.5613 4.54297 21.7689 8.09097 20.3371 11.117C20.3087 11.1738 20.274 11.229 20.211 11.3472Z" fill="#3A3838"/>
<path d="M16.1311 25.9666C16.3298 26.0754 16.4086 26.1196 16.4891 26.1621C16.899 26.3782 17.0835 26.334 17.3453 25.9398C18.0107 24.9322 18.6793 23.9245 19.3275 22.9059C19.4899 22.6504 19.6397 22.5905 19.9314 22.6946C20.5921 22.9295 21.2686 23.1203 21.9262 23.401C21.6045 23.401 21.2828 23.3979 20.9611 23.401C20.4423 23.4057 20.3099 23.5335 20.3099 24.0586C20.3067 26.6478 20.3083 29.2355 20.3083 31.8247C20.3083 32.0061 20.3083 32.1874 20.3083 32.3924C20.1727 32.4082 20.0733 32.4287 19.9724 32.4287C19.0263 32.4318 18.0801 32.4224 17.134 32.4366C16.8785 32.4397 16.7603 32.3735 16.7193 32.107C16.4638 30.5002 16.1689 28.898 15.9466 27.2865C15.8914 26.8812 16.057 26.4491 16.1311 25.9666Z" fill="white"/>
<path d="M37.0331 22.4281C37.0331 27.84 37.0331 33.2219 37.0331 38.6275C36.7493 38.6275 36.4812 38.6275 36.1706 38.6275C36.1706 38.454 36.1706 38.2995 36.1706 38.1465C36.1706 33.4963 36.1706 28.846 36.1706 24.1958C36.1706 23.5067 36.0649 23.401 35.3711 23.401C31.4557 23.401 27.5419 23.401 23.6265 23.401C23.4703 23.401 23.3142 23.401 23.125 23.401C23.125 23.0715 23.125 22.7656 23.125 22.4281C27.7437 22.4281 32.3719 22.4281 37.0331 22.4281Z" fill="white"/>
<path d="M12.1816 32.4066C12.4607 30.721 12.7304 29.0826 13.0079 27.4079C13.6245 27.4079 14.2111 27.4 14.7977 27.4174C14.8765 27.419 15.0074 27.5388 15.0216 27.6192C15.2928 29.204 15.5499 30.7903 15.8132 32.4066C14.5959 32.4066 13.4211 32.4066 12.1816 32.4066Z" fill="#BE202E"/>
<path d="M13.9967 23.4972C13.3171 22.7671 12.6453 22.1143 12.0682 21.3857C11.8663 21.1303 11.9026 20.6888 11.8096 20.2346C13.2934 20.7329 14.6685 20.7455 16.0624 20.274C16.1365 20.8133 16.1571 21.2691 15.7108 21.6838C15.1068 22.2451 14.5739 22.8806 13.9967 23.4972Z" fill="white"/>
<path d="M18.5972 22.3019C17.9506 23.2875 17.3435 24.2147 16.7065 25.186C16.0615 24.8202 15.4308 24.4622 14.7559 24.0806C15.415 23.3742 16.0458 22.693 16.6844 22.0196C16.7285 21.9739 16.8279 21.9471 16.8925 21.9597C17.4445 22.0638 17.9932 22.1789 18.5972 22.3019Z" fill="white"/>
<path d="M13.2395 24.0806C12.5693 24.4622 11.9543 24.8123 11.2936 25.1892C10.6723 24.243 10.0574 23.3064 9.40137 22.305C10.0132 22.1789 10.5714 22.0606 11.1328 21.955C11.1943 21.9439 11.2873 21.9897 11.3346 22.0385C11.9622 22.7056 12.5851 23.3773 13.2395 24.0806Z" fill="white"/>
<path d="M14.0149 26.4554C13.78 26.4554 13.5434 26.4397 13.3085 26.4602C13.0451 26.4838 12.9127 26.4002 12.8386 26.129C12.6273 25.369 12.5768 25.6291 13.2044 25.1782C13.7721 24.7697 14.2688 24.7414 14.7939 25.1939C14.8034 25.2018 14.8176 25.2065 14.827 25.2144C14.9894 25.3343 15.2827 25.4478 15.2875 25.574C15.2969 25.831 15.1661 26.1006 15.062 26.3514C15.0368 26.4113 14.8917 26.4444 14.7986 26.4491C14.5385 26.4633 14.2767 26.4554 14.0149 26.4554Z" fill="#BE202E"/>
<path d="M20.1602 15.4187C20.1602 14.8353 20.1602 14.2534 20.1602 13.6716C20.69 13.6668 21.0479 14.0264 21.0511 14.5231C21.0543 15.045 20.6963 15.3967 20.1602 15.4187Z" fill="white"/>
<path d="M7.83679 13.6622C7.83679 14.274 7.83679 14.8464 7.83679 15.4204C7.30538 15.3936 6.93008 15.0199 6.94269 14.5121C6.95373 14.0327 7.29434 13.6874 7.83679 13.6622Z" fill="white"/>
<path d="M28.24 34.5385C26.7956 34.5385 25.3527 34.5385 23.9083 34.5385C23.7901 34.5385 23.6387 34.578 23.5614 34.5212C23.4084 34.4092 23.2034 34.2452 23.1956 34.0938C23.1877 33.9409 23.3674 33.7485 23.5109 33.6271C23.5914 33.5593 23.7632 33.5908 23.8925 33.5908C26.7798 33.5892 29.6671 33.5892 32.556 33.5892C32.6616 33.5892 32.7673 33.5798 32.8698 33.5971C33.1363 33.6413 33.3003 33.8005 33.2924 34.0781C33.2845 34.354 33.1237 34.5149 32.8477 34.5322C32.638 34.5464 32.4282 34.537 32.2185 34.537C30.8924 34.5385 29.5662 34.5385 28.24 34.5385Z" fill="black"/>
<path d="M28.2134 39.4963C26.7689 39.4963 25.3261 39.4963 23.8817 39.4963C23.7634 39.4963 23.6041 39.5326 23.5379 39.4711C23.3897 39.3355 23.202 39.151 23.1973 38.9807C23.1941 38.8419 23.4196 38.6795 23.571 38.5644C23.6388 38.5123 23.7744 38.5486 23.8801 38.5486C26.7816 38.5486 29.6815 38.5486 32.5829 38.5486C32.6618 38.5486 32.7406 38.547 32.8195 38.5518C33.1143 38.5691 33.291 38.7236 33.2925 39.0201C33.2941 39.3181 33.1096 39.4821 32.821 39.4932C32.4016 39.5089 31.9806 39.4995 31.5611 39.4995C30.4463 39.4963 29.3298 39.4963 28.2134 39.4963Z" fill="black"/>
<path d="M28.2163 37.0143C26.7987 37.0143 25.3811 37.0143 23.9651 37.0143C23.8468 37.0143 23.7285 37.0174 23.6118 37.0048C23.339 36.9764 23.1735 36.8266 23.1719 36.5459C23.1703 36.2653 23.3359 36.1139 23.6055 36.0776C23.7222 36.0618 23.8405 36.065 23.9588 36.0634C26.8066 36.0634 29.6545 36.0634 32.5023 36.0634C32.5149 36.0634 32.5291 36.0634 32.5418 36.0634C33.0732 36.0666 33.2971 36.2069 33.2987 36.5381C33.3018 36.8739 33.0826 37.0127 32.5481 37.0127C31.1036 37.0159 29.6608 37.0143 28.2163 37.0143Z" fill="black"/>
<path d="M27.7127 28.8981C27.5392 28.6741 27.4115 28.4723 27.2475 28.3051C27.0441 28.0954 26.7981 28.0844 26.5852 28.2941C26.3739 28.5023 26.3834 28.7482 26.5805 28.9596C26.8564 29.256 27.145 29.5446 27.443 29.8205C27.6575 30.0192 27.9003 30.0129 28.1101 29.8063C28.7077 29.2182 29.3101 28.6331 29.8778 28.0166C29.9834 27.9015 30.0039 27.6129 29.9377 27.4568C29.8036 27.143 29.4473 27.143 29.1524 27.4331C28.6982 27.8825 28.2551 28.3446 27.7127 28.8981Z" fill="white"/>
<path d="M27.4183 29.6943C28.4531 28.6399 29.299 27.7565 30.1686 26.9008C30.7292 26.348 31.4099 26.3499 31.6657 26.946C31.7916 27.2411 31.7542 27.7939 31.5516 28.0143C30.4695 29.1907 29.3167 30.3062 28.1777 31.4295C27.7783 31.8229 27.314 31.8367 26.9028 31.457C26.3343 30.9298 25.7854 30.3809 25.2582 29.8143C24.8824 29.411 24.8647 28.9408 25.2661 28.5435C25.6713 28.1441 26.1395 28.1657 26.5291 28.5651C26.8419 28.8818 27.0878 29.2674 27.4183 29.6943Z" fill="#258814"/>
<path d="M36.5284 0C37.413 0.332723 37.6054 0.614986 37.6054 1.59108C37.6054 4.31279 37.607 7.03292 37.6038 9.75463C37.6023 10.6787 37.1418 11.136 36.2209 11.136C34.0259 11.1376 31.8308 11.1297 29.6358 11.147C29.4087 11.1486 29.1438 11.2416 28.9609 11.3772C27.9817 12.1073 27.0261 12.869 26.0531 13.6085C25.5643 13.9807 25.0029 13.9791 24.5567 13.6369C24.1277 13.3089 23.9969 12.7413 24.2239 12.1752C24.2823 12.0285 24.3517 11.8866 24.4132 11.7415C24.6071 11.2889 24.5078 11.1013 24.0221 11.1439C23.1532 11.218 22.5477 10.6219 22.5587 9.66159C22.5903 6.96669 22.5698 4.27179 22.5698 1.57846C22.5698 0.613409 22.7685 0.326416 23.6626 0C27.9501 0 32.2393 0 36.5284 0ZM24.0347 0.933518C23.5143 0.933518 23.4796 0.968209 23.4796 1.49962C23.4781 4.22291 23.4781 6.94619 23.4796 9.6679C23.4796 10.182 23.5396 10.2813 24.041 10.2308C25.0376 10.1315 25.7693 11.1155 25.2395 12.0995C25.1653 12.2382 25.0881 12.3833 25.0565 12.5331C25.0329 12.6466 25.0392 12.8374 25.1054 12.88C25.2 12.9415 25.3877 12.9478 25.4902 12.8926C25.6968 12.7823 25.8734 12.6167 26.0594 12.4716C26.8605 11.8519 27.6679 11.2401 28.4579 10.6077C28.7843 10.3475 29.1328 10.2372 29.5475 10.2387C31.7315 10.2482 33.9139 10.2435 36.0979 10.2435C36.6593 10.2435 36.694 10.2072 36.694 9.63321C36.694 6.92411 36.694 4.21344 36.694 1.50435C36.694 0.95244 36.6719 0.930364 36.1074 0.930364C34.0953 0.930364 32.0816 0.930364 30.0695 0.930364C28.0589 0.933518 26.0468 0.931941 24.0347 0.933518Z" fill="black"/>
<path d="M36.1084 0.93348C36.6729 0.93348 36.695 0.955556 36.695 1.50747C36.695 4.21656 36.695 6.92723 36.695 9.63632C36.695 10.2103 36.6603 10.2466 36.0989 10.2466C33.9149 10.2466 31.7325 10.2529 29.5485 10.2418C29.1338 10.2403 28.7853 10.3491 28.4589 10.6108C27.6673 11.2432 26.8615 11.855 26.0605 12.4747C25.8728 12.6198 25.6962 12.7854 25.4912 12.8958C25.3887 12.9509 25.2011 12.9446 25.1064 12.8831C25.0402 12.839 25.0339 12.6482 25.0576 12.5362C25.0891 12.3848 25.1664 12.2398 25.2405 12.1026C25.7687 11.1186 25.0371 10.1346 24.042 10.234C23.5406 10.2844 23.4823 10.1835 23.4807 9.67101C23.4791 6.94773 23.4791 4.22444 23.4807 1.50274C23.4807 0.971325 23.5154 0.936634 24.0357 0.936634C26.0478 0.935057 28.0615 0.936634 30.0736 0.936634C32.0826 0.93348 34.0947 0.931903 36.1084 0.93348ZM25.1601 7.11173C25.0292 7.11173 24.862 7.08177 24.7769 7.14799C24.6381 7.2568 24.4678 7.43656 24.4725 7.58164C24.4773 7.72356 24.6633 7.88913 24.8084 7.9869C24.9015 8.04997 25.0639 8.01686 25.1948 8.01686C28.4573 8.01844 31.7183 8.01844 34.9809 8.01844C35.0203 8.01844 35.0598 8.01844 35.0992 8.01844C35.5344 8.01055 35.7599 7.84971 35.7315 7.54852C35.6952 7.17007 35.4224 7.11015 35.1039 7.11015C33.434 7.1133 31.7625 7.11173 30.0926 7.11173C28.4495 7.11015 26.8048 7.11015 25.1601 7.11173ZM34.9857 4.04468C35.1039 4.04468 35.2537 4.0841 35.3341 4.02891C35.4887 3.92168 35.7189 3.74507 35.7047 3.62207C35.6874 3.4565 35.4792 3.29723 35.3247 3.16951C35.2616 3.11747 35.1213 3.15689 35.0156 3.15689C31.7278 3.15689 28.4416 3.15689 25.1538 3.15689C25.0481 3.15689 24.9409 3.14585 24.8384 3.16478C24.5845 3.20893 24.4 3.37608 24.4647 3.62207C24.5072 3.78292 24.698 3.92484 24.8526 4.02891C24.9346 4.0841 25.0828 4.0431 25.2011 4.0431C26.8442 4.0431 28.4889 4.0431 30.132 4.0431C31.7515 4.04468 33.3693 4.04626 34.9857 4.04468ZM34.9415 6.02525C35.0724 6.02525 35.2332 6.06625 35.3294 6.00475C35.4871 5.90541 35.7173 5.72564 35.7047 5.60107C35.6889 5.43549 35.4839 5.27307 35.3294 5.14377C35.2663 5.09173 35.126 5.12958 35.0203 5.12958C31.7325 5.12958 28.4447 5.12958 25.1585 5.12958C25.0528 5.12958 24.9456 5.12012 24.8431 5.13746C24.5908 5.18162 24.4016 5.34561 24.4647 5.59318C24.5057 5.7556 24.6949 5.8991 24.8478 6.00475C24.9298 6.06152 25.0781 6.0221 25.1963 6.0221C26.8268 6.0221 28.4573 6.0221 30.0878 6.0221C31.7073 6.02525 33.3252 6.02525 34.9415 6.02525Z" fill="#F5CF6D"/>
<path d="M30.0947 7.11022C28.45 7.11022 26.8069 7.11022 25.1622 7.1118C25.0313 7.1118 24.8642 7.08184 24.779 7.14807C24.6403 7.25688 24.47 7.43664 24.4747 7.58171C24.4794 7.72363 24.6655 7.88921 24.8106 7.98697C24.9036 8.05005 25.066 8.01694 25.1969 8.01694C28.4595 8.01851 31.7205 8.01851 34.9831 8.01851C35.0225 8.01851 35.0619 8.01851 35.1014 8.01851C35.5366 8.01063 35.7621 7.84978 35.7337 7.5486C35.6974 7.17015 35.4246 7.11022 35.1061 7.11022C33.4362 7.1118 31.7662 7.11022 30.0947 7.11022Z" fill="black"/>
<path d="M30.1341 4.04473C31.752 4.04473 33.3683 4.04473 34.9862 4.04473C35.1044 4.04473 35.2542 4.08416 35.3346 4.02896C35.4892 3.92174 35.7194 3.74512 35.7052 3.62213C35.6879 3.45655 35.4797 3.29729 35.3252 3.16956C35.2621 3.11752 35.1218 3.15695 35.0161 3.15695C31.7283 3.15695 28.4421 3.15695 25.1543 3.15695C25.0486 3.15695 24.9414 3.14591 24.8389 3.16483C24.585 3.20898 24.4005 3.37613 24.4652 3.62213C24.5077 3.78297 24.6985 3.92489 24.8531 4.02896C24.9351 4.08416 25.0833 4.04316 25.2016 4.04316C26.8478 4.04631 28.4909 4.04473 30.1341 4.04473Z" fill="black"/>
<path d="M30.0911 6.0253C31.709 6.0253 33.3253 6.0253 34.9432 6.0253C35.0741 6.0253 35.2349 6.06629 35.3311 6.0048C35.4888 5.90545 35.719 5.72569 35.7064 5.60111C35.6906 5.43554 35.4856 5.27312 35.3311 5.14381C35.268 5.09178 35.1277 5.12962 35.022 5.12962C31.7342 5.12962 28.4464 5.12962 25.1602 5.12962C25.0545 5.12962 24.9473 5.12016 24.8448 5.13751C24.5925 5.18166 24.4033 5.34566 24.4663 5.59323C24.5073 5.75565 24.6966 5.89914 24.8495 6.0048C24.9315 6.06156 25.0797 6.02214 25.198 6.02214C26.8301 6.0253 28.4606 6.0253 30.0911 6.0253Z" fill="black"/>
</svg>
