<svg width="38" height="38" viewBox="0 0 38 38" fill="none" xmlns="http://www.w3.org/2000/svg">
<path d="M10.0984 33.4343C10.2972 33.7896 10.4899 34.1189 10.6688 34.4574C11.1078 35.289 10.8661 36.2019 10.0632 36.6812C9.41776 37.0672 8.76469 37.4378 8.10092 37.7901C7.28573 38.222 6.37113 37.9739 5.91536 37.1713C4.00664 33.8156 2.10709 30.4523 0.218242 27.0843C-0.23141 26.2802 0.0347101 25.3659 0.823895 24.8941C1.46931 24.5082 2.12238 24.1375 2.78462 23.7822C3.59063 23.3488 4.49758 23.6076 4.97782 24.3887C5.143 24.6583 5.29594 24.937 5.47183 25.2449C5.62018 25.1637 5.75171 25.0948 5.88019 25.0213C7.75985 23.9476 9.62423 22.8449 11.5253 21.8111C12.8743 21.0774 14.2844 20.9993 15.7679 21.5231C17.6966 22.2047 19.6634 22.7821 21.6165 23.3963C21.8704 23.4759 22.1426 23.4943 22.3965 23.5739C23.8816 24.0395 24.6233 25.6416 24.0253 27.0767C23.9871 27.1701 23.9443 27.262 23.9473 27.4381C24.3174 27.262 24.7013 27.1119 25.0546 26.9067C27.2815 25.6186 29.5007 24.3183 31.7245 23.0225C32.688 22.462 33.6867 22.0025 34.8139 21.8677C36.1613 21.7084 37.3665 22.3946 37.781 23.5785C38.2322 24.8696 37.7611 26.2174 36.6003 26.9342C32.5458 29.4353 28.4851 31.9272 24.4383 34.439C23.0343 35.3105 21.5645 35.528 19.9739 35.093C17.2117 34.3379 14.4435 33.6104 11.6813 32.8584C11.3877 32.7788 11.146 32.7864 10.8937 32.961C10.6444 33.1326 10.3736 33.2735 10.0984 33.4343ZM9.48811 32.3591C9.8827 32.1309 10.2452 31.944 10.5832 31.7204C10.9166 31.5014 11.2378 31.4631 11.6278 31.5703C14.5108 32.3591 17.3998 33.1249 20.2843 33.9075C21.4911 34.2353 22.6244 34.1128 23.6965 33.4511C27.8137 30.9072 31.9371 28.3739 36.0451 25.8162C36.3005 25.6569 36.5299 25.3444 36.6248 25.0565C37.0056 23.894 36.1919 22.9536 34.9669 23.0899C33.9544 23.2033 33.075 23.6582 32.2124 24.1605C29.935 25.4869 27.6593 26.8178 25.3773 28.135C24.3786 28.7109 23.2851 28.8855 22.1655 28.6772C20.9298 28.4459 19.7078 28.1365 18.4842 27.8425C17.8418 27.6878 17.2056 27.5009 16.574 27.3079C16.213 27.1977 16.0601 26.9036 16.1411 26.5666C16.2176 26.245 16.5143 26.0673 16.8814 26.1317C17.019 26.1562 17.1521 26.2037 17.2867 26.2389C18.6264 26.5942 19.9632 26.9649 21.3091 27.2957C22.0631 27.481 22.6764 27.1686 22.918 26.5467C23.2193 25.7733 22.788 24.9462 21.9591 24.7333C21.4054 24.5909 20.8334 24.5082 20.2889 24.3336C18.5331 23.77 16.7942 23.1527 15.0338 22.609C14.5505 22.4605 13.9846 22.367 13.5044 22.4712C12.784 22.6259 12.0637 22.9 11.4152 23.2553C9.69611 24.1957 8.01374 25.2081 6.31913 26.1914C6.24572 26.2343 6.18148 26.2894 6.09278 26.3538C7.22455 28.354 8.3441 30.3359 9.48811 32.3591ZM3.66404 24.7701C3.49581 24.8283 3.40557 24.8451 3.33063 24.8865C2.72039 25.2265 2.11014 25.5711 1.50296 25.9172C1.2139 26.0827 1.17872 26.3093 1.34084 26.5942C3.20369 29.8841 5.06194 33.177 6.92173 36.4683C7.09149 36.7701 7.31479 36.839 7.61915 36.6613C8.16974 36.3428 8.72645 36.0349 9.27705 35.7179C9.70835 35.4713 9.74964 35.3243 9.50799 34.8939C9.02163 34.0285 8.53374 33.1632 8.04433 32.2994C6.71067 29.9392 5.37853 27.5775 4.03875 25.2204C3.94087 25.0488 3.78181 24.911 3.66404 24.7701Z" fill="black"/>
<path d="M24.2555 5.73559C23.7309 5.19341 23.5413 4.57771 23.5719 3.8839C23.5917 3.43821 23.5581 2.98486 23.6346 2.54989C23.8135 1.52066 24.6914 0.78244 25.7345 0.779377C29.0854 0.768656 32.4364 0.767124 35.7874 0.779377C36.9727 0.783971 37.9118 1.73968 37.9439 2.92513C37.9546 3.33253 37.9485 3.74146 37.9454 4.1504C37.9424 4.75384 37.7084 5.26386 37.3306 5.6728C38.2253 7.16762 38.2146 8.62569 37.3367 10.1266C38.2284 11.2922 38.233 13.0229 37.3061 14.435C38.2008 15.4244 38.0341 16.619 37.8414 17.7677C37.6793 18.7357 36.7341 19.3713 35.6895 19.3774C34.365 19.3851 33.039 19.3851 31.7145 19.3744C31.4882 19.3728 31.3505 19.4326 31.2221 19.6317C29.5733 22.1741 26.6062 23.4254 23.7141 22.8097C20.7975 22.1894 18.5798 19.8629 18.0812 16.9009C17.4939 13.415 19.6611 9.92754 23.0595 8.88913C23.2277 8.83705 23.396 8.78651 23.5673 8.73444C23.6162 7.68683 23.3516 6.58868 24.2555 5.73559ZM25.1793 9.80501C21.891 9.80348 19.2176 12.4746 19.2176 15.7629C19.216 19.042 21.9063 21.7376 25.1778 21.7361C28.4553 21.7345 31.1379 19.0466 31.1379 15.7644C31.1364 12.473 28.4706 9.80501 25.1793 9.80501ZM30.7678 5.12449C32.3737 5.12449 33.9781 5.12908 35.584 5.12296C36.3365 5.11989 36.7142 4.737 36.7188 3.99264C36.7219 3.64804 36.7295 3.30343 36.7142 2.95882C36.6898 2.41358 36.3059 2.03375 35.7614 2.00618C35.532 1.99392 35.3026 2.00158 35.0732 2.00158C32.0158 2.00158 28.957 2.00005 25.8996 2.00311C25.1976 2.00311 24.8122 2.38907 24.8 3.08748C24.7954 3.3555 24.7985 3.62353 24.7985 3.89156C24.8 4.76303 25.1579 5.12449 26.0281 5.12449C27.608 5.12602 29.1879 5.12449 30.7678 5.12449ZM24.8076 8.57975C26.1566 8.52767 27.3847 8.80029 28.5364 9.40221C28.6113 9.4405 28.7077 9.44969 28.7948 9.44969C31.1119 9.45122 33.4275 9.45735 35.7446 9.44662C36.3303 9.44356 36.702 9.03922 36.7188 8.44343C36.728 8.11261 36.7234 7.78026 36.7203 7.44944C36.7127 6.74031 36.3426 6.35895 35.6406 6.35588C34.5837 6.35129 33.5284 6.35435 32.4716 6.35435C30.2692 6.35435 28.0668 6.35282 25.866 6.35588C25.2665 6.35741 24.8581 6.68824 24.8153 7.23808C24.7801 7.66539 24.8076 8.09883 24.8076 8.57975ZM30.2631 10.6826C31.1731 11.6322 31.7482 12.6507 32.0969 13.7963C33.351 13.7963 34.5715 13.807 35.792 13.7917C36.3105 13.7856 36.6867 13.3859 36.7158 12.8575C36.7311 12.5787 36.7203 12.2969 36.7203 12.0166C36.7203 10.9905 36.4099 10.6841 35.3699 10.6826C33.8695 10.6826 32.3691 10.6826 30.8672 10.6826C30.7051 10.6826 30.543 10.6826 30.2631 10.6826ZM32.0739 18.1476C33.27 18.1476 34.5302 18.1629 35.7874 18.1399C36.3319 18.1292 36.6943 17.7157 36.7158 17.1643C36.728 16.8335 36.7203 16.5011 36.7188 16.1703C36.7142 15.4045 36.338 15.0308 35.561 15.0277C34.6067 15.0247 33.6523 15.0262 32.698 15.0277C32.5878 15.0277 32.4777 15.0415 32.4456 15.043C32.3217 16.0922 32.2009 17.0969 32.0739 18.1476Z" fill="black"/>
<path d="M13.4646 5.83044C13.0608 5.83044 12.7182 5.83657 12.3741 5.82891C11.7761 5.81666 11.484 5.33115 11.8051 4.83644C12.784 3.32783 13.7751 1.82841 14.7738 0.335112C15.0781 -0.119769 15.5553 -0.109048 15.8643 0.35196C16.8461 1.82688 17.828 3.30333 18.7809 4.79662C18.8971 4.97888 18.9415 5.32043 18.8466 5.49349C18.7518 5.66656 18.452 5.78143 18.2242 5.81666C17.8907 5.87027 17.5436 5.83044 17.1566 5.83044C17.1566 6.00045 17.1566 6.13676 17.1566 6.27307C17.1566 8.57045 17.1566 10.8678 17.1566 13.1652C17.1566 13.8422 16.9746 14.0214 16.294 14.0214C15.6058 14.0214 14.9175 14.0244 14.2293 14.0214C13.6787 14.0183 13.4661 13.8085 13.4661 13.2571C13.4646 10.9337 13.4646 8.6118 13.4646 6.28839C13.4646 6.15208 13.4646 6.01423 13.4646 5.83044ZM15.93 12.7762C15.93 11.4069 15.93 10.0821 15.93 8.75731C15.93 7.6224 15.927 6.48903 15.9315 5.35412C15.9346 4.8441 16.1564 4.6159 16.6381 4.60364C16.7987 4.59905 16.9578 4.60364 17.1994 4.60364C16.5525 3.6219 15.9484 2.70601 15.3106 1.73805C14.6728 2.70601 14.0641 3.62955 13.4309 4.59139C13.5747 4.59752 13.6374 4.60211 13.7016 4.60364C14.5581 4.61436 14.6897 4.74761 14.6897 5.60836C14.6897 7.85214 14.6897 10.0944 14.6897 12.3382C14.6897 12.4837 14.6897 12.6307 14.6897 12.7777C15.1301 12.7762 15.5079 12.7762 15.93 12.7762Z" fill="black"/>
<path d="M9.48908 32.3591C8.34507 30.3358 7.22553 28.354 6.09375 26.3522C6.18246 26.2878 6.24669 26.2312 6.32011 26.1898C8.01624 25.205 9.69708 24.1942 11.4162 23.2538C12.0646 22.8984 12.785 22.6243 13.5054 22.4696C13.9856 22.367 14.5515 22.4589 15.0348 22.6074C16.7952 23.1512 18.5341 23.7684 20.2899 24.332C20.8329 24.5066 21.4049 24.5893 21.96 24.7317C22.789 24.9446 23.2203 25.7702 22.919 26.5451C22.6758 27.167 22.064 27.4794 21.31 27.2941C19.9641 26.9617 18.6274 26.5911 17.2876 26.2373C17.153 26.2021 17.02 26.1531 16.8823 26.1301C16.5153 26.0658 16.2201 26.245 16.1421 26.5651C16.061 26.902 16.2155 27.1961 16.5749 27.3063C17.2066 27.4993 17.8428 27.6862 18.4852 27.8409C19.7087 28.1365 20.9307 28.4458 22.1665 28.6756C23.2861 28.8839 24.3796 28.7108 25.3783 28.1334C27.6602 26.8162 29.936 25.4853 32.2133 24.1589C33.0759 23.6566 33.9554 23.2017 34.9678 23.0884C36.1929 22.952 37.0066 23.8924 36.6257 25.0549C36.5309 25.3444 36.3015 25.6553 36.0461 25.8146C31.938 28.3723 27.8147 30.9056 23.6975 33.4495C22.6253 34.1127 21.492 34.2337 20.2853 33.906C17.4008 33.1233 14.5117 32.3575 11.6288 31.5688C11.2387 31.4615 10.9176 31.4998 10.5842 31.7188C10.2461 31.944 9.88367 32.1308 9.48908 32.3591Z" fill="white"/>
<path d="M3.66266 24.7699C3.78196 24.9108 3.93949 25.0486 4.03737 25.2202C5.37715 27.5773 6.70928 29.939 8.04295 32.2992C8.53083 33.163 9.02025 34.0283 9.50661 34.8937C9.74826 35.3241 9.70849 35.4711 9.27567 35.7177C8.72354 36.0332 8.16683 36.3426 7.61776 36.6611C7.31341 36.8373 7.09011 36.7683 6.92035 36.4682C5.06056 33.1768 3.2023 29.8839 1.33946 26.594C1.17734 26.3091 1.21252 26.0825 1.50158 25.9171C2.10876 25.5694 2.71901 25.2263 3.32925 24.8863C3.40419 24.8449 3.4929 24.8281 3.66266 24.7699ZM3.93184 26.9049C3.9349 26.5144 3.62137 26.1973 3.23901 26.205C2.87501 26.2127 2.56453 26.5236 2.55994 26.8881C2.55536 27.2725 2.87348 27.588 3.26042 27.5819C3.63819 27.5773 3.92725 27.2848 3.93184 26.9049Z" fill="#A76456"/>
<path d="M25.1761 9.80481C28.4675 9.80634 31.1333 12.4728 31.1333 15.7642C31.1333 19.0464 28.4506 21.7343 25.1731 21.7359C21.9016 21.7374 19.2129 19.0418 19.2129 15.7627C19.2144 12.4728 21.8879 9.80328 25.1761 9.80481ZM25.8047 19.5901C26.077 19.4967 26.3354 19.4278 26.5786 19.3236C27.3495 18.9882 27.8588 18.4322 27.8893 17.5592C27.9199 16.6924 27.5315 16.02 26.7591 15.6279C26.3569 15.4227 25.9057 15.3109 25.4713 15.1746C25.144 15.0719 24.8014 15.0199 24.4802 14.905C24.1514 14.7871 23.9067 14.5573 23.8991 14.1744C23.8914 13.7777 24.1009 13.5036 24.4451 13.3244C25.2251 12.917 26.0846 13.1835 26.5327 13.9753C26.7392 14.3398 27.0696 14.4685 27.3877 14.3077C27.7043 14.1484 27.8022 13.7961 27.6217 13.4148C27.3235 12.7899 26.8585 12.3289 26.1978 12.1098C25.9118 12.0149 25.7527 11.9169 25.7726 11.5707C25.791 11.2368 25.5019 10.9826 25.1868 10.9903C24.8519 10.9979 24.5797 11.1848 24.5858 11.5095C24.5934 11.9153 24.4038 12.0256 24.0734 12.1512C23.194 12.4851 22.6495 13.2892 22.6694 14.1484C22.6923 15.1026 23.2062 15.7152 24.0612 16.0598C24.3533 16.1777 24.6684 16.2405 24.9758 16.3248C25.3061 16.4151 25.6472 16.4779 25.9668 16.5943C26.3767 16.7429 26.6643 17.0216 26.6658 17.498C26.6658 17.8564 26.3905 18.1244 25.8888 18.2806C24.9207 18.5823 23.9924 18.2377 23.688 17.4612C23.5106 17.0063 23.2078 16.8287 22.8499 16.9665C22.4935 17.1044 22.3773 17.4444 22.5425 17.9023C22.8315 18.7049 23.4142 19.198 24.2065 19.4645C24.3227 19.5043 24.4389 19.5411 24.5445 19.5763C24.5858 20.2732 24.7479 20.5229 25.1517 20.5382C25.5707 20.5504 25.7543 20.2901 25.8047 19.5901Z" fill="#F5CF6D"/>
<path d="M30.7659 5.12441C29.186 5.12441 27.6061 5.12595 26.0262 5.12441C25.156 5.12288 24.7996 4.76296 24.7966 3.89149C24.7966 3.62346 24.792 3.35543 24.7981 3.0874C24.8103 2.39053 25.1958 2.00457 25.8978 2.00304C28.9551 1.99998 32.0139 2.00151 35.0713 2.00151C35.3007 2.00151 35.5301 1.99385 35.7595 2.0061C36.304 2.0352 36.6879 2.41351 36.7124 2.95875C36.7276 3.30183 36.72 3.64796 36.7169 3.99257C36.7108 4.73692 36.3346 5.11982 35.5821 5.12288C33.9762 5.12901 32.3718 5.12441 30.7659 5.12441Z" fill="#F5CF6D"/>
<path d="M24.8068 8.57942C24.8068 8.0985 24.7808 7.6666 24.8129 7.23775C24.8558 6.68791 25.2641 6.35709 25.8636 6.35556C28.066 6.35096 30.2684 6.35403 32.4692 6.35403C33.5261 6.35403 34.5829 6.35096 35.6382 6.35556C36.3402 6.35862 36.7104 6.73999 36.718 7.44911C36.7211 7.77993 36.7256 8.11229 36.7165 8.44311C36.7012 9.04043 36.3295 9.44477 35.7422 9.4463C33.4251 9.45702 31.1096 9.45243 28.7925 9.44936C28.7053 9.44936 28.6074 9.44017 28.534 9.40188C27.3824 8.79997 26.1558 8.52735 24.8068 8.57942Z" fill="#F5CF6D"/>
<path d="M30.2588 10.6825C30.5402 10.6825 30.7023 10.6825 30.8629 10.6825C32.3633 10.6825 33.8637 10.6825 35.3656 10.6825C36.4056 10.6825 36.716 10.9903 36.716 12.0165C36.716 12.2968 36.7267 12.5771 36.7114 12.8573C36.6824 13.3857 36.3061 13.7855 35.7877 13.7916C34.5672 13.8069 33.3467 13.7962 32.0926 13.7962C31.7423 12.6491 31.1688 11.6305 30.2588 10.6825Z" fill="#F5CF6D"/>
<path d="M32.0723 18.1476C32.1977 17.0985 32.3185 16.0938 32.4439 15.0431C32.4745 15.0416 32.5846 15.0278 32.6963 15.0278C33.6506 15.0262 34.605 15.0247 35.5594 15.0278C36.3363 15.0308 36.7126 15.4045 36.7171 16.1703C36.7187 16.5012 36.7263 16.8335 36.7141 17.1643C36.6942 17.7157 36.3302 18.1292 35.7857 18.14C34.5285 18.1629 33.2698 18.1476 32.0723 18.1476Z" fill="#F5CF6D"/>
<path d="M15.9292 12.7765C15.5071 12.7765 15.1293 12.7765 14.6904 12.7765C14.6904 12.6295 14.6904 12.484 14.6904 12.3369C14.6904 10.0932 14.6904 7.85091 14.6904 5.60714C14.6904 4.74638 14.5588 4.61314 13.7024 4.60241C13.6396 4.60088 13.5754 4.59782 13.4316 4.59016C14.0648 3.62833 14.6735 2.70631 15.3113 1.73682C15.9491 2.70478 16.5532 3.62067 17.2002 4.60241C16.9585 4.60241 16.7994 4.59935 16.6389 4.60241C16.1571 4.61467 15.9338 4.84287 15.9323 5.35289C15.9261 6.4878 15.9307 7.62117 15.9307 8.75608C15.9292 10.0824 15.9292 11.4073 15.9292 12.7765Z" fill="#8FC486"/>
<path d="M3.93155 26.9051C3.9285 27.285 3.6379 27.5775 3.26014 27.5821C2.87166 27.5867 2.55354 27.2712 2.55966 26.8883C2.56425 26.5238 2.87472 26.2113 3.23872 26.2052C3.62108 26.1976 3.93461 26.5146 3.93155 26.9051Z" fill="#461A10"/>
<path d="M25.8034 19.5903C25.7529 20.2887 25.5679 20.5506 25.1488 20.5338C24.745 20.5185 24.5829 20.2688 24.5416 19.572C24.4361 19.5367 24.3183 19.5 24.2036 19.4601C23.4114 19.1937 22.8287 18.702 22.5396 17.8979C22.3744 17.44 22.4907 17.1 22.847 16.9621C23.2049 16.8243 23.5077 17.0035 23.6852 17.4568C23.9895 18.2334 24.9163 18.5795 25.886 18.2762C26.3877 18.12 26.6645 17.852 26.663 17.4936C26.663 17.0188 26.3754 16.7401 25.964 16.59C25.6428 16.4736 25.3033 16.4108 24.9729 16.3204C24.667 16.2362 24.352 16.1734 24.0583 16.0554C23.2034 15.7108 22.6895 15.0997 22.6666 14.144C22.6467 13.2848 23.1911 12.4807 24.0706 12.1468C24.4009 12.0212 24.5906 11.911 24.5829 11.5051C24.5768 11.1804 24.8491 10.9935 25.184 10.9859C25.4991 10.9782 25.7881 11.234 25.7698 11.5664C25.7499 11.9125 25.9089 12.0105 26.1949 12.1055C26.8557 12.3245 27.3206 12.7855 27.6188 13.4104C27.8008 13.7917 27.7014 14.144 27.3848 14.3033C27.0667 14.4641 26.7364 14.3355 26.5299 13.9709C26.0818 13.1806 25.2222 12.9126 24.4422 13.32C24.0981 13.5007 23.8886 13.7734 23.8962 14.1701C23.9039 14.5514 24.1486 14.7827 24.4774 14.9006C24.7986 15.0155 25.1427 15.0676 25.4685 15.1702C25.9028 15.3065 26.354 15.4183 26.7562 15.6235C27.5286 16.0156 27.9171 16.688 27.8865 17.5549C27.8559 18.4279 27.3466 18.9854 26.5758 19.3192C26.3357 19.4295 26.0772 19.4984 25.8034 19.5903Z" fill="black"/>
</svg>
