<svg width="13" height="13" viewBox="0 0 13 13" fill="none" xmlns="http://www.w3.org/2000/svg">
<path d="M6.90901 13C6.63822 13 6.36768 13 6.09688 13C6.06027 12.9926 6.02365 12.9835 5.98678 12.9779C5.67785 12.9318 5.36459 12.9056 5.06049 12.838C1.45192 12.036 -0.771908 8.28539 0.248469 4.73087C1.21825 1.35261 4.6173 -0.630794 8.04432 0.181595C10.5242 0.769648 12.4808 2.86217 12.9016 5.3792C12.9413 5.61626 12.9677 5.85534 13 6.09341C13 6.3643 13 6.63518 13 6.90606C12.9929 6.93887 12.9835 6.97117 12.9786 7.00424C12.9344 7.30488 12.9067 7.60908 12.8452 7.90616C12.3239 10.4267 10.1703 12.4885 7.63495 12.8998C7.3939 12.9389 7.15108 12.9669 6.90901 13ZM1.82188 3.1824C1.20502 4.05786 0.856423 5.03075 0.782432 6.11147C1.55235 6.11147 2.30677 6.11147 3.03168 6.11147C3.13161 5.32808 3.23027 4.55588 3.32892 3.7824C3.09169 3.69949 2.83386 3.61835 2.58316 3.5189C2.32914 3.41792 2.0825 3.29838 1.82188 3.1824ZM1.81044 9.80105C2.33982 9.59096 2.84734 9.38977 3.32511 9.20028C3.22773 8.43113 3.13059 7.66198 3.0327 6.88902C2.30092 6.88902 1.54625 6.88902 0.781923 6.88902C0.857695 7.96923 1.20528 8.9411 1.81044 9.80105ZM11.195 3.19842C10.6724 3.40622 10.1647 3.60818 9.68003 3.80072C9.77716 4.56631 9.87479 5.33851 9.97243 6.10868C10.7075 6.10868 11.4614 6.10868 12.2237 6.10868C12.1467 5.02744 11.8004 4.05608 11.195 3.19842ZM12.2232 6.88749C11.4551 6.88749 10.7009 6.88749 9.97421 6.88749C9.87454 7.66961 9.77588 8.44156 9.67952 9.19748C10.1725 9.39409 10.6798 9.59655 11.1957 9.80232C11.8011 8.93601 12.15 7.96593 12.2232 6.88749ZM4.10851 3.9958C3.96307 4.46965 3.795 5.85687 3.85348 6.10969C4.60815 6.10969 5.36205 6.10969 6.11392 6.10969C6.11392 5.46823 6.11392 4.83592 6.11392 4.22395C5.44189 4.14739 4.78054 4.07236 4.10851 3.9958ZM9.172 6.11351C9.15064 5.38582 9.06495 4.6772 8.90324 3.99631C8.22358 4.07287 7.55867 4.1479 6.89096 4.22319C6.89096 4.84355 6.89096 5.47586 6.89096 6.11351C7.64868 6.11351 8.39979 6.11351 9.172 6.11351ZM6.11875 6.88876C5.35239 6.88876 4.59823 6.88876 3.83314 6.88876C3.85678 7.61493 3.94018 8.3238 4.10342 9.00392C4.78461 8.9266 5.44926 8.85131 6.11875 8.77552C6.11875 8.15745 6.11875 7.52819 6.11875 6.88876ZM8.904 9.00316C9.06343 8.31566 9.15267 7.6078 9.17073 6.88902C8.39928 6.88902 7.64537 6.88902 6.89122 6.88902C6.89122 7.52972 6.89122 8.16203 6.89122 8.77552C7.56223 8.85157 8.22358 8.92635 8.904 9.00316ZM8.70796 3.25641C8.60473 2.99977 8.52565 2.78231 8.43106 2.57196C8.18671 2.02816 7.88896 1.51794 7.41806 1.13616C7.26423 1.01128 7.0837 0.919459 6.89172 0.797626C6.89172 1.70362 6.89172 2.5628 6.89172 3.45684C7.49307 3.39045 8.08272 3.3256 8.70796 3.25641ZM6.11595 3.45735C6.11595 2.5567 6.11595 1.70082 6.11595 0.831455C5.76354 0.95227 5.49961 1.17686 5.26899 1.44418C4.81868 1.9661 4.54 2.57883 4.30913 3.25743C4.92395 3.32534 5.51334 3.39045 6.11595 3.45735ZM6.11443 12.2001C6.11443 11.2959 6.11443 10.4369 6.11443 9.56832C5.50774 9.58358 4.91556 9.64946 4.30862 9.77002C4.40092 9.99944 4.48025 10.2167 4.57458 10.427C4.82046 10.9749 5.12075 11.4881 5.59725 11.8709C5.74854 11.9923 5.92576 12.0813 6.11443 12.2001ZM6.88994 9.54238C6.88994 10.4435 6.88994 11.2994 6.88994 12.1708C7.23219 12.0487 7.49256 11.8335 7.71987 11.5741C8.18035 11.0486 8.46259 10.4288 8.69703 9.74153C8.08221 9.67388 7.49256 9.60876 6.88994 9.54238ZM8.47963 1.12446C8.90832 1.71303 9.202 2.3639 9.43008 3.04429C9.74868 2.98604 10.5206 2.68159 10.6681 2.55568C10.0513 1.90608 9.32659 1.42383 8.47963 1.12446ZM9.45881 9.93331C9.30447 10.2973 9.18013 10.6343 9.02096 10.9538C8.8623 11.2719 8.6688 11.5723 8.487 11.8865C9.32786 11.5754 10.0543 11.0919 10.6999 10.4105C10.2666 10.2439 9.86005 10.0874 9.45881 9.93331ZM2.30651 2.589C2.74207 2.75585 3.14916 2.91202 3.56794 3.07252C3.80262 2.36034 4.10164 1.71099 4.52805 1.12243C3.6788 1.42383 2.95439 1.90684 2.30651 2.589ZM2.31694 10.4067C2.7881 10.9858 4.1197 11.8549 4.53695 11.8664C4.09656 11.2859 3.80415 10.6346 3.5659 9.92644C3.14763 10.0874 2.7408 10.2439 2.31694 10.4067Z" fill="white"/>
</svg>
