<svg width="8" height="14" viewBox="0 0 8 14" fill="none" xmlns="http://www.w3.org/2000/svg">
<path d="M7.7 6.78125C7.7 6.92694 7.7 7.07306 7.7 7.21875C7.59229 7.84087 7.19394 8.27531 6.75553 8.70144C5.10781 10.3036 3.47791 11.9227 1.83109 13.5258C1.63747 13.7148 1.38333 13.8434 1.15723 14C1.0237 14 0.890173 14 0.756647 14C0.352064 13.8569 0.0943584 13.5848 0 13.1687C0 13.0957 0 13.0231 0 12.95C0.0765549 12.6411 0.278179 12.4176 0.501613 12.1988C2.20808 10.5289 3.90964 8.85325 5.6121 7.17894C5.66862 7.12337 5.72248 7.06519 5.78568 6.99956C5.72248 6.93394 5.66862 6.87575 5.6121 6.82019C3.90964 5.14675 2.20852 3.47112 0.501613 1.80075C0.278179 1.582 0.0774451 1.35844 0 1.05C0 0.976937 0 0.904312 0 0.83125C0.0943584 0.415187 0.351173 0.142187 0.756647 0C0.890173 0 1.0237 0 1.15723 0C1.38333 0.156625 1.63747 0.285688 1.83153 0.47425C3.47791 2.07725 5.10826 3.69644 6.75597 5.29856C7.19394 5.72469 7.59362 6.15869 7.7 6.78125Z" fill="white"/>
</svg>
