<svg width="19" height="19" viewBox="0 0 19 19" fill="none" xmlns="http://www.w3.org/2000/svg">
<path d="M15.8419 14.1929C16.7699 15.1165 17.7014 16.0005 18.5727 16.9388C18.8169 17.2014 19.043 17.6508 18.9919 17.9689C18.9373 18.3096 18.6045 18.6921 18.2876 18.8834C17.8957 19.12 17.4413 18.9717 17.0982 18.6333C16.2394 17.7821 15.3829 16.9286 14.5253 16.0775C14.4333 15.9858 14.3344 15.9009 14.2413 15.8149C9.45324 19.2196 4.05859 17.2954 1.67194 13.9642C-0.918036 10.3489 -0.46479 5.43764 2.79427 2.38266C6.03061 -0.651953 11.0322 -0.803627 14.4639 2.01819C17.8559 4.80944 18.8999 9.98673 15.8419 14.1929ZM12.6339 14.0616C12.4681 13.9427 12.2977 13.8488 12.1636 13.7186C11.4355 13.0044 10.7085 12.289 9.99623 11.5589C9.48391 11.0349 9.47255 10.3546 9.93829 9.89844C10.4097 9.4355 11.0583 9.46266 11.6059 9.97315C11.7717 10.1282 11.9285 10.2912 12.0887 10.4519C12.777 11.1424 13.4654 11.8329 14.1572 12.5278C16.1156 10.1995 15.684 6.19828 13.2916 4.01032C10.6699 1.61071 6.65425 1.69786 4.16877 4.20841C1.67308 6.73027 1.6231 10.6942 4.07563 13.2941C6.53156 15.8975 10.3927 15.8352 12.6339 14.0616Z" fill="#BE202E"/>
</svg>
