<svg width="20" height="20" viewBox="0 0 20 20" fill="none" xmlns="http://www.w3.org/2000/svg">
<circle cx="10" cy="10" r="9.5" stroke="#0F75BC"/>
<path d="M0.509954 9.66516H0.5V9.66614V9.66847V9.67079V9.67312V9.67545V9.67778V9.68011V9.68243V9.68476V9.68709V9.68942V9.69174V9.69407V9.6964V9.69873V9.70105V9.70338V9.70571V9.70803V9.71036V9.71269V9.71501V9.71734V9.71967V9.72199V9.72432V9.72665V9.72897V9.7313V9.73363V9.73595V9.73828V9.7406V9.74293V9.74526V9.74758V9.74991V9.75224V9.75456V9.75689V9.75921V9.76154V9.76386V9.76619V9.76852V9.77084V9.77317V9.77549V9.77782V9.78015V9.78247V9.7848V9.78712V9.78945V9.79178V9.7941V9.79643V9.79875V9.80108V9.8034V9.80573V9.80806V9.81038V9.81271V9.81503V9.81736V9.81969V9.82201V9.82434V9.82666V9.82899V9.83132V9.83364V9.83597V9.83829V9.84062V9.84295V9.84527V9.8476V9.84993V9.85225V9.85458V9.85691V9.85923V9.86156V9.86389V9.8661H0.508943H0.539906H0.570771H0.60154H0.632213H0.66279H0.693271H0.723657H0.753949H0.784146H0.81425H0.84426H0.874177H0.904002H0.933734H0.963374H0.992923H1.02238H1.05175H1.08103H1.11021H1.13931H1.16832H1.19724H1.22607H1.25482H1.28348H1.31205H1.34053H1.36893H1.39724H1.42547H1.45361H1.48167H1.50964H1.53753H1.56534H1.59306H1.6207H1.64826H1.67574H1.70313H1.73045H1.75769H1.78484H1.81192H1.83891H1.86583H1.89267H1.91943H1.94612H1.97272H1.99925H2.02571H2.05208H2.07839H2.10461H2.13076H2.15684H2.18285H2.20878H2.23464H2.26042H2.28613H2.31177H2.33734H2.36284H2.38827H2.41363H2.43891H2.46413H2.48928H2.51436H2.53938H2.56432H2.5892H2.61401H2.63875H2.66343H2.68804H2.71259H2.73707H2.76149H2.78584H2.81013H2.83436H2.85852H2.88262H2.90666H2.93064H2.95455H2.97841H3.0022H3.02594H3.04961H3.07323H3.09679H3.12028H3.14372H3.16711H3.19043H3.2137H3.23691H3.26007H3.28317H3.30622H3.32921H3.35215H3.37503H3.39786H3.42064H3.44336H3.46603H3.48865H3.51122H3.53373H3.5562H3.57862H3.60098H3.6233H3.64557H3.66779H3.68996H3.71208H3.73416H3.75619H3.77817H3.8001H3.82199H3.84384H3.86564H3.88739H3.9091H3.93077H3.9524H3.97398H3.99552H4.01701H4.03847H4.05988H4.08125H4.10258H4.12388H4.14513H4.16634H4.18752H4.20865H4.22975H4.25081H4.27183H4.29282H4.31377H4.33468H4.35556H4.3764H4.39721H4.41799H4.43873H4.45943H4.48011H4.50075H4.52135H4.54193H4.56248H4.58299H4.60347H4.62392H4.64435H4.66474H4.6851H4.70544H4.72575H4.74603H4.76628H4.7865H4.8067H4.82687H4.84702H4.86714H4.88724H4.90731H4.92735H4.94738H4.96738H4.98736H5.00731H5.02724H5.04715H5.06704H5.08691H5.10676H5.12659H5.14639H5.16618H5.18595H5.2057H5.22544H5.24515H5.26485H5.28453H5.3042H5.32385H5.34348H5.3631H5.3827H5.40229H5.42186H5.44143H5.46097H5.48051H5.50003H5.51954H5.53904H5.55853H5.57801H5.59748H5.61693H5.63638H5.65582H5.67525H5.69467H5.71409H5.73349H5.75289H5.77228H5.79167H5.81105H5.83043H5.8498H5.86916H5.88852H5.90788H5.92723H5.94658H5.96593H5.98528H6.00462H6.02397H6.04331H6.06265H6.08199H6.10133H6.12068H6.14002H6.15936H6.17871H6.19806H6.21741H6.23677H6.25612H6.27549H6.29485H6.31422H6.3336H6.35298H6.37237H6.39177H6.41117H6.43058H6.44999H6.46942H6.48885H6.50829H6.52774H6.5472H6.56667H6.58615H6.60564H6.62514H6.64466H6.66419H6.68372H6.70328H6.72284H6.74242H6.76201H6.78162H6.80124H6.82088H6.84053H6.8602H6.87989H6.89959H6.91931H6.93905H6.95881H6.97858H6.99838H7.01819H7.03802H7.05788H7.07775H7.09765H7.11756H7.1375H7.15746H7.17744H7.19745H7.21748H7.23753H7.25761H7.27772H7.29784H7.318H7.33818H7.35838H7.37861H7.39887H7.41916H7.43948H7.45982H7.48019H7.50059H7.52102H7.54148H7.56198H7.5825H7.60305H7.62364H7.64425H7.6649H7.68559H7.7063H7.72705H7.74783H7.76865H7.78951H7.81039H7.83132H7.85228H7.87327H7.89431H7.91538H7.93649H7.95763H7.97882H8.00004H8.0213H8.04261H8.06395H8.08533H8.10676H8.12823H8.14973H8.17128H8.19288H8.21451H8.23619H8.25792H8.27968H8.3015H8.32335H8.34526H8.36721H8.3892H8.41124H8.43333H8.45547H8.47765H8.49988H8.52217H8.5445H8.56688H8.58931H8.61179H8.63432H8.6569H8.67953H8.70222H8.72496H8.74775H8.77059H8.79349H8.81644H8.83945H8.86251H8.88563H8.9088H8.93203H8.95531H8.97865H9.00205H9.02551H9.04902H9.0726H9.09623H9.11992H9.14367H9.16748H9.19136H9.21529H9.23928H9.26334H9.28746H9.31164H9.33588H9.36019H9.38456H9.409H9.4335H9.45806H9.48269H9.50739H9.53215H9.55698H9.58187H9.60684H9.63187H9.65697H9.68214H9.70738H9.73268H9.75806H9.78351H9.80903H9.83462H9.86028H9.88601H9.91181H9.93769H9.96364H9.98967H10.0158H10.0419H10.0682H10.0945H10.1209H10.1474H10.1739H10.2006H10.2273H10.2541H10.2809H10.3079H10.3349H10.362H10.3891H10.4164H10.4437H10.4712H10.4987H10.5262H10.5539H10.5817H10.6095H10.6374H10.6654H10.6935H10.7216H10.7499H10.7782H10.8067H10.8352H10.8638H10.8924H10.9212H10.9501H10.979H11.008H11.0372H11.0664H11.0957H11.1251H11.1546H11.1841H11.2138H11.2436H11.2734H11.3033H11.3334H11.3635H11.3937H11.4241H11.4545H11.485H11.5156H11.5463H11.5771H11.608H11.639H11.67H11.7012H11.7325H11.7639H11.7954H11.827H11.8586H11.8904H11.9223H11.9543H11.9864H12.0186H12.0509H12.0832H12.1157H12.1483H12.1811H13.3902L12.5342 10.7201C11.8441 11.4085 11.1602 12.0907 10.4801 12.7691C10.0294 13.2186 9.58047 13.6664 9.13252 14.1133C9.18676 14.1674 9.24089 14.2214 9.29534 14.2757C10.7971 12.7738 12.3001 11.2729 13.8037 9.77326C12.3002 8.27342 10.7973 6.77289 9.29528 5.27109L9.15633 5.40974L12.5659 8.8112L13.4219 9.66516H12.2128H12.1799H12.1472H12.1146H12.082H12.0496H12.0173H11.9851H11.953H11.921H11.889H11.8572H11.8255H11.7939H11.7624H11.731H11.6997H11.6685H11.6374H11.6064H11.5754H11.5446H11.5139H11.4833H11.4527H11.4223H11.3919H11.3617H11.3315H11.3015H11.2715H11.2416H11.2119H11.1822H11.1526H11.1231H11.0936H11.0643H11.0351H11.0059H10.9769H10.9479H10.919H10.8902H10.8615H10.8329H10.8044H10.7759H10.7476H10.7193H10.6911H10.663H10.635H10.6071H10.5792H10.5514H10.5238H10.4961H10.4686H10.4412H10.4138H10.3865H10.3593H10.3322H10.3052H10.2782H10.2513H10.2245H10.1978H10.1712H10.1446H10.1181H10.0917H10.0653H10.0391H10.0129H9.98675H9.9607H9.93473H9.90883H9.88301H9.85725H9.83157H9.80596H9.78042H9.75495H9.72955H9.70423H9.67897H9.65378H9.62866H9.60361H9.57862H9.5537H9.52885H9.50407H9.47935H9.4547H9.43012H9.4056H9.38114H9.35675H9.33242H9.30816H9.28396H9.25982H9.23574H9.21172H9.18777H9.16388H9.14005H9.11627H9.09256H9.06891H9.04531H9.02178H8.9983H8.97488H8.95152H8.92821H8.90496H8.88177H8.85863H8.83555H8.81252H8.78955H8.76663H8.74376H8.72095H8.69819H8.67548H8.65283H8.63022H8.60767H8.58517H8.56271H8.54031H8.51796H8.49566H8.4734H8.4512H8.42904H8.40693H8.38486H8.36284H8.34087H8.31895H8.29707H8.27523H8.25344H8.23169H8.20999H8.18833H8.16671H8.14514H8.12361H8.10212H8.08067H8.05926H8.0379H8.01657H7.99528H7.97403H7.95282H7.93165H7.91052H7.88942H7.86836H7.84734H7.82636H7.80541H7.78449H7.76362H7.74277H7.72196H7.70119H7.68045H7.65974H7.63906H7.61842H7.59781H7.57723H7.55668H7.53616H7.51567H7.49521H7.47478H7.45438H7.43401H7.41367H7.39335H7.37306H7.3528H7.33257H7.31236H7.29218H7.27202H7.25189H7.23178H7.2117H7.19164H7.1716H7.15159H7.1316H7.11163H7.09168H7.07175H7.05185H7.03197H7.0121H6.99226H6.97243H6.95262H6.93283H6.91306H6.89331H6.87357H6.85385H6.83415H6.81446H6.79479H6.77514H6.75549H6.73587H6.71625H6.69665H6.67707H6.65749H6.63793H6.61838H6.59884H6.57931H6.5598H6.54029H6.52079H6.50131H6.48183H6.46236H6.44289H6.42344H6.40399H6.38455H6.36512H6.34569H6.32627H6.30686H6.28744H6.26804H6.24863H6.22924H6.20984H6.19045H6.17106H6.15167H6.13228H6.1129H6.09351H6.07413H6.05474H6.03536H6.01597H5.99658H5.97719H5.9578H5.93841H5.91901H5.89962H5.88021H5.86081H5.84139H5.82198H5.80256H5.78313H5.76369H5.74425H5.72481H5.70535H5.68589H5.66642H5.64694H5.62745H5.60795H5.58844H5.56893H5.5494H5.52986H5.51031H5.49074H5.47117H5.45158H5.43198H5.41237H5.39274H5.37309H5.35344H5.33376H5.31408H5.29437H5.27465H5.25491H5.23516H5.21539H5.1956H5.17579H5.15596H5.13611H5.11625H5.09636H5.07645H5.05653H5.03658H5.01661H4.99661H4.9766H4.95656H4.9365H4.91641H4.8963H4.87617H4.85601H4.83582H4.81561H4.79538H4.77512H4.75483H4.73451H4.71416H4.69379H4.67339H4.65296H4.63249H4.612H4.59148H4.57093H4.55035H4.52973H4.50909H4.48841H4.4677H4.44695H4.42618H4.40536H4.38452H4.36364H4.34272H4.32177H4.30078H4.27976H4.25869H4.2376H4.21646H4.19529H4.17407H4.15282H4.13153H4.1102H4.08883H4.06742H4.04597H4.02447H4.00294H3.98136H3.95974H3.93808H3.91637H3.89462H3.87283H3.85099H3.8291H3.80717H3.7852H3.76318H3.74111H3.719H3.69683H3.67462H3.65236H3.63006H3.6077H3.58529H3.56284H3.54033H3.51777H3.49517H3.47251H3.4498H3.42703H3.40421H3.38134H3.35842H3.33544H3.31241H3.28932H3.26618H3.24298H3.21973H3.19642H3.17305H3.14963H3.12614H3.1026H3.07901H3.05535H3.03163H3.00785H2.98402H2.96012H2.93616H2.91214H2.88806H2.86391H2.83971H2.81544H2.79111H2.76671H2.74225H2.71772H2.69313H2.66847H2.64375H2.61896H2.59411H2.56919H2.5442H2.51914H2.49401H2.46882H2.44355H2.41822H2.39282H2.36734H2.3418H2.31618H2.2905H2.26474H2.2389H2.213H2.18702H2.16097H2.13484H2.10864H2.08237H2.05602H2.02959H2.00309H1.97651H1.94986H1.92312H1.89631H1.86942H1.84246H1.81541H1.78828H1.76108H1.73379H1.70643H1.67898H1.65145H1.62384H1.59615H1.56837H1.54051H1.51257H1.48454H1.45643H1.42824H1.39996H1.37159H1.34314H1.3146H1.28598H1.25727H1.22847H1.19958H1.17061H1.14154H1.11239H1.08315H1.05381H1.02439H0.994874H0.965268H0.93557H0.905781H0.875899H0.845924H0.815856H0.785694H0.755438H0.725088H0.694643H0.664102H0.633465H0.602733H0.571904H0.540978H0.509954Z" fill="#5B5B5B" stroke="#0F75BC"/>
</svg>
