<svg width="64" height="64" viewBox="0 0 64 64" fill="none" xmlns="http://www.w3.org/2000/svg">
<path d="M33.1 8.51739C33.1 10.824 33.1028 13.1305 33.1 15.4398C33.0973 16.7053 32.7207 17.0818 31.4497 17.1068C24.1036 17.2452 17.926 22.9631 17.1895 30.312C16.4031 38.1454 21.3623 44.9184 29.0352 46.4884C36.7938 48.0778 44.9596 42.5564 46.405 34.7258C46.5628 33.8674 46.6292 32.9896 46.6957 32.1174C46.7649 31.1565 47.1637 30.6969 48.1079 30.6941C52.8594 30.6831 57.6138 30.6831 62.3653 30.6941C63.2542 30.6969 63.7803 31.2147 63.7609 31.9789C63.7443 32.7183 63.232 33.1668 62.3653 33.1724C60.9338 33.1807 59.505 33.1945 58.0734 33.1668C57.4061 33.153 57.1264 33.4105 57.0711 34.0834C56.2376 44.7439 48.3903 54.0394 38.0426 56.6477C37.104 56.8831 36.4671 56.573 36.3065 55.8004C36.1404 55.0085 36.5114 54.4852 37.4695 54.236C39.8314 53.6213 42.0549 52.6853 44.0873 51.3396C50.1126 47.3523 53.5821 41.7507 54.5485 34.5956C54.5817 34.3436 54.5873 34.0889 54.6039 33.8369C54.6344 33.38 54.4267 33.1364 53.9615 33.1364C52.5549 33.1336 51.1454 33.1336 49.7388 33.1364C49.1961 33.1391 49.0798 33.5019 49.0189 33.9615C48.4845 38.0901 46.7345 41.6233 43.708 44.4892C40.9805 47.0726 37.7325 48.6094 33.9999 49.0691C33.2939 49.1549 33.0779 49.4512 33.0806 50.1407C33.1056 54.1086 33.0917 58.0765 33.0917 62.0473C33.0917 63.249 32.6736 63.8415 31.8401 63.8194C31.0427 63.8 30.6522 63.2185 30.6522 62.0528C30.6522 60.8981 30.6522 59.7462 30.6522 58.5916C30.6522 57.4618 30.5913 57.3871 29.4699 57.2763C25.693 56.8997 22.1709 55.7284 18.9478 53.7376C13.0692 50.1047 9.23975 44.9322 7.49253 38.2341C7.21286 37.1597 7.48422 36.5034 8.24846 36.3318C9.04039 36.1518 9.54157 36.5837 9.83509 37.6498C11.9949 45.5109 16.9043 50.88 24.5605 53.6489C26.2523 54.2609 28.0937 54.4713 29.8714 54.8424C30.3864 54.9504 30.6522 54.6624 30.6522 54.1446C30.655 52.713 30.6439 51.2842 30.655 49.8527C30.6606 49.2518 30.2729 49.1466 29.7994 49.0857C26.7618 48.7091 24.0012 47.6098 21.5589 45.7712C17.7876 42.933 15.5641 39.1506 14.822 34.4932C14.7999 34.3575 14.7556 34.2218 14.7528 34.0834C14.7445 33.3773 14.3845 33.1391 13.6923 33.1447C11.0867 33.1696 8.47829 33.1558 5.86991 33.1558C4.4162 33.1558 2.96249 33.1585 1.50877 33.1558C0.534093 33.153 0.00244983 32.721 -0.00862607 31.9346C-0.019702 31.1289 0.534093 30.6692 1.53646 30.6637C2.85173 30.6581 4.16699 30.6637 5.48225 30.6609C6.61753 30.6609 6.67845 30.6194 6.7726 29.4675C7.04949 26.0672 7.9688 22.8496 9.56649 19.8425C12.9723 13.4379 18.1642 9.18472 25.0921 7.04153C25.7373 6.84216 26.3299 6.81447 26.7729 7.41534C27.3516 8.19619 26.9224 9.12934 25.8204 9.4367C23.8101 10.0016 21.9023 10.8073 20.144 11.9232C13.6009 16.0822 9.97907 22.0466 9.20099 29.7499C9.12623 30.4781 9.2979 30.672 10.0289 30.6775C11.275 30.6858 12.521 30.6664 13.767 30.6858C14.3568 30.6941 14.6393 30.4781 14.7196 29.8662C15.7552 21.9857 21.4703 16.085 29.301 14.7753C30.6522 14.5482 30.6522 14.5482 30.6522 13.1471C30.6522 9.31763 30.6495 5.48813 30.6578 1.65587C30.6578 1.35959 30.6744 1.04946 30.7658 0.772566C30.9347 0.257537 31.3417 -0.00274711 31.8761 2.18616e-05C32.4105 2.18616e-05 32.8176 0.257537 32.9837 0.775335C33.0723 1.055 33.0889 1.36513 33.0917 1.65864C33.1028 3.94858 33.1 6.23299 33.1 8.51739Z" fill="black"/>
<circle cx="32" cy="32" r="8" fill="#DE5757"/>
<circle cx="32" cy="32" r="4" fill="#941111"/>
<path d="M41.5252 17.6856C40.9105 15.2212 42.0818 13.5709 43.8373 11.9953C46.1162 9.94905 48.2068 7.69234 50.3721 5.51869C50.829 5.05904 51.3219 4.76553 51.9726 5.07012C52.4876 5.31102 52.6842 5.75129 52.6787 6.31062C52.6704 7.69511 52.6731 9.07683 52.6787 10.4613C52.6814 11.3391 52.8614 11.5246 53.7226 11.5274C55.0821 11.5329 56.4445 11.5384 57.804 11.5246C58.416 11.5191 58.9089 11.7101 59.1332 12.3055C59.3547 12.8869 59.1442 13.3383 58.6957 13.7785C55.9156 16.5088 53.1522 19.2611 50.4053 22.0218C49.9485 22.4814 49.4667 22.6919 48.816 22.6808C47.2016 22.6504 45.5873 22.6863 43.973 22.6614C43.4248 22.6531 43.0177 22.8303 42.6301 23.2235C39.4568 26.4438 36.2697 29.6476 33.0826 32.854C32.8888 33.0479 32.6922 33.2611 32.4596 33.394C31.9363 33.693 31.4212 33.6044 31.0087 33.178C30.5712 32.7267 30.5186 32.195 30.8619 31.6634C30.9976 31.4529 31.1914 31.2813 31.3714 31.1013C34.6166 27.8256 37.873 24.5554 41.1016 21.2631C41.3425 21.0194 41.4892 20.5958 41.5142 20.2441C41.5668 19.394 41.5252 18.5384 41.5252 17.6856ZM46.4651 20.2303C47.0632 20.2303 47.6641 20.2469 48.2622 20.222C48.4754 20.2137 48.7467 20.1583 48.8879 20.0198C50.5604 18.3695 52.219 16.7054 53.8555 15.0218C54.0106 14.8612 54.1102 14.4902 54.0299 14.3047C53.9469 14.1164 53.6174 13.953 53.3848 13.9336C52.7424 13.8838 52.0944 13.9308 51.452 13.9087C50.649 13.881 50.1811 13.4047 50.1561 12.5962C50.1395 12.0202 50.1949 11.4388 50.134 10.8711C50.1035 10.5942 49.9346 10.2287 49.7159 10.1124C49.5497 10.0238 49.1372 10.1927 48.9572 10.3727C47.3705 11.9455 45.8061 13.5404 44.2582 15.152C44.0727 15.343 43.9426 15.6698 43.9342 15.9356C43.901 17.1096 43.9287 18.2837 43.9149 19.4605C43.9093 19.9894 44.1724 20.222 44.6708 20.2303C45.2689 20.2358 45.867 20.2275 46.4651 20.2303Z" fill="black"/>
<path d="M31.8236 42.1853C26.4712 42.1604 21.966 37.9377 21.6448 32.6268C21.3098 27.1221 25.2556 22.4038 30.7243 21.7752C31.0206 21.742 31.3196 21.7004 31.6187 21.6949C32.4134 21.6838 32.9561 22.149 32.9893 22.8468C33.0226 23.5473 32.5325 24.0485 31.735 24.1344C31.2781 24.1842 30.8129 24.1981 30.3616 24.2839C26.4213 25.0287 23.7714 28.6367 24.1314 32.7514C24.4609 36.5449 27.8113 39.624 31.6851 39.6905C36.0823 39.7652 39.2943 36.6889 39.621 32.0813C39.6819 31.2119 40.0115 30.7578 40.6511 30.6525C41.5095 30.5113 42.1214 31.09 42.1214 32.037C42.1103 36.4618 39.0783 40.5018 34.8224 41.7423C34.2492 41.9084 33.6567 42.0192 33.0669 42.1133C32.6571 42.1743 32.2389 42.1632 31.8236 42.1853Z" fill="black"/>
<path d="M46.4657 20.2301C45.8676 20.2301 45.2667 20.2357 44.6686 20.2274C44.1702 20.219 43.9071 19.9865 43.9127 19.4576C43.9238 18.2835 43.8961 17.1067 43.9321 15.9327C43.9404 15.6641 44.0705 15.3401 44.256 15.149C45.8039 13.5375 47.3684 11.9426 48.955 10.3698C49.135 10.1898 49.5503 10.0209 49.7137 10.1095C49.9324 10.2258 50.1013 10.5913 50.1318 10.8682C50.1955 11.4359 50.1373 12.0173 50.154 12.5933C50.1789 13.4018 50.6441 13.8809 51.4498 13.9058C52.095 13.9279 52.7429 13.8781 53.3826 13.9307C53.6152 13.9501 53.9447 14.1135 54.0278 14.3017C54.1081 14.4845 54.0084 14.8583 53.8533 15.0189C52.2168 16.7024 50.5555 18.3666 48.8858 20.0169C48.7445 20.1554 48.476 20.2107 48.26 20.219C47.6646 20.2467 47.0665 20.2301 46.4657 20.2301Z" fill="#FFC671"/>
</svg>
