<svg width="63" height="64" viewBox="0 0 63 64" fill="none" xmlns="http://www.w3.org/2000/svg">
<path d="M29.0447 4.87839C30.9699 6.21142 31.3366 7.6609 30.2811 9.70752C31.4952 10.7432 31.9214 12.0267 31.3515 13.6422C31.6191 13.6546 31.8346 13.6744 32.0502 13.6744C34.2802 13.6769 36.5101 13.6546 38.7376 13.6868C40.3977 13.7091 41.6465 14.9034 41.8373 16.5659C42.0132 18.0897 40.9973 19.6259 39.4364 19.9208C38.4577 20.1041 37.4244 20.0472 36.4185 19.9976C35.9427 19.9753 35.6801 19.5491 35.7197 19.0536C35.7619 18.5258 36.1038 18.2285 36.6142 18.1963C37.2113 18.1591 37.811 18.1839 38.4106 18.1814C39.3967 18.174 40.0038 17.6586 39.9914 16.841C39.979 16.0456 39.3893 15.5426 38.4329 15.5426C34.8005 15.5377 31.1656 15.5401 27.5333 15.5401C27.3673 15.5401 27.2037 15.5476 27.0377 15.5377C26.3712 15.5005 25.9698 15.1264 25.9872 14.5664C26.0045 14.0238 26.3861 13.6942 27.0352 13.6769C27.4887 13.6645 27.9446 13.6942 28.398 13.662C29.2008 13.6075 29.7508 13.0475 29.7484 12.3265C29.7484 11.5757 29.1686 11.0232 28.3311 10.9935C27.8157 10.9761 27.2979 11.0009 26.7825 10.9836C26.2052 10.9662 25.8137 10.5946 25.8038 10.0817C25.7939 9.56877 26.1755 9.1748 26.7453 9.13516C27.0328 9.11534 27.3227 9.13764 27.6126 9.12525C28.4104 9.09552 28.9827 8.5628 29.005 7.8393C29.0298 7.09597 28.4575 6.5137 27.6274 6.48149C26.946 6.45424 26.2647 6.47901 25.5833 6.4691C24.7954 6.45919 24.3915 6.12965 24.3989 5.52013C24.4063 4.93538 24.7978 4.62566 25.5511 4.60336C25.8385 4.59593 26.1309 4.61079 26.4158 4.57115C27.1393 4.47452 27.5977 3.91702 27.568 3.20343C27.5382 2.53196 27.0402 2.01411 26.3514 1.94721C26.1457 1.92739 25.9401 1.9373 25.7319 1.9373C20.8805 1.9373 16.0291 1.94969 11.1777 1.92987C9.52995 1.92244 7.99127 2.26436 6.54674 3.0622C6.28906 3.20343 5.96447 3.28024 5.66962 3.2852C4.16067 3.31493 2.6542 3.3075 1.14773 3.30006C0.41184 3.29759 0.00548912 2.96061 0.000533624 2.37586C-0.00442187 1.78616 0.396973 1.44423 1.12543 1.44175C2.48819 1.4368 3.85095 1.45166 5.21372 1.43184C5.48874 1.42689 5.78607 1.35503 6.03137 1.23362C7.57253 0.463042 9.19793 0.0765136 10.9224 0.0789913C15.8978 0.0864246 20.8731 0.0814691 25.8484 0.0814691C28.6904 0.0814691 30.1299 2.21977 29.0447 4.87839Z" fill="black"/>
<path d="M33.953 58.7323C32.003 57.3249 31.6338 55.8754 32.7042 53.9279C31.3315 52.3545 31.1729 51.797 31.609 49.9536C31.3835 49.9412 31.1729 49.9214 30.9598 49.9214C28.71 49.9164 26.4603 49.9412 24.2105 49.904C22.6842 49.8793 21.4428 48.7643 21.1975 47.2875C20.9448 45.7786 21.6906 44.2176 23.1401 43.8286C24.2427 43.5338 25.4568 43.5982 26.6213 43.6081C27.0524 43.6106 27.3101 44.0516 27.2779 44.5224C27.2407 45.0501 26.9062 45.3599 26.3983 45.3946C25.7813 45.4367 25.1594 45.4069 24.5425 45.4119C23.6034 45.4218 23.0038 45.9372 23.0063 46.735C23.0063 47.5279 23.6034 48.0507 24.5474 48.0532C28.2219 48.0581 31.8964 48.0532 35.5709 48.0581C35.8162 48.0581 36.0714 48.0557 36.3068 48.1151C36.7925 48.234 37.0378 48.5785 37.0006 49.074C36.9609 49.5696 36.6711 49.8743 36.1656 49.9065C35.6923 49.9363 35.2166 49.909 34.7409 49.9263C33.8464 49.9561 33.2592 50.4863 33.2518 51.2544C33.2443 52.0448 33.8539 52.5899 34.7756 52.6073C35.2513 52.6147 35.7246 52.5998 36.2003 52.6122C36.7825 52.6296 37.1765 52.9888 37.1963 53.4993C37.2162 54.032 36.8148 54.4334 36.2077 54.4631C35.898 54.4805 35.5883 54.4557 35.2786 54.4755C34.5377 54.5226 33.9876 55.0999 33.9926 55.8011C33.9976 56.4849 34.5105 57.0573 35.2315 57.0994C35.9723 57.1416 36.7181 57.1143 37.459 57.1267C38.2023 57.1416 38.5963 57.4686 38.5963 58.0583C38.5963 58.6505 38.2122 58.9676 37.459 58.9899C37.1716 58.9999 36.8792 58.9825 36.5942 59.0197C35.8683 59.1114 35.4024 59.6639 35.4272 60.375C35.4495 61.049 35.9401 61.5718 36.6314 61.6461C36.8148 61.6659 37.0031 61.656 37.1889 61.656C42.0824 61.656 46.9735 61.6461 51.8671 61.6634C53.4925 61.6684 55.0113 61.324 56.4385 60.5385C56.6962 60.3973 57.0208 60.3131 57.3156 60.3106C58.8221 60.2883 60.3286 60.2957 61.8375 60.3007C62.5809 60.3032 62.9847 60.6253 62.9996 61.2075C63.0145 61.8171 62.6032 62.154 61.8276 62.159C61.2701 62.1639 60.7126 62.1763 60.1551 62.1565C58.5867 62.0995 57.0926 62.2333 55.5911 62.8825C54.5133 63.3483 53.2274 63.4771 52.0306 63.492C47.0355 63.554 42.0403 63.5218 37.0427 63.5168C34.3023 63.5118 32.8429 61.2695 33.953 58.7323Z" fill="black"/>
<path d="M45.1845 43.4719C45.4025 43.5487 45.6552 43.5611 45.7692 43.6924C45.9699 43.9253 46.2251 44.2474 46.1979 44.5051C46.1681 44.7925 45.8981 45.1122 45.6453 45.3005C45.4595 45.4368 45.1324 45.412 44.8698 45.412C40.1621 45.4169 35.4543 45.4169 30.7466 45.4169C30.6649 45.4169 30.5806 45.4194 30.4989 45.4169C29.7877 45.3922 29.3715 45.0254 29.3913 44.4432C29.4111 43.8857 29.81 43.5586 30.5063 43.5561C34.4905 43.5512 38.4772 43.5537 42.4614 43.5537C42.7067 43.5537 42.9495 43.5537 43.2642 43.5537C43.2766 43.2737 43.2989 43.0358 43.2989 42.798C43.3014 40.2384 43.2766 37.6765 43.3088 35.1169C43.341 32.4955 45.7097 30.7586 48.1033 31.5564C49.5552 32.0396 50.5537 33.38 50.5785 34.9212C50.5983 36.222 50.5959 37.5228 50.5785 38.8236C50.5736 39.1978 50.6603 39.4084 51.0319 39.5769C52.8209 40.3822 54.2654 41.6161 55.4349 43.187C55.5761 43.3777 55.8933 43.5314 56.1336 43.5363C58.0316 43.5636 59.932 43.5487 61.8325 43.5537C62.5906 43.5561 62.9797 43.8609 62.9945 44.4481C63.0094 45.0577 62.5931 45.412 61.8225 45.4145C59.6966 45.4194 57.5682 45.407 55.4423 45.4219C54.8873 45.4268 54.5132 45.2088 54.2183 44.7455C53.086 42.964 51.5275 41.6904 49.5403 40.9619C48.9531 40.7464 48.7128 40.3598 48.7202 39.7379C48.74 38.1893 48.7351 36.6408 48.7227 35.0922C48.7153 34.0391 48.0165 33.2859 47.0353 33.2462C46.0665 33.2041 45.2266 33.8607 45.2092 34.8716C45.1523 37.7334 45.1845 40.6002 45.1845 43.4719Z" fill="black"/>
<path d="M19.6939 20.0471C19.6939 20.7879 19.6939 21.4446 19.6939 22.1012C19.6939 24.2271 19.7187 26.3554 19.6865 28.4814C19.6469 31.0805 17.3277 32.8125 14.9491 32.0592C13.455 31.586 12.4391 30.2455 12.4143 28.6771C12.3945 27.3763 12.3945 26.0755 12.4168 24.7746C12.4218 24.4005 12.3326 24.1825 11.9658 24.0189C10.172 23.2186 8.73486 21.9822 7.56289 20.4113C7.42166 20.223 7.10203 20.0669 6.86416 20.0644C4.96621 20.0372 3.06578 20.0521 1.16534 20.0471C0.404675 20.0446 0.0181469 19.7399 0.00575816 19.1526C-0.00910833 18.5431 0.404676 18.1913 1.17773 18.1888C3.30364 18.1838 5.43202 18.1962 7.55793 18.1814C8.11295 18.1764 8.48709 18.392 8.78194 18.8578C9.91427 20.6418 11.4802 21.9054 13.4599 22.6413C14.0472 22.8593 14.2875 23.2459 14.2801 23.8653C14.2602 25.3718 14.2702 26.8807 14.2751 28.3872C14.2801 29.5691 14.9813 30.3545 16.0269 30.3644C17.07 30.3744 17.8232 29.5864 17.8282 28.4244C17.8406 25.7806 17.8332 23.1393 17.8307 20.4956C17.8307 20.3742 17.8133 20.2528 17.8009 20.109C17.6473 20.0719 17.4565 20.0843 17.3872 19.9975C17.1542 19.7151 16.8445 19.4178 16.7875 19.0882C16.7132 18.6397 17.0576 18.33 17.5086 18.226C17.7068 18.1814 17.9174 18.1888 18.123 18.1888C22.8308 18.1863 27.5385 18.1863 32.2462 18.1913C32.4915 18.1913 32.7492 18.1987 32.9771 18.2706C33.4256 18.4118 33.6437 18.7587 33.5941 19.2245C33.5446 19.6854 33.2646 19.9728 32.7987 20.0372C32.5956 20.0644 32.3874 20.0521 32.1793 20.0521C28.2769 20.0521 24.3744 20.0521 20.472 20.0521C20.2465 20.0471 20.0235 20.0471 19.6939 20.0471Z" fill="black"/>
<path d="M39.7857 32.7553C39.5527 34.3163 39.0076 35.7014 38.0388 36.9006C36.7578 38.4839 35.1225 39.4973 33.1106 39.8516C32.677 39.9284 32.5358 40.087 32.5333 40.5231C32.5283 41.1425 32.1715 41.4869 31.6438 41.4993C31.0888 41.5142 30.7072 41.1623 30.7047 40.5107C30.7022 40.0597 30.5387 39.9235 30.1175 39.8491C26.7998 39.2718 24.1461 36.6058 23.5614 33.2682C23.492 32.8792 23.3755 32.7058 22.9444 32.7083C22.2779 32.7083 21.9236 32.3564 21.9161 31.8088C21.9087 31.2563 22.2581 30.8797 22.9147 30.8772C23.3755 30.8747 23.4945 30.6914 23.5663 30.2801C24.1337 27.0243 26.78 24.3508 30.0382 23.7537C30.4916 23.6719 30.7196 23.5604 30.7097 23.0376C30.6997 22.433 31.0912 22.0862 31.6239 22.0886C32.1542 22.0911 32.5333 22.4355 32.5308 23.045C32.5308 23.5183 32.6968 23.6694 33.1502 23.7438C36.3961 24.2814 39.0944 26.9971 39.6766 30.285C39.741 30.6493 39.8154 30.8673 40.2713 30.8698C40.9774 30.8747 41.3367 31.2439 41.3243 31.8138C41.3119 32.3738 40.9428 32.6761 40.2242 32.7182C40.1028 32.7306 39.9789 32.7405 39.7857 32.7553ZM37.9571 31.851C37.9818 28.335 35.1969 25.4931 31.6908 25.4609C28.1724 25.4286 25.3255 28.2062 25.2834 31.7097C25.2437 35.2504 28.0486 38.1147 31.5793 38.1345C35.0903 38.1544 37.9298 35.3545 37.9571 31.851Z" fill="black"/>
<path d="M57.7448 31.7395C57.7027 34.2742 57.3558 36.7569 56.6397 39.1876C56.4043 39.9879 55.9781 40.3422 55.4157 40.1961C54.8062 40.0375 54.608 39.5097 54.8433 38.6822C56.553 32.6563 56.1739 26.7617 53.3592 21.167C49.6153 13.7263 43.5547 9.28368 35.3162 7.87136C34.7686 7.77721 34.2136 7.72022 33.6611 7.6558C32.9847 7.57651 32.5932 7.2098 32.6254 6.66718C32.6601 6.09234 33.1308 5.73802 33.8197 5.79996C37.9327 6.16915 41.7881 7.3659 45.2792 9.58101C52.1946 13.9691 56.2656 20.2428 57.4722 28.3475C57.6358 29.4674 57.6556 30.6072 57.7448 31.7395Z" fill="black"/>
<path d="M5.49365 31.8115C5.54569 29.3188 5.87275 26.8758 6.58386 24.4848C6.80934 23.729 7.2256 23.4218 7.80787 23.5928C8.38518 23.7637 8.57101 24.237 8.36536 25.0026C6.4352 32.141 7.31975 38.8953 11.4056 45.0798C15.5533 51.3534 21.4603 54.9239 28.9406 55.853C29.1239 55.8753 29.3098 55.9026 29.4906 55.9348C30.068 56.0364 30.4173 56.4403 30.3628 56.9408C30.3058 57.4735 29.845 57.8328 29.2553 57.7733C26.8221 57.533 24.436 57.0473 22.1813 56.0983C12.8749 52.1835 7.39408 45.2285 5.77364 35.2605C5.58781 34.1281 5.58037 32.9636 5.49365 31.8115Z" fill="black"/>
<path d="M49.4759 28.7267C49.4636 29.252 49.2133 29.5915 48.6955 29.6881C48.1801 29.7847 47.7737 29.4676 47.6251 28.8928C47.4021 28.0379 47.2286 27.1633 46.9412 26.3332C46.1954 24.185 45.0185 22.2871 43.4501 20.6369C43.3361 20.518 43.2147 20.399 43.1329 20.2603C42.8876 19.8391 42.905 19.4253 43.2741 19.0834C43.6409 18.7439 44.0497 18.734 44.4536 19.0264C44.57 19.1106 44.6666 19.2196 44.7657 19.3237C47.1964 21.8857 48.7351 24.9061 49.4264 28.365C49.4512 28.4839 49.4586 28.6078 49.4759 28.7267Z" fill="black"/>
<path d="M14.7236 33.9449C15.2142 33.9994 15.5313 34.272 15.6205 34.7502C16.2152 37.9192 17.6374 40.6596 19.8302 43.0134C20.2267 43.4396 20.1994 43.9897 19.8327 44.3465C19.4536 44.7132 18.8763 44.6934 18.4575 44.2523C16.0071 41.6705 14.4609 38.6204 13.7969 35.1268C13.6705 34.4553 14.1165 33.9226 14.7236 33.9449Z" fill="black"/>
<path d="M37.9563 31.8511C37.9315 35.3547 35.0896 38.152 31.5786 38.1322C28.0478 38.1124 25.243 35.2481 25.2826 31.7074C25.3223 28.2039 28.1717 25.4263 31.6901 25.4585C35.1961 25.4932 37.9811 28.3352 37.9563 31.8511ZM27.7579 31.7768C27.7505 33.9225 29.4477 35.6445 31.5836 35.6569C33.7342 35.6693 35.4588 33.982 35.4786 31.8462C35.4984 29.6657 33.7937 27.9388 31.6232 27.9363C29.4775 27.9338 27.7653 29.636 27.7579 31.7768Z" fill="#F8AEAE"/>
<path d="M27.7588 31.7768C27.7662 29.636 29.4759 27.9338 31.6216 27.9363C33.7921 27.9388 35.4968 29.6658 35.477 31.8462C35.4572 33.982 33.7351 35.6693 31.582 35.6569C29.4486 35.6446 27.7514 33.9225 27.7588 31.7768ZM31.6315 29.7995C30.5042 29.7946 29.627 30.6593 29.6221 31.7842C29.6171 32.9091 30.4843 33.7887 31.6068 33.7962C32.7292 33.8011 33.6113 32.9314 33.6162 31.8115C33.6212 30.6841 32.754 29.8045 31.6315 29.7995Z" fill="black"/>
<path d="M31.6315 29.7997C32.754 29.8047 33.6212 30.6843 33.6162 31.8092C33.6113 32.9291 32.7292 33.8013 31.6068 33.7938C30.4843 33.7889 29.6171 32.9093 29.6221 31.7819C29.627 30.6595 30.5042 29.7947 31.6315 29.7997Z" fill="#E03F3F"/>
</svg>
