<svg width="96" height="92" viewBox="0 0 96 92" fill="none" xmlns="http://www.w3.org/2000/svg">
<path d="M95.3228 91.0755C94.9861 91.7071 94.4667 91.8783 93.7552 91.8764C76.6093 91.8574 59.4634 91.8612 42.3156 91.8631C41.0734 91.8631 40.7633 91.5245 40.7671 90.3013C40.7842 84.4382 40.7557 78.5733 40.7918 72.7102C40.826 67.123 43.1184 62.6658 47.7031 59.4546C50.3416 57.6055 53.315 56.7266 56.5433 56.7266C57.6124 56.7266 58.6796 56.7266 59.842 56.7266C59.842 55.18 59.8648 53.7589 59.8211 52.3398C59.8134 52.0697 59.5909 51.7577 59.3835 51.5465C56.511 48.634 55.1926 45.0424 54.8007 41.0569C54.6942 39.9726 54.4526 39.0024 53.8762 38.0341C50.7012 32.7056 51.2205 26.7398 55.438 21.7157C59.4006 16.996 64.4438 14.2737 70.7425 14.3802C75.6334 14.4639 79.3202 17.4278 80.8383 22.2978C80.9486 22.6497 81.0551 23.0721 81.3082 23.3004C84.116 25.8267 84.5992 29.0588 83.9981 32.5287C83.6994 34.2617 83.2371 36.0157 82.5199 37.6118C81.8047 39.2021 81.7324 40.8496 81.4527 42.4875C80.8269 46.1457 79.3868 49.3816 76.6246 51.9536C76.4191 52.1458 76.2422 52.4806 76.2346 52.7564C76.1927 54.0215 76.2155 55.2865 76.2155 56.7285C76.7596 56.7285 77.2504 56.7475 77.7393 56.7247C80.3589 56.6049 82.9423 56.8027 85.3697 57.8604C91.0634 60.3411 94.3621 64.6575 95.1592 70.8459C95.1877 71.0609 95.2657 71.2701 95.3209 71.4813C95.3228 78.0121 95.3228 84.5447 95.3228 91.0755ZM84.9531 89.6469C84.9531 89.2455 84.9531 88.8745 84.9531 88.5054C84.9531 83.371 84.9531 78.2346 84.955 73.1002C84.955 72.7521 84.8675 72.3335 85.0272 72.0748C85.2479 71.721 85.6588 71.2739 85.9994 71.2644C86.3494 71.2549 86.785 71.6658 87.0457 72.0006C87.2054 72.2061 87.1255 72.6113 87.1255 72.9252C87.1294 78.1547 87.1274 83.3862 87.1274 88.6158C87.1274 88.9544 87.1274 89.2911 87.1274 89.6602C89.1573 89.6602 91.071 89.6602 93.0019 89.6602C93.0305 89.4833 93.0685 89.3615 93.0685 89.2398C93.0628 83.312 93.1598 77.3824 93.0152 71.4585C92.8707 65.5098 87.8751 60.0805 81.9626 59.097C81.2682 58.9809 80.8972 59.1103 80.5377 59.7533C78.7286 62.9854 76.8623 66.187 75.0171 69.4001C74.0259 71.1255 73.8167 71.1712 72.2206 70.0127C72.1788 69.9822 72.1027 70.0013 71.8839 69.986C71.7241 71.1484 71.3132 72.3507 71.4425 73.4921C72.0247 78.6532 72.7704 83.7933 73.421 88.9468C73.4971 89.5536 73.693 89.7382 74.2961 89.7344C77.6233 89.7096 80.9524 89.723 84.2815 89.7191C84.4661 89.7172 84.6487 89.6792 84.9531 89.6469ZM48.9244 89.6754C48.9244 89.2493 48.9244 88.9049 48.9244 88.5606C48.9244 83.3615 48.9244 78.1623 48.9263 72.9613C48.9263 72.676 48.8312 72.3069 48.9719 72.1243C49.2497 71.7628 49.6587 71.272 50.0182 71.2682C50.3664 71.2644 50.7868 71.759 51.0436 72.1281C51.1958 72.3469 51.1064 72.7425 51.1064 73.0583C51.1083 78.227 51.1064 83.3938 51.1102 88.5625C51.1102 88.9278 51.1482 89.2911 51.1711 89.7172C54.854 89.7172 58.4323 89.7287 62.0088 89.6849C62.2085 89.683 62.5395 89.2264 62.5795 88.9487C63.1673 84.7141 63.7171 80.4718 64.2764 76.2334C64.5522 74.1446 64.9593 72.0501 63.9435 70.0108C63.8826 70.0355 63.7875 70.0526 63.7171 70.104C62.2922 71.1484 61.9536 71.0799 61.0842 69.5694C59.2542 66.3849 57.367 63.2289 55.6264 59.9968C55.1108 59.0399 54.5534 58.979 53.6707 59.1769C47.4196 60.5827 43.029 65.9549 42.9871 72.3602C42.951 77.8447 42.9776 83.3291 42.9814 88.8155C42.9814 89.0895 43.0195 89.3653 43.0423 89.6773C44.996 89.6754 46.885 89.6754 48.9244 89.6754ZM77.1382 29.1368C76.8719 29.2528 76.636 29.3403 76.4153 29.4545C73.7805 30.8089 70.9879 31.4576 68.0563 30.9307C66.2624 30.6092 64.5256 29.9795 62.7659 29.4754C61.8566 29.2148 60.9625 28.8933 60.0455 28.665C59.5148 28.5337 59.1628 28.7049 59.1381 29.3879C59.0259 32.5857 58.2478 35.639 57.0722 38.6048C56.9466 38.9187 56.861 39.2782 56.8724 39.613C56.9808 42.6416 57.6733 45.5141 59.3778 48.0576C61.3353 50.9777 64.0234 52.8173 67.5979 53.0151C72.1959 53.27 76.1642 50.6106 78.1579 46.0734C79.8985 42.1127 79.8548 38.0132 79.0386 33.866C78.7076 32.1863 78.2225 30.5578 77.1382 29.1368ZM55.5046 36.535C56.4368 33.9611 56.9105 31.4957 56.9751 28.9446C57.0056 27.7081 57.6847 26.7893 58.8965 26.5933C59.6803 26.4678 60.5497 26.5153 61.3144 26.7265C62.8363 27.1469 64.303 27.7557 65.8078 28.2446C69.2662 29.3651 72.6106 29.1235 75.8122 27.341C77.4844 26.4107 77.9201 26.4792 79.0177 28.0372C79.5237 28.7544 79.9613 29.5477 80.2733 30.3676C80.7203 31.5394 81.0228 32.7665 81.466 34.2294C81.6525 33.2972 81.8503 32.5762 81.9302 31.8438C82.1984 29.4107 82.0558 27.0385 80.1344 25.235C79.402 24.5483 79.0025 23.8007 78.7152 22.8647C77.4312 18.6814 74.2732 16.4329 69.894 16.4899C63.8502 16.5679 57.1597 21.1164 54.894 26.7094C53.5661 29.9909 53.7963 33.1983 55.5046 36.535ZM66.757 73.8478C66.0608 79.1687 65.3778 84.3945 64.6892 89.6602C66.9492 89.6602 69.116 89.6602 71.3474 89.6602C70.6531 84.364 69.9682 79.1345 69.2815 73.8992C68.9581 73.8763 68.7393 73.8516 68.5186 73.8497C67.9841 73.844 67.4476 73.8478 66.757 73.8478ZM74.0316 53.7894C69.9264 55.7869 65.9828 55.6575 62.0202 53.5972C62.0202 54.8224 62.0069 55.8953 62.0316 56.9701C62.0373 57.2022 62.1115 57.499 62.2675 57.6493C64.2174 59.5421 66.1882 61.414 67.9384 63.0843C69.778 61.3588 71.7659 59.506 73.7311 57.6302C73.908 57.4609 74.0107 57.1375 74.0202 56.8807C74.0526 55.901 74.0316 54.9232 74.0316 53.7894ZM66.6201 64.8059C64.8737 63.1661 63.1159 61.7679 61.6816 60.0938C60.4698 58.6803 59.1058 58.8744 57.4869 58.9638C59.2618 62.0551 60.9701 65.0323 62.7202 68.0818C63.9701 67.0317 65.1496 66.0405 66.6201 64.8059ZM78.5592 58.9029C77.6651 58.9029 76.9689 58.8763 76.2764 58.9143C75.9492 58.9314 75.5288 58.9714 75.3233 59.175C73.421 61.064 71.5567 62.9911 69.6353 64.9562C70.8756 65.993 72.0589 66.9803 73.3164 68.0304C75.0646 64.9847 76.7577 62.0361 78.5592 58.9029ZM69.3709 71.6316C69.5935 70.65 69.8293 69.7064 70.0063 68.7495C70.05 68.5117 69.9853 68.1522 69.8255 67.9962C69.2701 67.4559 68.6499 66.9822 68.18 66.5884C66.0703 67.4217 65.6499 68.8294 66.4298 70.7013C66.5478 70.9848 66.5953 71.2987 66.6828 71.6297C67.5808 71.6316 68.4539 71.6316 69.3709 71.6316Z" fill="black"/>
<path d="M47.5737 0.333252C49.729 1.12273 50.2065 1.81328 50.2084 4.13796C50.2084 10.6326 50.159 17.1272 50.2351 23.62C50.2617 25.9332 48.8007 27.3714 46.7081 27.1907C45.5381 27.0899 45.3004 27.5407 45.7664 28.6308C45.9148 28.9808 46.0803 29.3232 46.2211 29.6752C46.7671 31.0373 46.4513 32.4069 45.4183 33.1964C44.3435 34.0201 42.9928 34.0239 41.8133 33.1279C39.4696 31.3454 37.1659 29.5078 34.8051 27.7481C34.3637 27.419 33.7283 27.1964 33.1804 27.1926C27.89 27.1526 22.5996 27.1698 17.3091 27.166C15.091 27.1641 13.9781 26.0645 13.9762 23.8368C13.9686 17.2794 13.9724 10.722 13.9724 4.16459C13.9705 1.81519 14.4327 1.13414 16.5653 0.333252C26.9008 0.333252 37.2382 0.333252 47.5737 0.333252ZM32.1246 2.58183C27.2736 2.58183 22.4245 2.57993 17.5735 2.58183C16.2134 2.58183 16.1601 2.6351 16.1601 3.96485C16.1582 10.4956 16.1582 17.0264 16.1601 23.5572C16.1601 24.9402 16.2457 25.0296 17.5983 25.0296C22.8602 25.0315 28.124 25.0429 33.3859 25.0182C34.3865 25.0144 35.2255 25.2769 36.0112 25.9066C37.9173 27.4304 39.8615 28.9047 41.7924 30.3981C42.2433 30.7462 42.6694 31.1476 43.1659 31.412C43.4132 31.5433 43.866 31.53 44.0943 31.3816C44.2541 31.2769 44.2712 30.8166 44.2141 30.5445C44.138 30.1812 43.9535 29.8312 43.7747 29.4982C42.5001 27.126 44.2636 24.7557 46.6643 24.9954C47.8723 25.1152 48.015 24.8755 48.015 23.6371C48.0169 17.074 48.0169 10.5127 48.015 3.94963C48.015 2.66934 47.9313 2.58564 46.6758 2.58374C41.8247 2.57993 36.9756 2.58183 32.1246 2.58183Z" fill="#212121"/>
<path d="M35.0467 87.0673C35.0467 88.1459 35.0581 89.3101 35.0429 90.4744C35.0295 91.5055 34.6966 91.8536 33.6789 91.8555C24.1043 91.8612 14.5298 91.8612 4.95712 91.8555C3.98121 91.8555 3.63879 91.5074 3.62547 90.5467C3.61025 89.3767 3.62167 88.2049 3.62167 86.8827C2.83409 86.8827 2.08837 86.8961 1.34455 86.8789C0.385763 86.8561 0.0224137 86.5004 0.0109996 85.553C-0.00421926 84.286 -0.00231691 83.0172 0.00909722 81.7483C0.0338278 78.5999 2.22534 76.3551 5.35662 76.26C5.60773 76.2524 5.85884 76.2372 6.24882 76.2181C6.24882 74.7514 6.24692 73.3056 6.24882 71.8598C6.25072 70.239 6.43906 69.9328 8.05225 70.104C9.59316 70.2676 10.2932 69.6322 10.883 68.312C12.2279 65.3043 13.3313 62.2701 13.1696 58.9048C13.0688 56.7761 12.3535 54.8319 11.5469 52.8915C10.7973 51.088 9.72632 49.2656 9.58935 47.3937C9.27737 43.1685 9.37058 38.9054 9.46951 34.6631C9.52277 32.4012 11.3585 30.8165 13.6281 30.7956C17.4328 30.7633 21.2375 30.7633 25.0403 30.7956C27.3022 30.8146 29.1646 32.4031 29.214 34.6574C29.3092 38.9948 29.292 43.3416 29.098 47.6752C29.0333 49.1077 28.3675 50.5421 27.8272 51.9175C26.8799 54.3315 25.7232 56.6619 25.6357 59.3385C25.5121 63.128 26.8989 66.461 28.6567 69.6893C28.7537 69.8681 29.0371 69.9765 29.2559 70.0507C29.4271 70.1097 29.6326 70.0659 29.8228 70.0659C32.4081 70.0754 32.4081 70.0754 32.4081 72.7026C32.4081 73.8402 32.4081 74.9759 32.4081 76.1744C33.0891 76.2467 33.715 76.2695 34.3219 76.3836C36.8273 76.8554 38.5831 78.9195 38.6364 81.4534C38.6649 82.8155 38.6573 84.1795 38.6402 85.5435C38.6288 86.487 38.2559 86.8485 37.3105 86.8808C36.6142 86.9037 35.9179 86.9113 35.2217 86.9303C35.1988 86.9303 35.176 86.9645 35.0467 87.0673ZM26.1646 70.0069C26.1741 69.8909 26.2007 69.8224 26.1798 69.7749C25.9838 69.343 25.7727 68.9169 25.5786 68.4851C24.072 65.1141 22.9211 61.6176 23.6611 57.9099C24.1386 55.5186 25.2058 53.2472 25.9249 50.8978C26.3833 49.4006 26.9426 47.8673 27.0111 46.3302C27.1709 42.6929 27.0682 39.0442 27.0606 35.3993C27.0568 33.7271 26.3567 33.0252 24.6883 33.0214C21.1081 33.0119 17.526 33.0119 13.9457 33.0214C12.285 33.0252 11.5868 33.7309 11.5792 35.405C11.5678 37.8762 11.701 40.3569 11.545 42.8185C11.33 46.2066 12.0586 49.2884 13.5482 52.336C14.4175 54.1166 14.9255 56.154 15.1956 58.1306C15.7149 61.9543 14.5602 65.5212 12.9432 68.9492C12.791 69.2726 12.654 69.6036 12.4771 70.0069C17.1417 70.0069 21.6541 70.0069 26.1646 70.0069ZM2.18729 84.6418C13.6281 84.6418 25.0117 84.6418 36.4297 84.6418C36.4297 83.4357 36.5229 82.2924 36.4068 81.17C36.2451 79.591 35.0714 78.5485 33.4677 78.4667C32.2997 78.4077 31.1259 78.4382 29.9541 78.4382C22.8526 78.4363 15.7511 78.4363 8.65149 78.4382C7.47964 78.4382 6.30589 78.4058 5.13784 78.4686C3.54748 78.5523 2.36992 79.6119 2.21012 81.1909C2.09598 82.3114 2.18729 83.4528 2.18729 84.6418ZM8.43462 76.1877C15.7397 76.1877 22.9743 76.1877 30.188 76.1877C30.188 74.8313 30.188 73.551 30.188 72.2841C22.902 72.2841 15.6902 72.2841 8.43462 72.2841C8.43462 73.5948 8.43462 74.8503 8.43462 76.1877ZM32.878 86.936C23.8133 86.936 14.8399 86.936 5.84362 86.936C5.84362 87.8834 5.84362 88.7756 5.84362 89.6469C14.8988 89.6469 23.8741 89.6469 32.878 89.6469C32.878 88.7242 32.878 87.8777 32.878 86.936Z" fill="black"/>
<path d="M84.953 89.6469C84.6486 89.6792 84.4641 89.7173 84.2815 89.7173C80.9524 89.7211 77.6252 89.7078 74.296 89.7325C73.693 89.7363 73.497 89.5518 73.421 88.9449C72.7703 83.7914 72.0246 78.6494 71.4425 73.4902C71.3131 72.3488 71.7241 71.1465 71.8838 69.9842C72.1007 69.9994 72.1787 69.9804 72.2206 70.0108C73.8166 71.1693 74.0259 71.1256 75.017 69.3982C76.8623 66.1852 78.7285 62.9854 80.5377 59.7514C80.8972 59.1084 81.2682 58.9809 81.9625 59.0951C87.875 60.0767 92.8706 65.506 93.0152 71.4566C93.1579 77.3805 93.0628 83.3102 93.0685 89.2379C93.0685 89.3596 93.0304 89.4814 93.0019 89.6583C91.071 89.6583 89.1572 89.6583 87.1274 89.6583C87.1274 89.2892 87.1274 88.9525 87.1274 88.6139C87.1274 83.3843 87.1293 78.1529 87.1255 72.9233C87.1255 72.6075 87.2054 72.2023 87.0456 71.9988C86.785 71.6639 86.3494 71.253 85.9993 71.2625C85.6588 71.2721 85.2479 71.7191 85.0272 72.0729C84.8674 72.3317 84.9549 72.7502 84.9549 73.0983C84.9511 78.2328 84.953 83.3691 84.953 88.5036C84.953 88.8745 84.953 89.2455 84.953 89.6469Z" fill="white"/>
<path d="M48.9244 89.6754C46.8851 89.6754 44.996 89.6754 43.0423 89.6754C43.0195 89.3634 42.9814 89.0876 42.9814 88.8137C42.9776 83.3292 42.951 77.8447 42.9872 72.3583C43.029 65.9531 47.4215 60.5808 53.6708 59.175C54.5535 58.9771 55.1128 59.038 55.6264 59.9949C57.369 63.227 59.2542 66.383 61.0842 69.5675C61.9536 71.078 62.2922 71.1465 63.7171 70.1021C63.7875 70.0507 63.8826 70.0317 63.9435 70.0089C64.9593 72.0482 64.5522 74.1427 64.2764 76.2315C63.7171 80.4718 63.1673 84.7122 62.5795 88.9468C62.5415 89.2246 62.2104 89.6811 62.0088 89.683C58.4324 89.7287 54.854 89.7154 51.1711 89.7154C51.1483 89.2893 51.1102 88.9259 51.1102 88.5606C51.1064 83.392 51.1083 78.2252 51.1064 73.0565C51.1064 72.7407 51.1958 72.345 51.0436 72.1262C50.7868 71.7591 50.3664 71.2644 50.0183 71.2663C49.6587 71.2702 49.2497 71.761 48.972 72.1224C48.8312 72.305 48.9263 72.6741 48.9263 72.9594C48.9244 78.1586 48.9244 83.3577 48.9244 88.5587C48.9244 88.9069 48.9244 89.2493 48.9244 89.6754Z" fill="white"/>
<path d="M77.1381 29.1368C78.2206 30.5578 78.7076 32.1863 79.0386 33.866C79.8566 38.0132 79.8984 42.1127 78.1578 46.0735C76.1641 50.6106 72.1958 53.2682 67.5978 53.0151C64.0233 52.8173 61.3353 50.9777 59.3777 48.0576C57.6732 45.5142 56.9808 42.6416 56.8723 39.6131C56.8609 39.2782 56.9465 38.9187 57.0721 38.6048C58.2496 35.6409 59.0258 32.5858 59.138 29.3879C59.1628 28.705 59.5147 28.5318 60.0455 28.665C60.9624 28.8914 61.8565 29.2148 62.7658 29.4754C64.5255 29.9795 66.2643 30.6092 68.0563 30.9307C70.9878 31.4558 73.7805 30.809 76.4152 29.4545C76.6378 29.3403 76.8718 29.2528 77.1381 29.1368Z" fill="white"/>
<path d="M55.5046 36.5351C53.7962 33.1983 53.5661 29.991 54.8939 26.7094C57.1577 21.1146 63.8502 16.566 69.894 16.4899C74.2751 16.4348 77.4311 18.6815 78.7152 22.8647C79.0024 23.8007 79.4038 24.5483 80.1343 25.2351C82.0557 27.0404 82.1984 29.4107 81.9302 31.8438C81.8503 32.5763 81.6505 33.2953 81.466 34.2294C81.0227 32.7684 80.7203 31.5414 80.2732 30.3676C79.9612 29.5496 79.5237 28.7563 79.0177 28.0372C77.92 26.4792 77.4825 26.4107 75.8122 27.341C72.6086 29.1216 69.2662 29.3651 65.8077 28.2446C64.3029 27.7576 62.8362 27.1469 61.3143 26.7265C60.5496 26.5154 59.6783 26.4678 58.8965 26.5933C57.6847 26.7893 57.0055 27.7062 56.9751 28.9447C56.9123 31.4957 56.4367 33.9612 55.5046 36.5351Z" fill="#3A3838"/>
<path d="M66.757 73.8478C67.4476 73.8478 67.984 73.844 68.5205 73.8497C68.7393 73.8516 68.958 73.8782 69.2833 73.8992C69.9701 79.1344 70.6549 84.364 71.3493 89.6602C69.1178 89.6602 66.9511 89.6602 64.6911 89.6602C65.3778 84.3925 66.0627 79.1687 66.757 73.8478Z" fill="#BE202E"/>
<path d="M74.0316 53.7894C74.0316 54.9232 74.0506 55.9029 74.0183 56.8789C74.0087 57.1357 73.9079 57.4591 73.7291 57.6284C71.764 59.5041 69.776 61.357 67.9364 63.0824C66.1863 61.4122 64.2154 59.5403 62.2655 57.6474C62.1095 57.4971 62.0353 57.2004 62.0296 56.9683C62.0049 55.8953 62.0182 54.8205 62.0182 53.5954C65.9827 55.6575 69.9263 55.7869 74.0316 53.7894Z" fill="white"/>
<path d="M66.62 64.806C65.1476 66.0425 63.97 67.0336 62.7202 68.0818C60.97 65.0323 59.2617 62.0552 57.4868 58.9638C59.1057 58.8725 60.4697 58.6785 61.6815 60.0938C63.1178 61.766 64.8736 63.1642 66.62 64.806Z" fill="white"/>
<path d="M78.5592 58.903C76.7596 62.0362 75.0646 64.9867 73.3163 68.0305C72.0589 66.9804 70.8775 65.9931 69.6353 64.9563C71.5566 62.993 73.421 61.0641 75.3233 59.175C75.5288 58.9715 75.9492 58.9315 76.2764 58.9144C76.9688 58.8764 77.6632 58.903 78.5592 58.903Z" fill="white"/>
<path d="M69.3709 71.6316C68.4521 71.6316 67.5808 71.6316 66.6829 71.6316C66.5954 71.3006 66.5478 70.9867 66.4299 70.7032C65.6499 68.8332 66.0703 67.4236 68.18 66.5903C68.6499 66.9841 69.2682 67.4578 69.8255 67.9981C69.9853 68.1541 70.0519 68.5136 70.0063 68.7514C69.8294 69.7064 69.5935 70.65 69.3709 71.6316Z" fill="#BE202E"/>
<path d="M32.1247 2.58178C36.9757 2.58178 41.8248 2.57988 46.6758 2.58368C47.9313 2.58368 48.0131 2.66929 48.0151 3.94957C48.017 10.5127 48.017 17.0739 48.0151 23.637C48.0151 24.8736 47.8705 25.1152 46.6644 24.9953C44.2636 24.7575 42.5001 27.1279 43.7747 29.4982C43.9535 29.8311 44.14 30.1811 44.2141 30.5445C44.2712 30.8165 44.256 31.2769 44.0943 31.3815C43.866 31.5299 43.4133 31.5451 43.166 31.412C42.6694 31.1475 42.2433 30.748 41.7925 30.398C39.8616 28.9047 37.9174 27.4303 36.0112 25.9065C35.2255 25.2788 34.3866 25.0143 33.386 25.0181C28.124 25.0429 22.8602 25.0296 17.5983 25.0296C16.2457 25.0296 16.1601 24.9421 16.1601 23.5571C16.1601 17.0264 16.1582 10.4956 16.1601 3.96479C16.1601 2.63504 16.2134 2.58178 17.5736 2.58178C22.4246 2.57988 27.2737 2.58178 32.1247 2.58178ZM32.0695 17.4696C28.0441 17.4696 24.0188 17.4734 19.9934 17.4658C19.2267 17.4639 18.5685 17.6104 18.481 18.5216C18.4106 19.2483 18.9585 19.6326 20.0048 19.6535C20.0999 19.6554 20.195 19.6535 20.2901 19.6535C28.1507 19.6535 36.0131 19.6535 43.8736 19.6516C44.1894 19.6516 44.5813 19.7334 44.8039 19.5812C45.1539 19.3434 45.601 18.9458 45.6124 18.6034C45.6238 18.2553 45.2129 17.8215 44.88 17.559C44.6745 17.3973 44.2712 17.4715 43.9573 17.4715C39.9928 17.4677 36.0321 17.4696 32.0695 17.4696ZM31.9706 10.0828C35.9313 10.0828 39.892 10.0828 43.8546 10.0828C44.14 10.0828 44.4957 10.1798 44.6935 10.0466C45.0683 9.79551 45.5287 9.45308 45.6295 9.065C45.7855 8.47147 45.3384 8.06817 44.7278 7.96164C44.4805 7.91788 44.2218 7.94261 43.9687 7.94261C36.0473 7.94261 28.124 7.94261 20.2026 7.94261C19.9496 7.94261 19.6129 7.84559 19.4588 7.97115C19.086 8.27553 18.5856 8.66361 18.5438 9.0612C18.5114 9.35987 19.0669 9.78409 19.4379 10.0428C19.6319 10.1779 19.9915 10.0809 20.2768 10.0809C24.1748 10.0828 28.0727 10.0828 31.9706 10.0828ZM32.0771 14.8539C36.0074 14.8539 39.9358 14.8539 43.866 14.8539C44.1514 14.8539 44.509 14.9452 44.705 14.8101C45.0759 14.5533 45.5325 14.2071 45.6295 13.8171C45.7798 13.2197 45.3251 12.826 44.7164 12.7194C44.4691 12.6757 44.2103 12.7004 43.9573 12.7004C36.034 12.7004 28.1126 12.7004 20.1893 12.7004C19.9363 12.7004 19.5977 12.6072 19.4455 12.7346C19.0745 13.0447 18.5799 13.4366 18.5419 13.8361C18.5133 14.1367 19.0688 14.5666 19.4474 14.8082C19.6757 14.9547 20.0638 14.8558 20.3815 14.8558C24.2813 14.8558 28.1792 14.8539 32.0771 14.8539Z" fill="#F5CF6D"/>
<path d="M26.1645 70.007C21.654 70.007 17.1417 70.007 12.4733 70.007C12.6502 69.6037 12.7872 69.2727 12.9394 68.9493C14.5564 65.5212 15.7111 61.9543 15.1917 58.1306C14.9235 56.154 14.4156 54.1166 13.5443 52.336C12.0548 49.2884 11.3262 46.2066 11.5411 42.8185C11.6971 40.3569 11.564 37.8762 11.5754 35.4051C11.583 33.731 12.2811 33.0271 13.9419 33.0214C17.5221 33.0119 21.1043 33.0119 24.6845 33.0214C26.3529 33.0252 27.0529 33.7272 27.0567 35.3994C27.0662 39.0443 27.1671 42.693 27.0073 46.3303C26.9407 47.8674 26.3795 49.4007 25.921 50.8978C25.2019 53.2472 24.1347 55.5187 23.6572 57.9099C22.9172 61.6157 24.0681 65.1141 25.5748 68.4851C25.7688 68.9188 25.98 69.3431 26.1759 69.7749C26.1988 69.8225 26.1721 69.8909 26.1645 70.007ZM24.9736 41.2301C24.9679 38.0798 22.4131 35.5363 19.2875 35.5668C16.1829 35.5972 13.6908 38.1064 13.6794 41.2149C13.668 44.3614 16.1943 46.92 19.318 46.9238C22.4435 46.9295 24.9813 44.3766 24.9736 41.2301Z" fill="white"/>
<path d="M2.18728 84.6418C2.18728 83.4547 2.09597 82.3114 2.21011 81.1909C2.36991 79.612 3.54747 78.5523 5.13783 78.4686C6.30588 78.4059 7.47963 78.4382 8.65148 78.4382C15.753 78.4363 22.8545 78.4363 29.954 78.4382C31.1259 78.4382 32.2996 78.4078 33.4677 78.4667C35.0714 78.5485 36.247 79.5891 36.4068 81.17C36.521 82.2924 36.4297 83.4357 36.4297 84.6418C25.0117 84.6418 13.628 84.6418 2.18728 84.6418Z" fill="white"/>
<path d="M8.43456 76.1877C8.43456 74.8503 8.43456 73.5948 8.43456 72.2841C15.6901 72.2841 22.9039 72.2841 30.188 72.2841C30.188 73.551 30.188 74.8332 30.188 76.1877C22.9742 76.1877 15.7396 76.1877 8.43456 76.1877Z" fill="white"/>
<path d="M32.878 86.936C32.878 87.8777 32.878 88.7242 32.878 89.6469C23.8742 89.6469 14.8988 89.6469 5.84364 89.6469C5.84364 88.7775 5.84364 87.8834 5.84364 86.936C14.8399 86.936 23.8152 86.936 32.878 86.936Z" fill="#BE202E"/>
<path d="M32.0695 17.4697C36.0321 17.4697 39.9947 17.4678 43.9554 17.4716C44.2693 17.4716 44.6745 17.3993 44.878 17.5591C45.211 17.8197 45.6219 18.2553 45.6104 18.6035C45.599 18.9459 45.1501 19.3435 44.8019 19.5813C44.5794 19.7335 44.1875 19.6517 43.8717 19.6517C36.0112 19.6536 28.1487 19.6536 20.2882 19.6536C20.1931 19.6536 20.098 19.6555 20.0029 19.6536C18.9547 19.6326 18.4087 19.2484 18.4791 18.5217C18.5666 17.6104 19.2248 17.464 19.9914 17.4659C24.0187 17.4735 28.0441 17.4697 32.0695 17.4697Z" fill="black"/>
<path d="M31.9706 10.0828C28.0727 10.0828 24.1747 10.0828 20.2768 10.0828C19.9915 10.0828 19.6319 10.1798 19.4379 10.0448C19.0669 9.78606 18.5114 9.36183 18.5438 9.06316C18.5875 8.66557 19.0859 8.27939 19.4588 7.97311C19.6129 7.84756 19.9496 7.94458 20.2026 7.94458C28.124 7.94458 36.0473 7.94458 43.9687 7.94458C44.2218 7.94458 44.4805 7.91985 44.7278 7.9636C45.3384 8.07013 45.7855 8.47343 45.6295 9.06697C45.5287 9.45505 45.0664 9.79557 44.6935 10.0486C44.4957 10.1817 44.138 10.0847 43.8546 10.0847C39.892 10.0828 35.9313 10.0828 31.9706 10.0828Z" fill="black"/>
<path d="M32.0771 14.8539C28.1792 14.8539 24.2813 14.8539 20.3834 14.852C20.0676 14.852 19.6776 14.949 19.4493 14.8044C19.0707 14.5629 18.5152 14.1329 18.5438 13.8323C18.5818 13.4329 19.0764 13.041 19.4474 12.7309C19.5996 12.6034 19.9382 12.6966 20.1912 12.6966C28.1145 12.6966 36.0359 12.6966 43.9592 12.6966C44.2122 12.6966 44.471 12.6738 44.7183 12.7157C45.327 12.8222 45.7817 13.216 45.6314 13.8133C45.5325 14.2033 45.0778 14.5495 44.7069 14.8064C44.5109 14.9414 44.1533 14.8501 43.8679 14.8501C39.9358 14.8539 36.0055 14.8539 32.0771 14.8539Z" fill="black"/>
<path d="M24.9737 41.23C24.9794 44.3746 22.4436 46.9295 19.318 46.9238C16.1924 46.9181 13.668 44.3613 13.6794 41.2148C13.6908 38.1083 16.1829 35.5972 19.2876 35.5667C22.4131 35.5363 24.968 38.0797 24.9737 41.23ZM19.3294 37.7659C17.3909 37.764 15.8196 39.322 15.8177 41.2453C15.8158 43.159 17.4023 44.7456 19.3218 44.7475C21.2413 44.7494 22.8297 43.1685 22.8316 41.251C22.8374 39.3258 21.2717 37.7678 19.3294 37.7659Z" fill="black"/>
<path d="M19.3294 37.7659C21.2698 37.7678 22.8354 39.3258 22.8335 41.2529C22.8316 43.1705 21.2431 44.7513 19.3237 44.7494C17.4042 44.7475 15.8157 43.1609 15.8195 41.2472C15.8195 39.322 17.3909 37.764 19.3294 37.7659Z" fill="white"/>
</svg>
